<?xml version="1.0" encoding="UTF-8"?>
<!DOCTYPE svg PUBLIC "-//W3C//DTD SVG 1.1//EN" "http://www.w3.org/Graphics/SVG/1.1/DTD/svg11.dtd">
<!-- Creator: CorelDRAW 2026 (Evaluation Version) -->
<svg xmlns="http://www.w3.org/2000/svg" xml:space="preserve" width="210mm" height="297mm" version="1.1" style="shape-rendering:geometricPrecision; text-rendering:geometricPrecision; image-rendering:optimizeQuality; fill-rule:evenodd; clip-rule:evenodd"
viewBox="0 0 21000 29700"
 xmlns:xlink="http://www.w3.org/1999/xlink"
 xmlns:xodm="http://www.corel.com/coreldraw/odm/2003">
 <defs>
  <style type="text/css">
   <![CDATA[
    .fil12 {fill:#010011}
    .fil3 {fill:#012648}
    .fil0 {fill:#03041C}
    .fil1 {fill:#040215}
    .fil2 {fill:#041737}
    .fil11 {fill:#043867}
    .fil10 {fill:#04CBFD}
    .fil7 {fill:#052856}
    .fil17 {fill:#086598}
    .fil25 {fill:#0971AE}
    .fil24 {fill:#098ECF}
    .fil27 {fill:#0991F3}
    .fil4 {fill:#0A082A}
    .fil23 {fill:#0C4F8B}
    .fil18 {fill:#0E4772}
    .fil9 {fill:#0EB4F2}
    .fil8 {fill:#13062A}
    .fil13 {fill:#161739}
    .fil14 {fill:#181747}
    .fil29 {fill:#182A56}
    .fil5 {fill:#190A45}
    .fil19 {fill:#1C2947}
    .fil15 {fill:#1C90BA}
    .fil22 {fill:#24EBFE}
    .fil28 {fill:#253C66}
    .fil21 {fill:#2B0F51}
    .fil30 {fill:#302D6D}
    .fil38 {fill:#336391}
    .fil26 {fill:#365086}
    .fil35 {fill:#5454AB}
    .fil20 {fill:#5AEAFE}
    .fil37 {fill:#6167E8}
    .fil36 {fill:#8C76C8}
    .fil31 {fill:#ABD0F2}
    .fil33 {fill:#D1A8F1}
    .fil34 {fill:#D355F4}
    .fil32 {fill:#D3E3F7}
    .fil16 {fill:#ED93FD}
    .fil6 {fill:#F16CF5}
   ]]>
  </style>
 </defs>
 <g id="Layer_x0020_1">
  <metadata id="CorelCorpID_0Corel-Layer"/>
  <path class="fil0" d="M7328.59 16429.08l145.14 3.74 2189.09 79.66 -1.23 189.03 -1316.59 -18.92c-237.89,-1.28 -866.43,4.91 -1030.92,-57.35 -77.18,8.55 -18.66,-13.16 -71.7,16.88l1.82 -245.97 84.39 32.93zm3285.88 -1845.24c-37.21,166.22 -2.25,351.14 -15.43,523.92 -16.65,218.21 -120.73,187.75 -299.69,174.49 -50.89,50.76 -81.69,21.94 51.06,58.86l131.3 32.37c4.44,-6.36 14.77,4.74 21.56,8.4l-298.06 -29.71c-143.84,-14.8 -55.48,-27.76 -215.63,-45.64 -140.05,-15.63 -65.86,-40.52 -201.5,-83.91l-174.63 -26.2c-82.89,62.74 -62.05,115.27 -110.46,197.4 -98.53,3.47 -520.28,55.01 -586.47,14.71 -117,-71.24 -6.84,-31.59 -78.87,-85.77 -80.82,-60.8 -127.98,67.46 -81.14,-121.08 -52.89,-29.11 -60.61,-15.74 -88.13,-82.25 -38.96,-94.18 29.61,5.06 -54.95,-109.72 -1.88,-2.54 -6.62,-8.06 -8.27,-10.72 -1.64,-2.63 -5.04,-9.03 -6.4,-11.76 -108.17,-216.61 -37.71,43.45 -79.64,-88.81 -2.09,-6.59 -11.41,-2.67 -16.7,-8.2l165.37 -45.5 -63.57 7.81 -382.71 13.82c8.37,95.94 3.34,148.49 -72.5,252.92l-61.1 66.64c-44.27,66.06 -39.23,35.77 -68.67,115.19 103.02,69.44 12.37,-9.7 73.66,-5.2 -80.88,133.37 -60.55,438.37 -55.01,453.81 29.46,82.02 33.58,38.74 65.8,59.61l44.39 34.72c125.49,86.14 1037.68,58.92 1233.44,58.25 350.98,-1.2 706.2,15.95 1059.94,14.43l771.55 2.71c25.42,2.43 84.82,8.58 124.33,13.96 31.4,4.29 30.34,4.4 56.07,10.29l30.64 11.74c-43.86,67.44 -345.09,30.81 -440.83,33.81l-3174.17 -16.84c-24.92,1.52 -31.81,7.56 -63.83,2.67 -53.63,-14.08 -79.77,-0.78 -86.88,-58.55 -11.09,-15.66 -15.31,13.93 -33.06,-62.46 -5.54,-23.85 -4.67,-59.38 -3.54,-84.1 2.7,-59.27 3.81,-88.03 40.78,-127.47 -69.67,-8.67 -24.89,-40.93 -63.6,37.17 -30.98,62.51 -5.84,223.14 7.74,289.38 -89.93,21.83 -103.27,29.19 -202.76,36.47 -34.6,2.54 -86.11,5.61 -119.41,1.04l-86.86 -27.3c-30.16,-0.15 -21.97,3.8 -54.89,-3.41 -96.38,-21.1 -11.69,0.36 -54.34,-24.25 -60.13,6.84 -91.81,-4.81 -132.99,-25.6 0,401.58 240.8,124.93 235.57,547.62 -4.8,387.67 181.04,277.6 464.12,316.85l3086.13 30.05c215.22,-29.5 528.82,-17.67 783.77,-17.09 116.91,0.26 541.06,-3.8 608.28,-75.67 38.6,-41.28 26.84,-27.94 27.88,-65.68 38.79,-134.21 18.21,-42.26 -17.68,-75.41 -75.82,116.07 -996.21,96.93 -1176.23,104.59l-952.14 15.01c-170.47,-3.49 -127.68,-40.83 -150.92,-186.42 20.94,-52.05 -57.29,-62.02 222.85,-59.67l897.07 -35.75c375.83,-16.74 775.58,-61.15 1153.27,-69.95l70.66 -107.08c59.35,-87.85 140.09,-122.38 164.89,-227.71 -163.64,-3.52 -296.38,-26.9 -498.96,-38.08 2.1,-194.58 85.71,-171.98 -117.13,-580.57 -51.34,-103.41 -75.17,-161.82 -130.06,-248.4 -82.99,-130.92 -78.46,-164.73 -167.19,-191.15l-0.91 35.95c66.3,122.35 705.06,974.09 183.44,999.94 26.59,-73.65 123.04,-194.75 31.56,-403.8 -47.37,-108.24 -142.43,-180.07 -178.8,-306.44 -123.4,-73.92 -164.02,-278.66 -252.45,-404.17l-468.71 -24.95c-61.95,26.08 -42.79,8.65 -75.96,55.49 -14.5,20.48 -10.52,19.74 -26,48.21l-19.29 36.31c-5.15,-63.99 -48.75,-430.24 -22.69,-482.3l-15.31 68.13z"/>
  <path class="fil1" d="M8981.21 11974.85c171.18,101.56 118.33,81.09 211.87,231.86l745.07 3.86c126.25,29.59 38.85,2.75 83.15,53.77 -112.25,37.07 -673.06,38.54 -804.85,16.54 -113.53,-18.95 -47.8,0.74 -100.48,-65.19 -137.28,-171.83 -70.05,-155.99 -134.76,-240.84zm-1160.71 -188.56c-26.04,64.37 -19.95,24.69 16.57,43.9 35.11,-17.82 87.1,-49.91 142.54,-54.56 -61.46,23.88 -113.6,103.39 -65.46,203.68 82.38,171.65 683.95,205.38 1211.99,485.48 213.9,113.46 314.06,237.38 423.28,253.34 39.69,8.04 52.18,31.67 107.89,21.4 53.13,-4.31 14.94,6.07 80.82,-14.51l73.6 -59.37c242.72,-152.71 442.47,-258.83 729.25,-357.64 186.62,-64.31 580.71,-138.3 706.71,-209.63 100.34,-56.8 111.03,-79.4 116.69,-215.76l-71.62 -63.01c-91.2,-10.88 -60.41,29.58 -97.43,-80.43 -252.3,-112.22 -610.11,-51.05 -810.65,84.55 -184.91,125.05 -150.07,112.03 -394.75,83.36 -201.36,-23.59 -242.11,43.71 -456.76,10.83 -296.14,-45.37 -316.69,20.17 -461.71,18.84 -218.5,-1.99 -282.81,-244.76 -820.57,-245.32 -135.21,-0.14 -344.96,24.44 -430.39,94.85z"/>
  <path class="fil2" d="M10677.82 12962.19l188.91 654.99c31.69,59.76 44.96,74.44 32.35,123.77l-5.21 23.77c88.55,43.27 127.12,96.61 128,230.77l43.25 87.16c-94.25,6.01 -145.35,19.35 -252.88,27.94l-98.04 281.26c-5.17,-4.81 -95.92,14.95 -41.47,-91.99l-48.81 -80.94c0.9,-112.5 -35.05,-302.22 5.86,-379.35l0 676.14c-26.06,52.06 17.54,418.31 22.69,482.3l19.29 -36.31c15.48,-28.47 11.5,-27.73 26,-48.21 33.17,-46.84 14.01,-29.41 75.96,-55.49 49.03,-36.81 75.14,-31.75 184.98,-25.67 650.43,36.03 294.84,36.98 500.89,129.14 88.73,26.42 84.2,60.23 167.19,191.15 54.89,86.58 78.72,144.99 130.06,248.4 202.84,408.59 119.23,385.99 117.13,580.57 202.58,11.18 335.32,34.56 498.96,38.08 0,-319.81 -75.93,-541.03 -127.72,-831.6 -24.19,-135.74 -52.18,-275.54 -79.58,-391.51 -31.63,-133.86 -75.36,-291.26 -75.36,-442.72 -84.42,-151.32 -122.84,-362.33 -147.29,-551.27 -5.8,-5.97 -10.54,-14.36 -13.81,-20.78 -49.85,-97.96 -21.48,-64.87 -51.43,-188.19 -2.03,-8.36 -13.08,-40.9 -16.93,-62.59 -13.68,-77.16 -5.82,-199.03 9.99,-275.94 -47.38,229.95 73.01,958.21 121.26,1040.88l32 33.52c64.64,80.86 85.73,219.55 94.56,333.09 20.49,186.31 82.53,414.28 120.62,608.77 37.25,190.23 72.49,449.4 119.17,631.83l13.25 51.87 -45.19 -0.56c-152.88,0.03 -174.1,24.93 -312.24,4.92 -104.47,-228.01 -125.21,-547.47 -199.7,-773.43 -81.67,-247.74 -31.55,-132.92 -71.08,-307.35 -27.47,-121.21 -94.17,-61.31 -88.58,-327.14 -87.11,42.12 67.47,-29.61 -35.72,30.5 -49.07,28.58 25.74,24.86 -29.6,7.3 -10.88,-129.63 -27.7,-43.96 -31.49,-266.42 -3.38,-197.8 -56.33,79.4 4.23,-228.22 -40.51,-12.64 35.19,51.1 -36.97,-9.25 -46.26,-38.69 -37.65,-85.93 -38.67,-151.91 -0.87,-56.14 2.79,-135.76 2.59,-242.03 -0.29,-148.92 6.56,-146.63 -24.91,-252.57 -0.58,-1.95 -2.75,-8.32 -3.22,-10.32 -14.72,-63.22 8.6,-133.62 -7.4,-213.75 -0.08,-0.34 -9.53,-37.43 -11.01,-43.05 -18.34,-69.71 3.51,-1.04 -10.97,-40.28 -35.15,-95.27 -56.49,-34.17 -34.34,-169.67 33.16,-202.75 2.57,-178.35 -85.24,-253.54 -126.65,-108.46 65.55,114.17 -42.66,-40.55 -164.31,58.26 -277.19,111.89 -356.8,221.5l-165.02 3.46c-33.83,-51.78 -27.03,-38.04 -29.58,-115.27 -0.97,44.23 2.11,70.92 -8.06,114.55 -21.07,90.49 -3.11,34.45 -32.21,70.24z"/>
  <path class="fil3" d="M7277.32 15980.56c328.48,-22.91 218.94,-210.88 294.75,-645.76 27.3,-156.62 28.32,-125.67 80.66,-238.59 2.36,-5.12 5.3,-11.14 7.62,-16.32 39.7,-88.75 80.45,-273.48 152.29,-390.02l132.44 -147.93c37.05,-33.75 15.71,-2.68 52.58,-38.32 51.59,-49.86 36.05,-13.8 45.5,-124.44 4.2,-49.14 3.7,-107.6 4.85,-157.59 208.18,-35.35 119.98,3.67 434.44,-42.9 71.8,-10.63 59.05,-10.23 97.18,57.84l39.48 -93.03c53.91,45.3 37.56,38.26 134.2,45.34 114.94,8.41 -14.57,43.07 56.07,0l23.47 -578.08c-45.87,80.1 20.06,12.02 -89.72,56.74 -39.71,16.18 -3.05,4.99 -47.51,16.41 -22.54,5.78 -26.97,3.47 -68.49,10.17l-27.17 47.53 -16.33 87.77 -39.64 134.99 -121.11 26.51c-11.98,-92.91 1.13,-110.32 41.35,-172.19l-4.23 -55.48 120.23 -402.15c-2.2,-4.53 -3.46,-11.84 -3.79,-14.62 -9.16,-76.81 16.48,-109.45 36.04,-213.78 15.76,-84.04 33.31,-149.54 36.46,-240.87 -178.53,-52.48 -397.39,-182.99 -783.05,-276.33 -83.83,67.84 -70.49,28.41 -76.29,137.09 -1.15,21.72 -3.15,74.95 -5.27,88.31 -7.35,46.34 -17.18,69.35 -21.13,104.34l-4.85 350.38c9.99,147 36.02,55.26 15.62,176.49 -9.03,53.65 -11.92,64.12 -14.37,127.42 -3.62,93.23 -13.02,179.98 -6.47,247.72 14.93,154.21 39.12,227.47 -10.39,422.03 -40.58,159.45 -80.81,259.31 -134.93,403.19 -49.41,131.36 -68.36,290.95 -104.28,436.37 -50.34,203.77 -56.73,661.59 -191.06,828.04 -28.03,34.73 -7.13,-4.18 -35.15,43.72z"/>
  <path class="fil4" d="M11292.76 11819.61c32.37,-3.7 93,-24.99 80.2,30.18 90.77,75.66 114.17,75.55 102.33,230.67 -232.21,186.91 -597.47,174.73 -916.18,271.67 -175.4,53.35 -279.23,102.11 -433.81,176.49 -101.74,48.95 -303.03,175.89 -387.17,196.4 -20.41,39.13 25.84,18.73 -35.18,38.68 -65.35,21.36 -10.65,29.85 -45.64,-24.17 -55.71,10.27 -68.2,-13.36 -107.89,-21.4 -27,23.13 15.23,48.46 -92.01,-15.27l-270.64 -157.03c-352.89,-175.5 -966.46,-394.13 -1327.34,-415.89l-11.61 8.64 109.67 49.53c78.32,18.88 90.01,32.95 172.51,45.89 59.21,35.77 323.94,91.09 430.84,119.76 116.78,31.33 275.75,87.64 360.11,139.28 -110.64,-74.36 -290.64,30.84 -442.25,7.92 2.52,-0.09 193.65,13.81 220.53,16.66 125.94,13.32 23.22,-1.21 112.52,45 4.17,2.16 11.17,5.77 15.05,7.63l53.13 17.01c-171.07,7.09 -51.47,-6.12 -96.31,49.69l94.46 4.63c18.9,163.15 -41.65,278.42 -29.16,422.16l17.46 29.07c19.21,-136.51 18.93,-160.67 83.97,-209.95 160.5,-121.63 -49.93,82.08 50.12,-33.54 1.09,87.86 -11.43,216.39 30.88,277.54 17.97,26 -1.88,6.03 35.36,33.37l161.33 68.12c87.16,31.78 152.27,32.95 241.1,67.01 421.63,161.71 441.37,-20.24 681.63,-102.98 301.78,-103.93 169.44,-57.64 301.86,-305.14l50.38 106.69 -4.36 -312.69c15.42,-65.4 -19.32,-32.57 60.47,-50.77l-40.46 -44.88c-1.42,-6.25 -4.49,-8.46 -8.16,-11.33 -118.37,29.55 -276.1,99.05 -355.12,102.52 -95.77,4.2 -120.81,-28.36 -253.74,77.08 -4.18,3.32 -23.45,20.47 -28.91,26.1 178.27,-65.9 260.58,-196.02 831.61,-296.08 145.59,-25.52 231.83,12.86 369.96,-34.15l-232.55 -36.42c323.64,-13.59 235.93,-47.48 394,-99.5l-145.16 -13.88c136.73,-21.09 252.42,-64.9 348.03,-129.03 112.08,-102.24 24.31,-135.08 86.35,-233.18 84.11,29.88 40.67,-25.63 88.41,95.83 -0.61,-2.32 -19.73,-8.06 0.7,-36.85 35.43,-49.92 90.36,56.13 102.31,71.21 31.73,40.05 41.37,40.82 67.24,72.87 70.21,87.01 53.53,129.94 24.85,234.26l-0.74 0.11c8.33,-5.51 59.73,-4.65 59.16,-113.97 -1.31,-252.75 -323,-356.59 -412.99,-403.83 -103.5,-54.36 -121.55,-96.54 -258.58,-118.17 37.02,110.01 6.23,69.55 97.43,80.43z"/>
  <path class="fil2" d="M8832.85 13610.76l-23.47 578.08c-70.64,43.07 58.87,8.41 -56.07,0 -96.64,-7.08 -80.29,-0.04 -134.2,-45.34l-39.48 93.03c-38.13,-68.07 -25.38,-68.47 -97.18,-57.84 -314.46,46.57 -226.26,7.55 -434.44,42.9 -1.15,49.99 -0.65,108.45 -4.85,157.59 -9.45,110.64 6.09,74.58 -45.5,124.44 -36.87,35.64 -15.53,4.57 -52.58,38.32l-132.44 147.93c-71.84,116.54 -112.59,301.27 -152.29,390.02 -2.32,5.18 -5.26,11.2 -7.62,16.32 -52.34,112.92 -53.36,81.97 -80.66,238.59 -75.81,434.88 33.73,622.85 -294.75,645.76l-79.69 -1.32 86.86 27.3c33.3,4.57 84.81,1.5 119.41,-1.04 99.49,-7.28 112.83,-14.64 202.76,-36.47 -13.58,-66.24 -38.72,-226.87 -7.74,-289.38 38.71,-78.1 -6.07,-45.84 63.6,-37.17 41.55,-105.91 48.57,-89.79 100.65,-179.39 31.2,-126.91 -21.15,-26.38 71.7,-114.15l234.56 -355.97c48.1,-77.49 68.14,-89.02 100.31,-169.06l623.05 -28.34c-70.58,59.25 -98.92,7.55 -188.57,56.96l63.57 -7.81 77.67 -9.71c33.3,44.45 6.66,-2.41 38.22,71.75 3.76,8.81 11.44,38.62 14.35,47.54l65.51 -529.8 -6.35 -863.11 -24.34 49.37z"/>
  <path class="fil5" d="M9037.89 14402.51c-1.27,522.32 -77.35,791.43 177.25,728.97 69.01,-187.18 14.14,-519.66 28.84,-731.56 17.21,-248.15 371.21,-210.42 472.55,-98.9l502.68 628.55c111.97,137.86 93.46,172.46 206.52,188.92l14.05 -701.55 0.45 -84.56 3.85 -112.84c-34.34,54.91 -14.37,69.8 -28.07,150.98 -2.09,12.4 -13.87,60.17 -21.12,78.49 -16.81,42.53 -10.29,27.38 -29.39,53.04 -96.77,-206.47 -61.06,-125.39 -71.39,-430.98 -3.4,-100.51 14.75,-392.07 -19.83,-450.59l-23.21 878.51 -131.94 9.35 -132.47 -59.09c-38.35,-44.86 -90.67,-100.34 -129.97,-147.68 -33.75,-40.64 -33.19,-41.2 -61.78,-78.89 -63.23,-83.36 -37.03,-5.09 -56.78,-104.45 -217.32,-184.46 -469.81,-704.37 -665.04,-522.79 -52.8,49.12 -31.69,287.66 -31.89,381.41 -0.29,141.95 -2.77,283.78 -3.31,425.66z"/>
  <path class="fil6" d="M8856.6 15033.36c10.85,147 43.53,226.09 169.92,261.92 116.91,33.15 252.9,19.95 326.81,-51.64 118.62,-114.87 70.36,-565.14 72.59,-769.74 54.8,-186.39 161.98,-30.8 233.37,49.03 71.99,80.51 148.62,146.73 187.73,245.21 94.25,37.3 292.48,345.56 379.32,436.39 38.21,39.95 40.08,36.3 73.01,77.72 178.96,13.26 283.04,43.72 299.69,-174.49 13.18,-172.78 -21.78,-357.7 15.43,-523.92l-12.78 7.43 -134.87 2.4 -27.04 -176.73 -14.05 701.55c-113.06,-16.46 -94.55,-51.06 -206.52,-188.92l-502.68 -628.55c-101.34,-111.52 -455.34,-149.25 -472.55,98.9 -14.7,211.9 40.17,544.38 -28.84,731.56 -254.6,62.46 -178.52,-206.65 -177.25,-728.97 -30.26,-36.32 -9.91,5.39 -27.54,-53.01l-3.18 -563.42c2.59,-109.75 2.89,-116.53 -73.19,-145.91 -18.58,133.43 -21.63,1316.23 -77.38,1393.19z"/>
  <path class="fil7" d="M11269.49 12667.71c108.21,154.72 -83.99,-67.91 42.66,40.55 87.81,75.19 118.4,50.79 85.24,253.54 -22.15,135.5 -0.81,74.4 34.34,169.67 14.48,39.24 -7.37,-29.43 10.97,40.28 1.48,5.62 10.93,42.71 11.01,43.05 16,80.13 -7.32,150.53 7.4,213.75 0.47,2 2.64,8.37 3.22,10.32 31.47,105.94 24.62,103.65 24.91,252.57 0.2,106.27 -3.46,185.89 -2.59,242.03 1.02,65.98 -7.59,113.22 38.67,151.91 72.16,60.35 -3.54,-3.39 36.97,9.25 -60.56,307.62 -7.61,30.42 -4.23,228.22 3.79,222.46 20.61,136.79 31.49,266.42 55.34,17.56 -19.47,21.28 29.6,-7.3 103.19,-60.11 -51.39,11.62 35.72,-30.5 -5.59,265.83 61.11,205.93 88.58,327.14 39.53,174.43 -10.59,59.61 71.08,307.35 74.49,225.96 95.23,545.42 199.7,773.43 138.14,20.01 159.36,-4.89 312.24,-4.92l45.19 0.56c-170.5,-49.34 -122.72,25.51 -305.11,-28.37l-184.77 -892.51c-20.18,-168.92 -0.07,-293.74 -38.66,-510.78l-137.14 -1109.34c18.67,-126.84 13.79,-384.84 -1.16,-516.4 -8.43,-74.16 -22.95,-135.13 -60.63,-197.1 -44.73,-73.59 -78.53,-73.1 -57,-140.46l-317.7 107.64z"/>
  <path class="fil8" d="M8667.79 14844.72l-165.37 45.5c5.29,5.53 14.61,1.61 16.7,8.2 41.93,132.26 -28.53,-127.8 79.64,88.81 1.36,2.73 4.76,9.13 6.4,11.76 1.65,2.66 6.39,8.18 8.27,10.72 84.56,114.78 15.99,15.54 54.95,109.72 27.52,66.51 35.24,53.14 88.13,82.25 -46.84,188.54 0.32,60.28 81.14,121.08 72.03,54.18 -38.13,14.53 78.87,85.77 66.19,40.3 487.94,-11.24 586.47,-14.71 48.41,-82.13 27.57,-134.66 110.46,-197.4l174.63 26.2c135.64,43.39 61.45,68.28 201.5,83.91 160.15,17.88 71.79,30.84 215.63,45.64l298.06 29.71c-6.79,-3.66 -17.12,-14.76 -21.56,-8.4l-131.3 -32.37c-132.75,-36.92 -101.95,-8.1 -51.06,-58.86 -32.93,-41.42 -34.8,-37.77 -73.01,-77.72 -86.84,-90.83 -285.07,-399.09 -379.32,-436.39 -46.37,28.31 -253.64,49.71 -337.68,9.33l-29.41 174.48c-1.26,-3.29 -5.74,12 -9.81,17.19 -2.42,-136.86 25.2,-394.97 -44.2,-495.24 -2.23,204.6 46.03,654.87 -72.59,769.74 -73.91,71.59 -209.9,84.79 -326.81,51.64 -126.39,-35.83 -159.07,-114.92 -169.92,-261.92l6.94 -608.86 -65.51 529.8c-2.91,-8.92 -10.59,-38.73 -14.35,-47.54 -31.56,-74.16 -4.92,-27.3 -38.22,-71.75l-77.67 9.71z"/>
  <path class="fil9" d="M9864.19 16519.83c23.24,145.59 -19.55,182.93 150.92,186.42l952.14 -15.01c180.02,-7.66 1100.41,11.48 1176.23,-104.59l6.96 -161.51 -2286.25 94.69z"/>
  <path class="fil1" d="M11942.98 13802.57c24.45,188.94 62.87,399.95 147.29,551.27l414.42 -151c168.22,-114.42 152.6,-248.37 80.74,-438.48l-84.54 -221.68c-70.8,-167.31 -181.54,-431.86 -296.2,-571.33l-20.2 -21.38c-2.05,3.38 -2.42,9.89 -2.83,11.51l-34.3 116.08c-3.52,69.35 93.82,232.22 131.91,332.41 61.93,162.89 233.16,443.98 215.61,613.99 -74.57,58.07 -158.37,103.23 -276.12,85.18 57.65,-106.2 19.66,-214.23 5.81,-253.53l-12.89 -77.16c-14.34,-143.88 -87.35,-169.03 -158.53,-280.21 -56.07,-87.59 -33.83,-128.59 -127.89,-160.19 -25.05,133.33 -15.91,320.82 17.72,464.52z"/>
  <path class="fil10" d="M8345 16682.59l1316.59 18.92 1.23 -189.03 -2189.09 -79.66c-51.49,51.4 7,-15.98 -50.16,21.2 -57.82,37.62 -28.84,-4.83 -62.49,66.71 41.95,65.43 -36.03,56.47 207.91,72.79 97.65,6.53 150.64,22.11 256.93,21.75 130.99,-0.46 429.3,-33.26 519.08,67.32z"/>
  <path class="fil2" d="M8019.24 15301.1c-34.74,35.74 -82.52,96.6 -134.55,133.75 -46.53,100.59 -104.87,165.69 -143.37,279.26 -9.67,57.14 -13.16,110.69 -15.13,166.7 -2.75,78.02 -29.48,5.13 19.03,94.25 32.02,4.89 38.91,-1.15 63.83,-2.67l3174.17 16.84c95.74,-3 396.97,33.63 440.83,-33.81l-30.64 -11.74c-25.73,-5.89 -24.67,-6 -56.07,-10.29 -39.51,-5.38 -98.91,-11.53 -124.33,-13.96l-771.55 -2.71c-353.74,1.52 -708.96,-15.63 -1059.94,-14.43 -195.76,0.67 -1107.95,27.89 -1233.44,-58.25l-44.39 -34.72c-32.22,-20.87 -36.34,22.41 -65.8,-59.61 -5.54,-15.44 -25.87,-320.44 55.01,-453.81 -61.29,-4.5 29.36,74.64 -73.66,5.2z"/>
  <path class="fil11" d="M7562.11 12822.72l-8.86 221.72 55.38 -127.85c9.24,297.15 26.4,585.09 37.98,887.96 6.33,165.65 -33.12,571.98 -73.95,719.18 -63.32,228.24 -112.49,512.18 -158.93,756.52 -47.89,251.93 -50.72,603.03 -265.85,660.03l-59.48 11.3c42.65,24.61 -42.04,3.15 54.34,24.25 32.92,7.21 24.73,3.26 54.89,3.41l79.69 1.32c28.02,-47.9 7.12,-8.99 35.15,-43.72 134.33,-166.45 140.72,-624.27 191.06,-828.04 35.92,-145.42 54.87,-305.01 104.28,-436.37 54.12,-143.88 94.35,-243.74 134.93,-403.19 49.51,-194.56 25.32,-267.82 10.39,-422.03 -6.55,-67.74 2.85,-154.49 6.47,-247.72 2.45,-63.3 5.34,-73.77 14.37,-127.42 20.4,-121.23 -5.63,-29.49 -15.62,-176.49l4.85 -350.38c3.95,-34.99 13.78,-58 21.13,-104.34 2.12,-13.36 4.12,-66.59 5.27,-88.31 5.8,-108.68 -7.54,-69.25 76.29,-137.09l-133.86 -32.37 -50.94 47.54c-3.32,3.55 -8.25,8.52 -11.42,12.2 -0.28,0.33 -36.99,53.3 -37.3,53.87 -34.3,60.9 -20.39,69.07 -70.26,126.02z"/>
  <path class="fil12" d="M7408.4 13105.63c-4.21,24.89 -36.95,175.78 -45.23,192.94 -31.5,65.38 -54.63,-1.74 -107.27,109.15 -40.83,86.02 -31.2,190.58 -128.14,237.42l-53.11 1.95c-53.01,159.04 -8.04,339.36 -21.18,517.01 -121.12,-35.69 -110.89,-57.11 -130.38,-75.52 -86.13,-34.2 -22.26,-15.64 -79.56,-45.36 -38.63,-20.04 -66.62,-25.53 -104.62,-42.84l4.63 -172.92 -23.67 -86.27c-38.65,34.5 -164.86,267.23 53.11,441.65 166.1,132.91 422.88,161.01 483.05,194.44 81.66,-245.66 157.86,-631.55 162.53,-914.2l11.23 -364.84 -10.46 -71.96 -10.35 29.68 -0.58 49.67z"/>
  <path class="fil13" d="M11706.36 12533.03c38.27,25.62 91.14,59.81 119.39,84.38 59.53,51.8 20.05,36.93 96.5,87.06 23,27.76 25.4,26.3 51.93,48.16 5.28,4.35 21.81,14.41 26.75,18.95 3.38,3.11 8.79,7.47 11.94,10.81l78.8 114.77c-7.84,0.23 -44.24,0.23 -50.88,-0.76 -135.61,-20.28 -46.06,-30.91 -46.02,-31.46l-58.82 172.89c-29.78,43.12 2.14,6.29 -39.19,41.55l-25.96 175.69c-15.81,76.91 -23.67,198.78 -9.99,275.94 3.85,21.69 14.9,54.23 16.93,62.59 29.95,123.32 1.58,90.23 51.43,188.19 3.27,6.42 8.01,14.81 13.81,20.78 -33.63,-143.7 -42.77,-331.19 -17.72,-464.52 94.06,31.6 71.82,72.6 127.89,160.19 71.18,111.18 144.19,136.33 158.53,280.21l12.89 77.16c13.85,39.3 51.84,147.33 -5.81,253.53 117.75,18.05 201.55,-27.11 276.12,-85.18 17.55,-170.01 -153.68,-451.1 -215.61,-613.99 -38.09,-100.19 -135.43,-263.06 -131.91,-332.41l34.3 -116.08c0.41,-1.62 0.78,-8.13 2.83,-11.51 -103.27,-241.96 -346.52,-352.04 -393.55,-392.67 -51.23,-44.27 -32.81,-1 -53.98,-79.93 -50.73,25.6 -65.54,-30.18 -30.6,55.66z"/>
  <path class="fil14" d="M8866.38 13092.81l36.56 92.13c14.39,36.13 -0.3,72.71 88.55,95.7 134.05,34.68 171.93,-2.26 306.34,35.53 -54.88,44.98 53.55,15.79 -77.94,36.44 -97.33,15.27 -37.82,1.73 -57.45,-11.61 100.01,0.49 98.73,13.66 133.03,52.99 68.62,35.94 111.64,83.41 169.97,145.54 26.83,28.57 128.81,166.12 146.17,212.81l30.68 35.96c52.24,-48.12 50.9,74.63 38.84,-87.82 -50.74,-43.33 -56.54,-42.35 -76.67,-119.2 69.15,15.6 49.23,25.94 106.82,62.56 37.28,-76.26 4.22,-79.62 134.24,-129.66l34.86 -12.38c158.3,-59.5 201.36,-222.94 431.85,-228.93 95.88,-2.49 144.47,-32.67 201.42,-96.25l34.88 67.64c37.45,111.72 4.3,84.51 81.15,100.02l-126.67 -350.35 -50.38 -106.69c-132.42,247.5 -0.08,201.21 -301.86,305.14 -240.26,82.74 -260,264.69 -681.63,102.98 -88.83,-34.06 -153.94,-35.23 -241.1,-67.01l-161.33 -68.12c-37.24,-27.34 -17.39,-7.37 -35.36,-33.37 -42.31,-61.15 -29.79,-189.68 -30.88,-277.54 -100.05,115.62 110.38,-88.09 -50.12,33.54 -65.04,49.28 -64.76,73.44 -83.97,209.95z"/>
  <path class="fil1" d="M11583.25 12404.55c-138.56,68.4 -338.45,35.2 -508.95,45.18 -138.13,47.01 -224.37,8.63 -369.96,34.15 -571.03,100.06 -653.34,230.18 -831.61,296.08 5.46,-5.63 24.73,-22.78 28.91,-26.1 132.93,-105.44 157.97,-72.88 253.74,-77.08 79.02,-3.47 236.75,-72.97 355.12,-102.52 3.67,2.87 6.74,5.08 8.16,11.33l40.46 44.88 71.51 22.78 23.41 72.66 23.78 236.28c29.1,-35.79 11.14,20.25 32.21,-70.24 10.17,-43.63 7.09,-70.32 8.06,-114.55 2.55,77.23 -4.25,63.49 29.58,115.27l165.02 -3.46c79.61,-109.61 192.49,-163.24 356.8,-221.5l317.7 -107.64 119.17 -27.04c-34.94,-85.84 -20.13,-30.06 30.6,-55.66 31.7,-7.66 21.83,9.31 51.8,-28.45 65.56,-82.62 22.31,-19.55 18.98,-73.77l0.74 -0.11c-57.97,-2.01 -24.71,-1.89 -55.2,-23.48l4.41 -211.69 -28.28 207.16 -146.16 57.52z"/>
  <path class="fil15" d="M7418.56 13463.08c-4.67,282.65 -80.87,668.54 -162.53,914.2 -21.52,180.28 -209.57,818.08 -164.2,965.73 -7.94,104.46 -117.28,495.62 -18.65,522.85 95.16,-31.51 202.55,-989.76 245.52,-1121.68 122.24,-375.36 103.78,-539.49 158.25,-909.34 7.33,-49.85 11.17,-95.54 18.1,-144.25l36.91 -145.72c-15.86,-90.65 -15.01,-438.22 21.29,-500.43l8.86 -221.72c-36.9,-21.33 -11.29,-69.99 -35.18,49.89l-34.03 350.49c1.67,209.96 -30.51,266.32 -31.49,467.87 -10.33,-63.04 9.05,-94.3 -16.29,-178.35 -17.97,-59.63 1.41,-16.27 -26.56,-49.54z"/>
  <path class="fil0" d="M7567.82 12526.02c91.3,32.74 22.41,0.62 55.5,50.09l108.71 6.98 133.86 32.37c385.66,93.34 604.52,223.85 783.05,276.33 -3.15,91.33 -20.7,156.83 -36.46,240.87 -19.56,104.33 -45.2,136.97 -36.04,213.78 0.33,2.78 1.59,10.09 3.79,14.62 72.64,-251.42 101.27,-395.88 130.6,-668.48 20.38,-35.86 11.65,-27.23 47.73,-44.61l25.06 -11.02c44.84,-55.81 -74.76,-42.6 96.31,-49.69l-53.13 -17.01c-3.88,-1.86 -10.88,-5.47 -15.05,-7.63 -89.3,-46.21 13.42,-31.68 -112.52,-45 -26.88,-2.85 -218.01,-16.75 -220.53,-16.66 -146.87,0.58 -313.04,11.25 -436.34,-28.59 -79.92,3.91 -178.02,0.18 -232.05,-36.91 -127.14,19.74 -188.74,-1.78 -306.49,-33.4 -71.55,7.22 -18.11,23.22 -96.73,-2.75 -89.03,-29.41 -33.24,-14.57 -59.08,-52.86l-49.3 -31.19 12.45 -157.67 -25.99 -5.45c-56.97,82.44 -5.69,197.39 44.37,249.28 45.72,47.41 153.46,103.09 238.28,124.6z"/>
  <path class="fil16" d="M8857.19 13561.39l6.35 863.11 -6.94 608.86c55.75,-76.96 58.8,-1259.76 77.38,-1393.19 76.08,29.38 75.78,36.16 73.19,145.91l3.18 563.42c17.63,58.4 -2.72,16.69 27.54,53.01 0.54,-141.88 3.02,-283.71 3.31,-425.66 0.2,-93.75 -20.91,-332.29 31.89,-381.41 195.23,-181.58 447.72,338.33 665.04,522.79 69.79,-59.39 -1.08,65.5 169.32,101.31 -23.11,-151.79 -202.67,-341.88 -295.84,-467.2 -17.36,-46.69 -119.34,-184.24 -146.17,-212.81 -58.33,-62.13 -101.35,-109.6 -169.97,-145.54 -98.27,-8.46 -199.18,-11.43 -287.74,21.14 -107.67,39.6 -90.86,68.97 -150.54,146.26z"/>
  <path class="fil7" d="M9642.29 13788.3c73.29,10.64 6.61,-6.28 103.55,107.32 130.65,153.08 157.44,232.76 255.25,335.95 37.89,39.98 38.88,17.4 45.4,66.6l48.39 10.44c32.91,-89.11 11.23,-280.07 9.18,-402.42 -1.67,-99.04 -35.6,-330.58 42.49,-394.78 12.52,-70.71 -8.18,-38.98 67.99,-97.02l-32.27 -31.94c-15.04,-30.11 -50.5,26.99 -0.32,-27.17 48.83,-52.69 216.86,-15.58 332.54,-32.4l34.04 -78.62 -34.88 -67.64c-56.95,63.58 -105.54,93.76 -201.42,96.25 -230.49,5.99 -273.55,169.43 -431.85,228.93l-34.86 12.38c-130.02,50.04 -96.96,53.4 -134.24,129.66 -57.59,-36.62 -37.67,-46.96 -106.82,-62.56 20.13,76.85 25.93,75.87 76.67,119.2 12.06,162.45 13.4,39.7 -38.84,87.82z"/>
  <path class="fil17" d="M11587.19 12560.07c-21.53,67.36 12.27,66.87 57,140.46 37.68,61.97 52.2,122.94 60.63,197.1 14.95,131.56 19.83,389.56 1.16,516.4 42.44,-93.57 29.52,-276.22 35.65,-399.16 44.83,113.77 47.93,798.05 191.55,1373.73 16.67,66.85 39.06,130.57 47.44,203.58 12.22,106.62 -4.26,160.74 58.77,250.69l65.02 84.54c3.35,-49.32 -2.96,-94.21 -6.01,-140.08 -0.43,-6.47 -2.49,-51.65 -1.83,-57.72 7.7,-69.84 -13.72,-24.37 22.05,-67.05 -8.83,-113.54 -29.92,-252.23 -94.56,-333.09l-32 -33.52c-48.25,-82.67 -168.64,-810.93 -121.26,-1040.88l25.96 -175.69c1.68,-116.35 32.03,-313.09 25.49,-374.91 -76.45,-50.13 -36.97,-35.26 -96.5,-87.06 -28.25,-24.57 -81.12,-58.76 -119.39,-84.38l-119.17 27.04z"/>
  <path class="fil17" d="M7531.96 13544.87l-36.91 145.72c-6.93,48.71 -10.77,94.4 -18.1,144.25 -54.47,369.85 -36.01,533.98 -158.25,909.34 -42.97,131.92 -150.36,1090.17 -245.52,1121.68 -98.63,-27.23 10.71,-418.39 18.65,-522.85 -39.72,34.94 -22.95,-14.34 -54.43,130.48l-81.99 452.49c41.18,20.79 72.86,32.44 132.99,25.6l59.48 -11.3c75.25,-214.32 143.12,-169.46 161.5,-573.8 12.76,-280.98 58.03,-145.34 87.92,-285.39 20.86,-97.78 10.87,-204.74 35.33,-319.16 24.83,-116.13 62.46,-208.29 76.36,-297.39l65.34 -1040.12c-26.2,32.39 -43.85,47.42 -42.61,127.56l0.24 -7.11z"/>
  <path class="fil18" d="M11705.98 13414.03l137.14 1109.34c38.59,217.04 18.48,341.86 38.66,510.78l184.77 892.51c182.39,53.88 134.61,-20.97 305.11,28.37l-13.25 -51.87 -20.13 3.11 -207.32 5.53c-57.51,-139.66 -82.72,-368.01 -106.86,-527.87 -26.06,-172.48 -67.52,-390.22 -18.2,-508.88l74.34 281.69 6.47 -57.24 -47.32 -256.63c-63.03,-89.95 -46.55,-144.07 -58.77,-250.69 -8.38,-73.01 -30.77,-136.73 -47.44,-203.58 -143.62,-575.68 -146.72,-1259.96 -191.55,-1373.73 -6.13,122.94 6.79,305.59 -35.65,399.16z"/>
  <path class="fil18" d="M7553.25 13044.44c-36.3,62.21 -37.15,409.78 -21.29,500.43l-0.24 7.11c-1.24,-80.14 16.41,-95.17 42.61,-127.56l-65.34 1040.12c-13.9,89.1 -51.53,181.26 -76.36,297.39 -24.46,114.42 -14.47,221.38 -35.33,319.16 -29.89,140.05 -75.16,4.41 -87.92,285.39 -18.38,404.34 -86.25,359.48 -161.5,573.8 215.13,-57 217.96,-408.1 265.85,-660.03 46.44,-244.34 95.61,-528.28 158.93,-756.52 40.83,-147.2 80.28,-553.53 73.95,-719.18 -11.58,-302.87 -28.74,-590.81 -37.98,-887.96l-55.38 127.85z"/>
  <path class="fil19" d="M7026.07 13070.82c6.57,4.28 21.77,13.46 24.68,15.25 21.39,13.19 25.99,16.08 31.08,19.27 -115.58,220.62 -187.55,631.45 -338.29,722.12l-4.63 172.92c38,17.31 65.99,22.8 104.62,42.84 57.3,29.72 -6.57,11.16 79.56,45.36 64.66,-25.87 21.85,2.79 19.26,-52.86 -3.2,-68.75 -81.72,-162.27 35.49,-366.46 112.8,-196.54 146.36,-517.53 430.56,-563.63l0.58 -49.67c-86.7,-63.99 -55.14,-62.63 -90.48,-97.85 -55.11,-54.94 30.5,6.59 -42.03,-20.51 -42.35,-15.82 -17,2.9 -47.45,-20.58 -29.16,-22.48 -42.65,-49.07 -23.92,-96.77 22.61,-57.61 43.08,-56.07 86.19,-91.78 -108.73,62.32 -215.73,219.16 -265.22,342.35z"/>
  <path class="fil20" d="M10146.55 13511.41l11.45 89.05c-0.03,-0.05 -127.32,-6.95 89.01,-69.85 10.33,229.71 34.74,679.72 -62.5,845.84l-86.03 -44.93 20.65 176.82 131.94 -9.35 23.21 -878.51c26.67,-39.07 -57.47,-67.25 94.08,-51.58 59.78,6.18 35.61,7.99 54.44,44.26 25.98,50.02 24.61,541.37 21.28,606.38l-3.85 112.84c19.7,-25.47 13.65,17.25 37.59,-75.18 30.37,-117.19 0.64,-38.83 -6.82,-30.25l125.79 -16.55c3.16,-169.06 9.71,-400.21 -6.9,-564.92 -22.61,-224.3 -156.68,-252 -375.35,-231.09 -76.17,58.04 -55.47,26.31 -67.99,97.02z"/>
  <path class="fil11" d="M10214.54 13414.39c218.67,-20.91 352.74,6.79 375.35,231.09 16.61,164.71 10.06,395.86 6.9,564.92l4.9 380.87 12.78 -7.43 15.31 -68.13 0 -676.14c-40.91,77.13 -4.96,266.85 -5.86,379.35 122.73,-117.01 -6.35,-165.81 126.46,-304.68 3.08,-3.22 8.25,-7.83 11.38,-11.25l56.21 -73.73c-58.15,-140.77 -149.04,-296.21 -163.55,-458.9l-24.74 -26.08c-76.85,-15.51 -43.7,11.7 -81.15,-100.02l-34.04 78.62c-115.68,16.82 -283.71,-20.29 -332.54,32.4 -50.18,54.16 -14.72,-2.94 0.32,27.17l32.27 31.94z"/>
  <path class="fil4" d="M6923.09 14088.58c19.49,18.41 9.26,39.83 130.38,75.52 13.14,-177.65 -31.83,-357.97 21.18,-517.01l53.11 -1.95c96.94,-46.84 87.31,-151.4 128.14,-237.42 52.64,-110.89 75.77,-43.77 107.27,-109.15 8.28,-17.16 41.02,-168.05 45.23,-192.94 -284.2,46.1 -317.76,367.09 -430.56,563.63 -117.21,204.19 -38.69,297.71 -35.49,366.46 2.59,55.65 45.4,26.99 -19.26,52.86z"/>
  <path class="fil7" d="M9864.19 16519.83l2286.25 -94.69 -6.96 161.51c35.89,33.15 56.47,-58.8 17.68,75.41 80.23,-33.67 26.82,43.89 49.43,-94.17 1.12,-6.86 -4.28,-102.93 -5.86,-114.82 -18.87,-141.22 -9.85,-73.74 3.31,-205.69l-70.66 107.08c-377.69,8.8 -777.44,53.21 -1153.27,69.95l-897.07 35.75c-280.14,-2.35 -201.91,7.62 -222.85,59.67z"/>
  <path class="fil16" d="M8758.56 12647.97l36.39 21.48c4.82,2.97 13.77,8.62 18.13,11.33l35.78 24.13c-16.86,113.53 0.16,102.94 -36.71,211.85 -66.97,197.86 -67.1,388.7 -194.68,488.11l140.5 -534.08c32.75,-180.59 -25.9,-167.26 -47.14,-178.21 -29.33,272.6 -57.96,417.06 -130.6,668.48l-120.23 402.15 139.96 -21.6 27.17 -47.53 221.79 -630.34c-12.49,-143.74 48.06,-259.01 29.16,-422.16l-94.46 -4.63 -25.06 11.02z"/>
  <path class="fil21" d="M8627.13 13694.08c41.52,-6.7 45.95,-4.39 68.49,-10.17 44.46,-11.42 7.8,-0.23 47.51,-16.41 109.78,-44.72 43.85,23.36 89.72,-56.74l24.34 -49.37c59.68,-77.29 42.87,-106.66 150.54,-146.26 88.56,-32.57 189.47,-29.6 287.74,-21.14 -34.3,-39.33 -33.02,-52.5 -133.03,-52.99 19.63,13.34 -39.88,26.88 57.45,11.61 131.49,-20.65 23.06,8.54 77.94,-36.44 -134.41,-37.79 -172.29,-0.85 -306.34,-35.53 -88.85,-22.99 -74.16,-59.57 -88.55,-95.7l-36.56 -92.13 -17.46 -29.07 -221.79 630.34z"/>
  <path class="fil17" d="M12338.28 15906.27c-22.25,-14.65 -2.49,-6.14 -53.83,-30.35 -1.72,-0.81 -32.83,-12.3 -38.13,-14.72 -17.8,-208.37 -80.83,-635.44 -159.61,-761.7l-6.47 57.24 -74.34 -281.69c-49.32,118.66 -7.86,336.4 18.2,508.88 24.14,159.86 49.35,388.21 106.86,527.87l207.32 -5.53z"/>
  <path class="fil18" d="M10444.08 14219.54c3.33,-65.01 4.7,-556.36 -21.28,-606.38 -18.83,-36.27 5.34,-38.08 -54.44,-44.26 -151.55,-15.67 -67.41,12.51 -94.08,51.58 34.58,58.52 16.43,350.08 19.83,450.59 10.33,305.59 -25.38,224.51 71.39,430.98 19.1,-25.66 12.58,-10.51 29.39,-53.04 7.25,-18.32 19.03,-66.09 21.12,-78.49 13.7,-81.18 -6.27,-96.07 28.07,-150.98z"/>
  <path class="fil9" d="M7837.07 11830.19c-24.12,44.37 -5.08,16.47 -32.7,50.73 -4.45,5.51 -19.63,20.4 -24.03,25 -6.71,7.03 -29.2,25.78 -40.1,38.39 15.41,31.68 17.89,37.05 35.8,74.7 48.31,79.49 28.83,51.82 83.39,110.93 360.88,21.76 974.45,240.39 1327.34,415.89l270.64 157.03c107.24,63.73 65.01,38.4 92.01,15.27 -109.22,-15.96 -209.38,-139.88 -423.28,-253.34 -528.04,-280.1 -1129.61,-313.83 -1211.99,-485.48 -48.14,-100.29 4,-179.8 65.46,-203.68 -55.44,4.65 -107.43,36.74 -142.54,54.56z"/>
  <path class="fil9" d="M9738.13 12725.02c84.14,-20.51 285.43,-147.45 387.17,-196.4 154.58,-74.38 258.41,-123.14 433.81,-176.49 318.71,-96.94 683.97,-84.76 916.18,-271.67 11.84,-155.12 -11.56,-155.01 -102.33,-230.67l-8.58 32.83c-5.66,136.36 -16.35,158.96 -116.69,215.76 -126,71.33 -520.09,145.32 -706.71,209.63 -286.78,98.81 -486.53,204.93 -729.25,357.64l-73.6 59.37z"/>
  <path class="fil2" d="M8097.36 12475.89l-55 -3.52c123.3,39.84 289.47,29.17 436.34,28.59 151.61,22.92 331.61,-82.28 442.25,-7.92 -84.36,-51.64 -243.33,-107.95 -360.11,-139.28 -106.9,-28.67 -371.63,-83.99 -430.84,-119.76 -45.64,36.22 -10.46,38.48 -165.95,42.09 24.28,21.48 -63.49,-48.93 24.45,9.75 55.88,37.29 42.92,25.07 73.97,117.57 103.17,20.64 120.89,17.31 183.93,78.68l-149.04 -6.2z"/>
  <path class="fil16" d="M10503.01 12993.93l126.67 350.35 24.74 26.08c23.77,-49.92 41.15,72.48 60.25,119.64 24.96,61.63 42.09,108.79 80.11,166.53 55.23,-14.61 39.09,-5.98 71.95,-39.35l-188.91 -654.99 -23.78 -236.28c-70.52,157.58 -19.25,239.96 -24.14,359.1 -88.54,-61.01 -88.04,-286.55 -78.42,-403.65 -29,-25.15 63.36,-94.9 -52.83,-0.12l4.36 312.69z"/>
  <path class="fil22" d="M10094.88 14308.61l3.6 22.91 86.03 44.93c97.24,-166.12 72.83,-616.13 62.5,-845.84 -216.33,62.9 -89.04,69.8 -89.01,69.85l-11.45 -89.05c-78.09,64.2 -44.16,295.74 -42.49,394.78 2.05,122.35 23.73,313.31 -9.18,402.42z"/>
  <path class="fil23" d="M11494.88 15287.12c36.37,126.37 131.43,198.2 178.8,306.44 91.48,209.05 -4.97,330.15 -31.56,403.8 521.62,-25.85 -117.14,-877.59 -183.44,-999.94 -36.01,57.45 51.36,74.33 72.73,251.37 -53.03,33.21 -37.53,4.42 -36.53,38.33z"/>
  <path class="fil11" d="M7641.5 11990.49c-11.67,216.66 -79.34,75.52 -73.33,290.44l106.78 107.81c43.74,25.51 154.51,36.74 224.75,43.83l-89.39 2.89c54.03,37.09 152.13,40.82 232.05,36.91l55 3.52c-5.87,-4.7 -14.6,-18.76 -18.16,-13.37l-255.89 -130.47c-45.7,-43.46 -31.1,22.94 -41.13,-95.82 65.24,-31.57 115.39,-11.78 175.31,-48.12l-109.67 -49.53 11.61 -8.64c-54.56,-59.11 -35.08,-31.44 -83.39,-110.93l-69.46 13.45 10.23 -88.15 -31.65 -17.9 -43.66 64.08z"/>
  <path class="fil5" d="M9425.92 14473.9c69.4,100.27 41.78,358.38 44.2,495.24 4.07,-5.19 8.55,-20.48 9.81,-17.19l29.41 -174.48c84.04,40.38 291.31,18.98 337.68,-9.33 -39.11,-98.48 -115.74,-164.7 -187.73,-245.21 -71.39,-79.83 -178.57,-235.42 -233.37,-49.03z"/>
  <path class="fil7" d="M11074.3 12449.73c170.5,-9.98 370.39,23.22 508.95,-45.18 -62.15,-74.71 -16.32,16.18 1.58,-85.25 10.99,-62.24 15.6,-25.37 6.61,-108.37 -170.59,-26.84 -133.93,7.36 -152.82,-40.03 -95.61,64.13 -211.3,107.94 -348.03,129.03l145.16 13.88c-158.07,52.02 -70.36,85.91 -394,99.5l232.55 36.42z"/>
  <path class="fil24" d="M12039.39 14842.87l47.32 256.63c78.78,126.26 141.81,553.33 159.61,761.7 5.3,2.42 36.41,13.91 38.13,14.72 51.34,24.21 31.58,15.7 53.83,30.35l20.13 -3.11c-46.68,-182.43 -81.92,-441.6 -119.17,-631.83 -38.09,-194.49 -100.13,-422.46 -120.62,-608.77 -35.77,42.68 -14.35,-2.79 -22.05,67.05 -0.66,6.07 1.4,51.25 1.83,57.72 3.05,45.87 9.36,90.76 6.01,140.08l-65.02 -84.54z"/>
  <path class="fil25" d="M7429.79 13098.24l-11.23 364.84c27.97,33.27 8.59,-10.09 26.56,49.54 25.34,84.05 5.96,115.31 16.29,178.35 0.98,-201.55 33.16,-257.91 31.49,-467.87l34.03 -350.49c23.89,-119.88 -1.72,-71.22 35.18,-49.89 49.87,-56.95 35.96,-65.12 70.26,-126.02 0.31,-0.57 37.02,-53.54 37.3,-53.87 3.17,-3.68 8.1,-8.65 11.42,-12.2l50.94 -47.54 -108.71 -6.98c-103.43,8.73 -177.83,86.15 -255.61,121.27 55.95,20.99 22.96,-23.81 31.02,201.18l60.35 -114.06 -29.29 313.74z"/>
  <path class="fil26" d="M11438.62 12170.9c18.89,47.39 -17.77,13.19 152.82,40.03 8.99,83 4.38,46.13 -6.61,108.37 -17.9,101.43 -63.73,10.54 -1.58,85.25l146.16 -57.52 28.28 -207.16 -4.41 211.69c30.49,21.59 -2.77,21.47 55.2,23.48 28.68,-104.32 45.36,-147.25 -24.85,-234.26 -25.87,-32.05 -35.51,-32.82 -67.24,-72.87 -11.95,-15.08 -66.88,-121.13 -102.31,-71.21 -20.43,28.79 -1.31,34.53 -0.7,36.85 -47.74,-121.46 -4.3,-65.95 -88.41,-95.83 -62.04,98.1 25.73,130.94 -86.35,233.18z"/>
  <path class="fil7" d="M10623.92 14218.92l48.81 80.94c-54.45,106.94 36.3,87.18 41.47,91.99l98.04 -281.26c107.53,-8.59 158.63,-21.93 252.88,-27.94l-43.25 -87.16c-129.4,-11.29 -144.63,-61.47 -203.9,-166.23l-56.21 73.73c-3.13,3.42 -8.3,8.03 -11.38,11.25 -132.81,138.87 -3.73,187.67 -126.46,304.68z"/>
  <path class="fil13" d="M8981.21 11974.85c64.71,84.85 -2.52,69.01 134.76,240.84 52.68,65.93 -13.05,46.24 100.48,65.19 131.79,22 692.6,20.53 804.85,-16.54 -44.3,-51.02 43.1,-24.18 -83.15,-53.77l-745.07 -3.86c-93.54,-150.77 -40.69,-130.3 -211.87,-231.86z"/>
  <path class="fil27" d="M7314.08 16625.24c164.49,62.26 793.03,56.07 1030.92,57.35 -89.78,-100.58 -388.09,-67.78 -519.08,-67.32 -106.29,0.36 -159.28,-15.22 -256.93,-21.75 -243.94,-16.32 -165.96,-7.36 -207.91,-72.79 33.65,-71.54 4.67,-29.09 62.49,-66.71 57.16,-37.18 -1.33,30.2 50.16,-21.2l-145.14 -3.74 -26.7 36.52c-2.83,3.96 -15.45,25.6 -20.54,31.57 5.52,64.8 13.86,85.43 32.73,128.07z"/>
  <path class="fil8" d="M6719.87 13741.19l23.67 86.27c150.74,-90.67 222.71,-501.5 338.29,-722.12 -5.09,-3.19 -9.69,-6.08 -31.08,-19.27 -2.91,-1.79 -18.11,-10.97 -24.68,-15.25 -63.41,81.83 -121.66,196.72 -161.82,296.67 -53.01,131.89 -102.26,235.73 -144.38,373.7z"/>
  <path class="fil28" d="M7291.29 12728.47c-43.11,35.71 -63.58,34.17 -86.19,91.78 -18.73,47.7 -5.24,74.29 23.92,96.77 30.45,23.48 5.1,4.76 47.45,20.58 72.53,27.1 -13.08,-34.43 42.03,20.51 35.34,35.22 3.78,33.86 90.48,97.85l10.35 -29.68 10.46 71.96 29.29 -313.74 -60.35 114.06c-8.06,-224.99 24.93,-180.19 -31.02,-201.18 77.78,-35.12 152.18,-112.54 255.61,-121.27 -33.09,-49.47 35.8,-17.35 -55.5,-50.09 -48.84,28.1 -93.92,45.62 -149.46,76.46 -43.38,24.1 -30.96,12.7 -71.32,47 -71.97,61.17 -38.8,3.57 -55.75,78.99z"/>
  <path class="fil29" d="M11494.88 15287.12c-1,-33.91 -16.5,-5.12 36.53,-38.33 -21.37,-177.04 -108.74,-193.92 -72.73,-251.37l0.91 -35.95c-206.05,-92.16 149.54,-93.11 -500.89,-129.14 -109.84,-6.08 -135.95,-11.14 -184.98,25.67l468.71 24.95c88.43,125.51 129.05,330.25 252.45,404.17z"/>
  <path class="fil29" d="M8069.43 14992.97c-19.59,114.93 -87.41,160.11 -128.7,267.61 95.61,-42.87 71.69,-76.67 111.75,-88.01 50.19,-14.2 -8.43,-28.97 35.43,13.34l61.1 -66.64c75.84,-104.43 80.87,-156.98 72.5,-252.92l382.71 -13.82c89.65,-49.41 117.99,2.29 188.57,-56.96l-623.05 28.34c-32.17,80.04 -52.21,91.57 -100.31,169.06z"/>
  <path class="fil30" d="M7285.17 12152.14l25.99 5.45c66.08,-39.41 16.45,5.44 72.57,-63.53l58.44 -69.14c-144.14,393.12 66.22,312.67 -94.16,321.53 25.84,38.29 -29.95,23.45 59.08,52.86 78.62,25.97 25.18,9.97 96.73,2.75 -4.08,-5.06 -10.48,-19.02 -12.42,-15.03 -23.43,47.82 -19.67,-24.79 -23.37,-29.67l-32.07 -43.94c-18.38,-126.54 -23.17,-251.41 74.22,-324.18l258.68 -141.69c-34.92,21.44 -44.3,45.59 -83.7,78.86l31.65 17.9 23.43 0c10.9,-12.61 33.39,-31.36 40.1,-38.39 4.4,-4.6 19.58,-19.49 24.03,-25 27.62,-34.26 8.58,-6.36 32.7,-50.73 -36.52,-19.21 -42.61,20.47 -16.57,-43.9 -65.95,22.32 -100.21,31.05 -168.97,60.36 -78.77,33.57 -68.12,35.58 -138.86,72.92 -124.43,65.69 -175.43,103.08 -227.5,232.57z"/>
  <path class="fil7" d="M8097.36 12475.89l149.04 6.2c-63.04,-61.37 -80.76,-58.04 -183.93,-78.68 -31.05,-92.5 -18.09,-80.28 -73.97,-117.57 -87.94,-58.68 -0.17,11.73 -24.45,-9.75 155.49,-3.61 120.31,-5.87 165.95,-42.09 -82.5,-12.94 -94.19,-27.01 -172.51,-45.89 -59.92,36.34 -110.07,16.55 -175.31,48.12 10.03,118.76 -4.57,52.36 41.13,95.82l255.89 130.47c3.56,-5.39 12.29,8.67 18.16,13.37z"/>
  <path class="fil31" d="M10440.23 14332.38l-0.45 84.56 27.04 176.73 134.87 -2.4 -4.9 -380.87 -125.79 16.55c7.46,-8.58 37.19,-86.94 6.82,30.25 -23.94,92.43 -17.89,49.71 -37.59,75.18z"/>
  <path class="fil23" d="M7435.96 12313.42l32.07 43.94c3.7,4.88 -0.06,77.49 23.37,29.67 1.94,-3.99 8.34,9.97 12.42,15.03 117.75,31.62 179.35,53.14 306.49,33.4l89.39 -2.89c-70.24,-7.09 -181.01,-18.32 -224.75,-43.83l-106.78 -107.81c-6.01,-214.92 61.66,-73.78 73.33,-290.44 -37.99,23.62 -17.76,7.4 -48.18,33.8 -159.86,138.68 -80.76,248.59 -157.36,289.13z"/>
  <path class="fil32" d="M10993.34 13948.25c-77.07,-54.1 -49.78,-15.16 -81.97,-108.63 86.74,19.23 62.63,12.6 81.97,108.63zm-175.37 -118.99c59.27,104.76 74.5,154.94 203.9,166.23 -0.88,-134.16 -39.45,-187.5 -128,-230.77 -87.46,-31.53 -45.69,21.04 -70.83,-76.57 110.32,27.01 54.64,23.7 76.04,52.8 12.61,-49.33 -0.66,-64.01 -32.35,-123.77 -32.86,33.37 -16.72,24.74 -71.95,39.35 -38.02,-57.74 -55.15,-104.9 -80.11,-166.53 -19.1,-47.16 -36.48,-169.56 -60.25,-119.64 14.51,162.69 105.4,318.13 163.55,458.9z"/>
  <path class="fil33" d="M9738.13 14118.23c19.75,99.36 -6.45,21.09 56.78,104.45 28.59,37.69 28.03,38.25 61.78,78.89 39.3,47.34 91.62,102.82 129.97,147.68l-4.96 -77.96 64.79 -73.12c-6.52,-49.2 -7.51,-26.62 -45.4,-66.6 -97.81,-103.19 -124.6,-182.87 -255.25,-335.95 -96.94,-113.6 -30.26,-96.68 -103.55,-107.32l-30.68 -35.96c93.17,125.32 272.73,315.41 295.84,467.2 -170.4,-35.81 -99.53,-160.7 -169.32,-101.31z"/>
  <path class="fil6" d="M8710.83 12692.58c21.24,10.95 79.89,-2.38 47.14,178.21l-140.5 534.08c127.58,-99.41 127.71,-290.25 194.68,-488.11 36.87,-108.91 19.85,-98.32 36.71,-211.85l-35.78 -24.13c-4.36,-2.71 -13.31,-8.36 -18.13,-11.33l-36.39 -21.48c-36.08,17.38 -27.35,8.75 -47.73,44.61z"/>
  <path class="fil23" d="M7763.17 15463.09c3.46,4.82 9.05,5.9 10.55,14.35l38.61 68.44c33.41,-70.73 33,-47.96 72.36,-111.03 52.03,-37.15 99.81,-98.01 134.55,-133.75 29.44,-79.42 24.4,-49.13 68.67,-115.19 -43.86,-42.31 14.76,-27.54 -35.43,-13.34 -40.06,11.34 -16.14,45.14 -111.75,88.01 41.29,-107.5 109.11,-152.68 128.7,-267.61l-234.56 355.97c-92.85,87.77 -40.5,-12.76 -71.7,114.15z"/>
  <path class="fil24" d="M7763.17 15463.09c-52.08,89.6 -59.1,73.48 -100.65,179.39 -36.97,39.44 -38.08,68.2 -40.78,127.47 -1.13,24.72 -2,60.25 3.54,84.1 17.75,76.39 21.97,46.8 33.06,62.46l31.34 -182.03 51.64 -20.37c38.5,-113.57 96.84,-178.67 143.37,-279.26 -39.36,63.07 -38.95,40.3 -72.36,111.03l-38.61 -68.44c-1.5,-8.45 -7.09,-9.53 -10.55,-14.35z"/>
  <path class="fil25" d="M7435.96 12313.42c76.6,-40.54 -2.5,-150.45 157.36,-289.13 30.42,-26.4 10.19,-10.18 48.18,-33.8l43.66 -64.08c39.4,-33.27 48.78,-57.42 83.7,-78.86l-258.68 141.69c-97.39,72.77 -92.6,197.64 -74.22,324.18z"/>
  <path class="fil34" d="M10654.04 12725.91l-23.41 -72.66 -71.51 -22.78c-79.79,18.2 -45.05,-14.63 -60.47,50.77 116.19,-94.78 23.83,-25.03 52.83,0.12 -9.62,117.1 -10.12,342.64 78.42,403.65 4.89,-119.14 -46.38,-201.52 24.14,-359.1z"/>
  <path class="fil29" d="M11896.76 13079.38c41.33,-35.26 9.41,1.57 39.19,-41.55l58.82 -172.89c-0.04,0.55 -89.59,11.18 46.02,31.46 6.64,0.99 43.04,0.99 50.88,0.76l-78.8 -114.77c-3.15,-3.34 -8.56,-7.7 -11.94,-10.81 -4.94,-4.54 -21.47,-14.6 -26.75,-18.95 -26.53,-21.86 -28.93,-20.4 -51.93,-48.16 6.54,61.82 -23.81,258.56 -25.49,374.91z"/>
  <path class="fil35" d="M7311.16 12157.59l-12.45 157.67 49.3 31.19c160.38,-8.86 -49.98,71.59 94.16,-321.53l-58.44 69.14c-56.12,68.97 -6.49,24.12 -72.57,63.53z"/>
  <path class="fil22" d="M8583.63 13829.38l-119.4 -10.69c-40.22,61.87 -53.33,79.28 -41.35,172.19l121.11 -26.51 39.64 -134.99z"/>
  <polygon class="fil31" points="9986.66,14449.25 10119.13,14508.34 10098.48,14331.52 10094.88,14308.61 10046.49,14298.17 9981.7,14371.29 "/>
  <path class="fil17" d="M7658.34 15916.51c7.11,57.77 33.25,44.47 86.88,58.55 -48.51,-89.12 -21.78,-16.23 -19.03,-94.25 1.97,-56.01 5.46,-109.56 15.13,-166.7l-51.64 20.37 -31.34 182.03z"/>
  <path class="fil26" d="M7314.08 16625.24c-18.87,-42.64 -27.21,-63.27 -32.73,-128.07 5.09,-5.97 17.71,-27.61 20.54,-31.57l26.7 -36.52 -84.39 -32.93 -1.82 245.97c53.04,-30.04 -5.48,-8.33 71.7,-16.88z"/>
  <polygon class="fil31" points="8464.23,13818.69 8583.63,13829.38 8599.96,13741.61 8460,13763.21 "/>
  <path class="fil36" d="M10993.34 13948.25c-19.34,-96.03 4.77,-89.4 -81.97,-108.63 32.19,93.47 4.9,54.53 81.97,108.63z"/>
  <path class="fil25" d="M7776.04 12019.01c-17.91,-37.65 -20.39,-43.02 -35.8,-74.7l-23.43 0 -10.23 88.15 69.46 -13.45z"/>
  <path class="fil37" d="M10893.87 13764.72l5.21 -23.77c-21.4,-29.1 34.28,-25.79 -76.04,-52.8 25.14,97.61 -16.63,45.04 70.83,76.57z"/>
  <path class="fil38" d="M11364.38 11882.62l8.58 -32.83c12.8,-55.17 -47.83,-33.88 -80.2,-30.18l71.62 63.01z"/>
  <path class="fil24" d="M9657.31 12739.53c34.99,54.02 -19.71,45.53 45.64,24.17 61.02,-19.95 14.77,0.45 35.18,-38.68 -65.88,20.58 -27.69,10.2 -80.82,14.51z"/>
 </g>
</svg>
