<?xml version="1.0" encoding="UTF-8" standalone="no"?>
<!-- Created with Inkscape (http://www.inkscape.org/) -->

<svg
   width="25.664576mm"
   height="31.220835mm"
   viewBox="0 0 25.664576 31.220835"
   version="1.1"
   id="svg1"
   xmlns:inkscape="http://www.inkscape.org/namespaces/inkscape"
   xmlns:sodipodi="http://sodipodi.sourceforge.net/DTD/sodipodi-0.dtd"
   xmlns="http://www.w3.org/2000/svg"
   xmlns:svg="http://www.w3.org/2000/svg">
  <sodipodi:namedview
     id="namedview1"
     pagecolor="#ffffff"
     bordercolor="#000000"
     borderopacity="0.25"
     inkscape:showpageshadow="2"
     inkscape:pageopacity="0.0"
     inkscape:pagecheckerboard="0"
     inkscape:deskcolor="#d1d1d1"
     inkscape:document-units="mm">
    <inkscape:page
       x="0"
       y="0"
       width="25.664576"
       height="31.220835"
       id="page2"
       margin="0"
       bleed="0" />
  </sodipodi:namedview>
  <defs
     id="defs1" />
  <g
     inkscape:label="Layer 1"
     inkscape:groupmode="layer"
     id="layer1"
     transform="translate(-89.531667,-116.90638)">
    <path
       d="m 99.85042,116.90638 -0.79375,1.05833 0.79375,1.32292 h 0.26458 l -0.26458,-2.38125 m 1.5875,0 0.26458,0.26458 -0.26458,-0.26458 m 0.52917,0.26458 v 0.26459 l 2.38125,1.85208 -2.38125,-2.11667 m -0.26459,1.85209 -2.381247,4.7625 c 1.081867,-0.1993 2.068267,-0.26459 3.174997,-0.26459 0.43376,0 1.1677,0.13822 1.5434,-0.13229 0.83296,-0.59974 0.11708,-2.36757 -0.22048,-3.04271 l -1.5875,-1.32291 h -0.52917 m 2.64584,0.52916 0.26458,0.26459 -0.26458,-0.26459 m 0.79375,1.05834 -0.26459,0.52916 0.26459,-0.52916 m 1.05833,0 0.52917,0.52916 -0.52917,-0.52916 m -7.672917,0.26458 0.264584,0.26458 -0.264584,-0.26458 m -0.79375,0.52917 -0.264583,0.52916 0.264583,-0.52916 m 8.202087,0.26458 -1.05834,1.32292 v 0.52916 l 2.64584,0.79375 c -0.0803,-0.74317 -0.15322,-1.09578 -0.79375,-0.52916 l -0.79375,-2.11667 m -0.88194,0.61736 0.17638,0.0882 -0.17638,-0.0882 m -8.37848,0.17639 -0.529167,0.79375 0.529167,-0.79375 m 0.529167,1.85208 c 1.065875,-0.22438 1.515104,-0.54849 1.852083,-1.5875 l -1.852083,1.5875 m -1.322917,-0.79375 0.264583,0.26459 -0.264583,-0.26459 m 3.704167,1.5875 c 3.430553,-0.63195 6.101353,0.42364 9.260413,1.5875 -1e-5,-0.92379 0.87445,-0.0464 1.32292,0.30869 1.00732,0.79746 1.98421,1.72628 2.60173,2.86631 1.11463,2.05779 1.23071,4.0412 1.10244,6.35 -0.0479,0.862 -0.51841,1.31288 -0.26459,2.11667 h 0.26459 c 1.60329,-3.2066 0.12476,-6.89425 -1.32292,-9.78958 l 0.79375,0.52916 c -0.69195,-1.75297 -2.87918,-3.83684 -4.7625,-4.23333 v 0.26458 c 1.56752,0.61875 3.12914,1.98935 3.96875,3.43959 -2.39083,-2.39083 -4.85589,-4.0379 -8.20208,-4.40973 -1.72953,-0.19219 -3.65803,-0.88735 -4.762503,0.97014 m -3.880561,-0.88194 0.08821,0.17638 -0.08821,-0.17638 m -0.352773,0.61736 -3.704166,3.70417 2.645833,-2.38125 1.058333,-1.32292 m -3.704168,13.75833 h -0.264584 l -0.79375,-2.64583 H 90.32542 c 0,1.77416 0.555651,3.78128 2.116667,4.7625 l -0.79375,-1.85209 c 0.592325,0.8657 1.105068,1.89882 1.852083,2.64584 1.83952,1.83952 4.895599,2.66611 7.40833,2.91042 7.03604,0.68406 13.61951,-4.46853 11.55348,-11.90626 -2.03809,-7.33713 -12.915522,-9.18136 -18.16806,-4.23333 -3.125536,2.94435 -2.746554,6.49179 -2.645833,10.31875 m -0.264584,-9.78958 -0.79375,1.5875 h 0.264584 l 0.529166,-1.5875 m 21.960417,0.52917 1.05833,2.64583 h 0.26459 l -1.32292,-2.64583 m -4.7625,1.5875 -2.91042,-0.79375 c 0.74132,-0.90978 2.52903,-0.24639 2.91042,0.79375 m -10.583333,-1.05834 v 0.26459 l -2.910417,1.05833 c 0.429544,-1.3667 1.664466,-1.32292 2.910417,-1.32292 m -7.584733,0.97015 0.08821,0.17638 -0.08821,-0.17638 m -0.352772,0.61735 0.264583,0.26459 -0.264583,-0.26459 m -0.17639,0.97015 0.08821,0.17638 -0.08821,-0.17638 m 24.782648,-0.17639 v 0.79375 h 0.26458 l -0.26458,-0.79375 m 0.26458,1.32291 v 2.64583 h 0.26458 l -0.26458,-2.64583 m -15.875,2.91042 -2.910417,-0.44098 -1.5875,0.97014 c 0.169079,-1.60613 1.809112,-1.98289 3.175,-1.5875 -1.197827,-1.07173 -1.739735,-0.83132 -3.175,-0.52916 0.808236,-2.5716 4.340094,-0.41164 4.497917,1.5875 m 10.05417,-1.5875 c -1.49902,-0.31558 -1.92721,-0.6201 -3.175,0.52916 1.44384,-0.41795 2.67831,0.008 3.43958,1.32292 l -0.79375,0.26458 c -1.08383,-1.72426 -2.39313,-0.65356 -3.96875,-0.52916 0.17367,-0.94269 0.48035,-1.7353 1.32292,-2.29306 1.05113,-0.69583 2.78473,-0.53616 3.175,0.70556 m -19.57917,-0.52917 v 2.11667 h 0.264583 l -0.264583,-2.11667 m 0.352772,3.08681 0.08821,0.17638 -0.08821,-0.17638 m 14.199308,0.88194 c -0.0528,2.00497 -2.30141,4.1368 -3.88056,1.85208 -0.386392,-0.55904 -0.35277,-1.20638 -0.35277,-1.85208 h 4.23333 m -3.70416,0.52917 c 0.18613,2.35759 2.98887,2.35759 3.175,0 h -3.175 m 13.75833,0 0.26458,0.26458 -0.26458,-0.26458 m -0.26458,0.52916 0.26458,0.26459 -0.26458,-0.26459 m -0.26459,0.52917 0.26459,0.26458 -0.26459,-0.26458 m -0.26458,0.52917 -0.26458,0.52916 0.26458,-0.52916 m -20.902083,0.52916 0.79375,0.79375 -0.79375,-0.79375 m 4.233333,2.91042 -1.852083,2.11667 3.96875,1.5875 0.264583,-0.79375 h 0.264583 v 1.05833 l 5.291667,0.26458 v -1.05833 l 1.32292,0.79375 3.96875,-1.5875 -1.05834,-0.79375 c 0.0975,-0.72132 -0.39293,-1.42937 -1.32291,-1.45521 -1.3359,-0.0371 -2.87358,0.79385 -4.23334,0.92604 -2.28921,0.22257 -4.513045,-0.28409 -6.61458,-1.05833 m -1.322917,1.5875 -0.264583,0.26458 0.264583,-0.26458"
       style="fill:#1b1433;stroke:none"
       id="path1"
       sodipodi:nodetypes="ccccccccccccccsscccccccccccccccccccccccccccccccccccccccsscccccccsccccccccccccccscssccccccccccccccccccccccccccccccccccccccccccccscccccccccscccccccccccccccccccccccccccccccsscccc" />
  </g>
</svg>
