<?xml version="1.0" encoding="UTF-8"?>
<!DOCTYPE svg PUBLIC "-//W3C//DTD SVG 1.1//EN" "http://www.w3.org/Graphics/SVG/1.1/DTD/svg11.dtd">
<!-- Creator: CorelDRAW 2026 (Evaluation Version) -->
<svg xmlns="http://www.w3.org/2000/svg" xml:space="preserve" width="210mm" height="297mm" version="1.1" style="shape-rendering:geometricPrecision; text-rendering:geometricPrecision; image-rendering:optimizeQuality; fill-rule:evenodd; clip-rule:evenodd"
viewBox="0 0 21000 29700"
 xmlns:xlink="http://www.w3.org/1999/xlink"
 xmlns:xodm="http://www.corel.com/coreldraw/odm/2003">
 <defs>
  <style type="text/css">
   <![CDATA[
    .fil0 {fill:#00000D}
    .fil14 {fill:#0991F3}
    .fil1 {fill:#0A082A}
    .fil5 {fill:#0E1453}
    .fil2 {fill:#10196B}
    .fil3 {fill:#190A45}
    .fil23 {fill:#251649}
    .fil6 {fill:#2B2F92}
    .fil18 {fill:#322ECB}
    .fil9 {fill:#331469}
    .fil19 {fill:#491573}
    .fil4 {fill:#541B97}
    .fil12 {fill:#5A99E6}
    .fil7 {fill:#6167E8}
    .fil15 {fill:#6C3195}
    .fil16 {fill:#7634A5}
    .fil17 {fill:#8937AD}
    .fil13 {fill:#8F6FF5}
    .fil20 {fill:#A252E7}
    .fil22 {fill:#ABD0F2}
    .fil8 {fill:#B16CF4}
    .fil10 {fill:#D16BF2}
    .fil11 {fill:#DD37E8}
    .fil21 {fill:#F4ABFC}
   ]]>
  </style>
 </defs>
 <g id="Layer_x0020_1">
  <metadata id="CorelCorpID_0Corel-Layer"/>
  <path class="fil0" d="M5962.3 9420.12l-45.72 215.34c-13.43,434.13 7.75,870.43 125.6,1248.23 141.76,98.99 60.16,-44.24 189.43,104.52 42.96,49.43 100.73,16.53 149.36,105.97 41.7,76.71 21.84,153.2 72.16,245.65 15.52,28.5 35.64,27.53 59.25,76.03 48.32,99.23 -35.03,-26.31 18.28,65.57 45.35,78.19 -3.62,2.5 59.45,39 0.82,0.48 51.11,37.95 60,44.77 190.32,146.02 180.56,-39.89 262.11,208.94 129.62,-21.64 186.95,-19.81 197.24,47.87 10.03,65.96 -23.65,11.18 -11.3,48.04 89.95,35.38 109.68,3.41 163.47,14.39l76.45 52.53c3.38,3.25 17.48,19.27 23.63,24.14 99.44,-62 23.04,-2.04 70.55,-83 114.02,30.53 54.15,41.37 119.69,41.65l127.33 15.07c173.58,44.39 319.04,55.1 500.72,53.29 -107.27,-206.29 64.31,-72.83 212.32,-187.28l117.53 -96.44c98.96,-37.79 30.54,-19.48 88.54,-73.44 79.01,-73.48 48.57,67.38 112.29,-96.9 12.24,-31.57 13.82,-105.28 34.88,-133.48l95.62 -198.9c56.36,-21.95 41.49,-19.06 78.4,-52.14l48.2 -53.97c-37.08,-172.62 -54.35,-4.51 -65.56,-129.2 83.17,-41.91 89.74,-6.5 145.78,-23.83 131.57,-40.69 -50.1,-35.64 114.69,-49.57 -52.27,21.98 -25.81,-23.63 -32.25,40.38 -7.1,70.53 -15.31,6.52 20.7,50.9 70.64,-80.38 98.52,-109.56 75.22,-211.75l84.45 -6.69c9.54,-128.18 38.74,-245.75 117.36,-331.36l119.51 -413.94c3.16,-48.88 20.71,-70.27 5.8,-131.52 -73.05,-300.11 15.31,-398.99 -82.23,-554.1 -1.94,5.44 -16.68,65.98 -17.31,67.24 -33,65.35 32.59,3.84 -25.17,29.06 -111.79,48.81 79.91,-43.44 -108.58,-251.88 -6.95,-7.68 -84.38,-74.71 -86.73,-76.03 -61.04,-34.23 -2.7,-3.33 -69.45,-9.89 -15.14,-1.49 -6.83,3.48 -47.82,-14.69l-34.44 -17.77c-38.16,-10.92 -41.13,-4.69 -76.43,8.17 -5.69,-137.21 -17.29,-49.23 -49.67,-158.75 -134.37,73.77 -249.33,-48.9 -321.72,-162.04 -65.39,41.61 -102.82,42.66 -144.22,106.58 -8.83,-102.12 10.71,-55.53 -39.58,-99.93 -54.66,-48.27 -119.34,-66 -192.58,-75.87 -3.79,-0.52 -10.86,-1.52 -14.63,-2.03l-269.99 -3.11c-105.2,20.53 -153.34,58.04 -222.13,-24.47 -31.19,48.02 -54.83,68.77 -101.11,72.85 -109.31,9.63 -144.14,12.45 -220.81,-28.4 -22.16,78.49 -12.89,18.16 -24.13,69.47 -4.15,18.96 -2.49,17.6 -3.47,28.05 -2.09,22.08 71.79,44.68 -38.05,56.23 -69.98,7.36 -138.02,-55.01 -195.04,-84.02 -42.79,53.68 -30.84,19.83 -49.56,90.49 -93.47,-65.43 -40.23,-61.16 -151.78,-11.1 -71.52,32.09 -80.03,0.61 -145.49,35.67 1.15,4.14 1.24,10.55 1.3,12.84l-1.98 64.33c-24.28,130.17 -9.37,48.07 -36.37,84.71 -51.59,70 -96.45,18.13 -45.28,117.7l-279.51 47.51c-126.96,31.44 -40.77,-1.13 -92.44,56.58 -2.24,2.5 -7.5,7.7 -9.62,10.44l-28.48 80.1c7.36,49.69 -29.99,23.6 38.22,48.4 -4.65,2.69 -12.45,4.4 -15.25,5.21l-42 11.34c-105.84,24.35 41.34,-29.44 -33.27,5.32 23.59,54.18 -1.47,127.25 -29.51,162.53l40.57 31.87c1.94,2.52 6.62,8.24 8.03,10.95l-10.8 77.84c-1.04,2.65 -4.22,9.72 -5.18,11.99 -28.75,67.72 -44.83,-1.64 -160.41,86.82l-25.84 29.07c-16.16,38.16 -9.46,42.67 -9.11,85.19l-51.02 -77.45c-4.25,89.32 -8.34,92.4 -78.32,123.76l28.83 -436.51c16.72,-155.64 11.19,-68.21 -21.62,-109.14z"/>
  <path class="fil1" d="M9019.65 8729.54c123.53,5.2 188.23,61.6 224.1,155.53 -126.57,-23.79 -202.75,-31.82 -224.1,-155.53zm-1872.94 -519.17c-130.85,14.07 -276.94,139.48 -349.9,218.56 44.45,33.69 31.71,17.32 51.38,75.65 -54.92,49.53 73.72,28.46 -79.87,39.21 -100.69,7.06 -23.54,-10.1 -34.46,-25.24l-108.43 37.89c-96.56,107.74 -61.03,130.56 -213.17,177.26 -36.75,42.38 -184.67,165.27 -210.58,179.4 -45.36,117.78 -126.24,218.7 -182.96,341.92l-56.42 165.1c32.81,40.93 38.34,-46.5 21.62,109.14l-28.83 436.51c69.98,-31.36 74.07,-34.44 78.32,-123.76l51.02 77.45c-0.35,-42.52 -7.05,-47.03 9.11,-85.19l25.84 -29.07c115.58,-88.46 131.66,-19.1 160.41,-86.82 0.96,-2.27 4.14,-9.34 5.18,-11.99l10.8 -77.84c-1.41,-2.71 -6.09,-8.43 -8.03,-10.95l-40.57 -31.87c28.04,-35.28 53.1,-108.35 29.51,-162.53 74.61,-34.76 -72.57,19.03 33.27,-5.32l42 -11.34c2.8,-0.81 10.6,-2.52 15.25,-5.21 -68.21,-24.8 -30.86,1.29 -38.22,-48.4l28.48 -80.1c2.12,-2.74 7.38,-7.94 9.62,-10.44 51.67,-57.71 -34.52,-25.14 92.44,-56.58l279.51 -47.51c-51.17,-99.57 -6.31,-47.7 45.28,-117.7 27,-36.64 12.09,45.46 36.37,-84.71l1.98 -64.33c-0.06,-2.29 -0.15,-8.7 -1.3,-12.84 65.46,-35.06 73.97,-3.58 145.49,-35.67 111.55,-50.06 58.31,-54.33 151.78,11.1 18.72,-70.66 6.77,-36.81 49.56,-90.49 57.02,29.01 125.06,91.38 195.04,84.02 109.84,-11.55 35.96,-34.15 38.05,-56.23 0.98,-10.45 -0.68,-9.09 3.47,-28.05 11.24,-51.31 1.97,9.02 24.13,-69.47 76.67,40.85 111.5,38.03 220.81,28.4 46.28,-4.08 69.92,-24.83 101.11,-72.85 68.79,82.51 116.93,45 222.13,24.47l269.99 3.11c3.77,0.51 10.84,1.51 14.63,2.03 73.24,9.87 137.92,27.6 192.58,75.87 50.29,44.4 30.75,-2.19 39.58,99.93 41.4,-63.92 78.83,-64.97 144.22,-106.58 72.39,113.14 187.35,235.81 321.72,162.04 32.38,109.52 43.98,21.54 49.67,158.75 35.3,-12.86 38.27,-19.09 76.43,-8.17l34.44 17.77c40.99,18.17 32.68,13.2 47.82,14.69 66.75,6.56 8.41,-24.34 69.45,9.89 2.35,1.32 79.78,68.35 86.73,76.03 188.49,208.44 -3.21,300.69 108.58,251.88 57.76,-25.22 -7.83,36.29 25.17,-29.06 0.63,-1.26 15.37,-61.8 17.31,-67.24 97.54,155.11 9.18,253.99 82.23,554.1 14.91,61.25 -2.64,82.64 -5.8,131.52l-119.51 413.94c-78.62,85.61 -107.82,203.18 -117.36,331.36l-84.45 6.69c23.3,102.19 -4.58,131.37 -75.22,211.75 -36.01,-44.38 -27.8,19.63 -20.7,-50.9 6.44,-64.01 -20.02,-18.4 32.25,-40.38 -164.79,13.93 16.88,8.88 -114.69,49.57 -56.04,17.33 -62.61,-18.08 -145.78,23.83 11.21,124.69 28.48,-43.42 65.56,129.2l-48.2 53.97c-36.91,33.08 -22.04,30.19 -78.4,52.14l-95.62 198.9c-21.06,28.2 -22.64,101.91 -34.88,133.48 -63.72,164.28 -33.28,23.42 -112.29,96.9 -58,53.96 10.42,35.65 -88.54,73.44l-117.53 96.44c-148.01,114.45 -319.59,-19.01 -212.32,187.28 -181.68,1.81 -327.14,-8.9 -500.72,-53.29l-127.33 -15.07c-65.54,-0.28 -5.67,-11.12 -119.69,-41.65 -47.51,80.96 28.89,21 -70.55,83 -6.15,-4.87 -20.25,-20.89 -23.63,-24.14l-76.45 -52.53c-53.79,-10.98 -73.52,20.99 -163.47,-14.39 -12.35,-36.86 21.33,17.92 11.3,-48.04 -10.29,-67.68 -67.62,-69.51 -197.24,-47.87 -81.55,-248.83 -71.79,-62.92 -262.11,-208.94 -8.89,-6.82 -59.18,-44.29 -60,-44.77 -63.07,-36.5 -14.1,39.19 -59.45,-39 -53.31,-91.88 30.04,33.66 -18.28,-65.57 -23.61,-48.5 -43.73,-47.53 -59.25,-76.03 -50.32,-92.45 -30.46,-168.94 -72.16,-245.65 -48.63,-89.44 -106.4,-56.54 -149.36,-105.97 -129.27,-148.76 -47.67,-5.53 -189.43,-104.52 37.65,209.64 118.89,249.94 170.96,427.12 -111.26,-39.73 -35.67,5.81 -100.55,-78.09l-222.91 -296.22c-76,-120.18 -161.35,-333.05 -213.58,-491.4 -11.66,-163.66 -77.71,-522.35 -44.38,-716.67l36.79 -100.81c-39.65,-193.61 80.31,-383.99 128.31,-557.8 -62.96,-4.1 -188.41,637.35 -229.7,713.68 -3.5,-5.82 -6.59,-13.95 -8.02,-18.72l-15.1 -58.82c-8.45,-88.63 32.49,-93.45 0.91,-174.03 -71.78,409.92 -76.51,735.66 51.52,1134.73 114.27,356.19 284.84,566.25 493,794.18 94.1,43.3 148.41,108.58 236.59,169.91 84.19,58.55 169.14,112.6 260.84,163.1 127.18,70.06 469.18,241.53 610.75,231.38 542.74,-6.65 325.92,150.35 1212.62,-1.02 117.17,-20.01 378.79,-97.61 441.18,-180.57l156.78 -110.89c52.53,-28.51 73.57,-23.28 110.74,-54.17l82.28 -105.95c88.58,-84.66 117.11,-16.08 157.94,-163.7 76.78,-277.54 14.31,-8.6 175.22,-349.29 3.08,-6.5 12.38,-24.16 15.47,-30.56 11.09,-23.05 17.2,-40.45 28.95,-63.69 18.16,-35.93 8.34,-18.17 26.33,-46.16 137.47,-213.83 28.97,-210.14 150.29,-438.76 55,-103.64 30.05,-173.83 75.75,-319.79 76.4,-244 -18.6,168.34 20.3,-65.74 15.34,-92.34 -0.11,-173.05 46.89,-310.98l19.4 -50.15c8.65,-34.34 7.05,-37.23 7.05,-76.45 15.1,-78.64 -17.02,-173.35 -47.8,-234.27 -31.15,-123.03 -150.44,-391.63 -223.74,-448.75 61.62,101.33 -34.18,89.56 -34.78,90.21l-300.26 -258.18c-88.9,-77.72 50.48,61.97 -24.34,-24.28l-120.74 -163.44c-64.33,-62.29 -192.64,-120.65 -310.93,-153.31 -139.29,-38.44 -92.97,-54.37 -154.56,-81.04 -27.1,-11.74 -146.42,-30.08 -176.24,-38.13 -80.87,-21.8 -109.2,-49.98 -170.06,-62.99 -87.56,-18.71 -120.37,-4.67 -205.52,-32.42 -51.25,-16.7 -110.63,-54.13 -165.87,-58.05l-337.25 -11.53c-66.79,-0.67 -71.63,14.62 -154.11,25.17 -461.24,58.96 -236.64,53.46 -351.89,4.02z"/>
  <path class="fil2" d="M7351.96 7877.97c-200.23,-23.03 -486.76,113.26 -646.63,188.82l-393.32 240.97c-288.05,262.94 -703.44,652.2 -767.1,1224.17 31.58,80.58 -9.36,85.4 -0.91,174.03l15.1 58.82c1.43,4.77 4.52,12.9 8.02,18.72 41.29,-76.33 166.74,-717.78 229.7,-713.68l57.13 -49.22c26.04,-118.08 199.61,-322.38 295.28,-406.04 48.04,-42.02 197.51,-257.56 407.77,-319.38 95.86,-117.14 475.61,-215.79 639.12,-236.71l-26.27 116.03c243.48,-135.75 894.32,-131.12 1203.58,-76.42 74.71,13.21 195.74,37.19 261.99,72.42 78.26,41.62 102.59,88.74 215.65,110.23 249.74,47.47 210.73,222.02 405.03,250.6 -22.4,-65.59 10.85,-22.13 -30.04,-63.32 37.64,16.85 209.2,125.44 231.95,148.82l188.83 199.07c24.5,15.65 45.17,9.53 33.87,18.44 -80.92,-91.74 -27.6,-59.27 -181.52,-211.06 -232.68,-229.48 -445.23,-377.39 -744.76,-522.31 -203.75,-98.57 -399.07,-129.45 -627.35,-195.37 -278.33,-80.37 -567.78,14.26 -775.12,-27.63z"/>
  <path class="fil3" d="M7197.61 12025.23c35.2,33.58 -9.49,4.64 47.46,30.55l177.68 64.91c5.16,2.61 13.39,6.99 19.6,11.27l9.12 -11.11c580.11,74.9 1041.17,-7.7 1484.53,-200.26 318.44,-138.31 728,-489.07 883.51,-773.2l-15 -54.27c-39.29,58.68 -23.81,62.45 -113.22,73.34 25.42,-104.51 87.47,-171.73 126.7,-293.4l113.06 -319.06c-5.46,-120.71 64.67,-399.09 52.8,-683.74 -9.06,-217.08 -29.1,-182.89 -59.05,-212.9 0,39.22 1.6,42.11 -7.05,76.45l-19.4 50.15c-47,137.93 -31.55,218.64 -46.89,310.98 -38.9,234.08 56.1,-178.26 -20.3,65.74 -45.7,145.96 -20.75,216.15 -75.75,319.79 -121.32,228.62 -12.82,224.93 -150.29,438.76 -17.99,27.99 -8.17,10.23 -26.33,46.16 -11.75,23.24 -17.86,40.64 -28.95,63.69 -3.09,6.4 -12.39,24.06 -15.47,30.56 -160.91,340.69 -98.44,71.75 -175.22,349.29 -40.83,147.62 -69.36,79.04 -157.94,163.7l-82.28 105.95c-37.17,30.89 -58.21,25.66 -110.74,54.17l-156.78 110.89c-62.39,82.96 -324.01,160.56 -441.18,180.57 -886.7,151.37 -669.88,-5.63 -1212.62,1.02z"/>
  <path class="fil4" d="M9877 9423.09c30.78,60.92 62.9,155.63 47.8,234.27 29.95,30.01 49.99,-4.18 59.05,212.9 11.87,284.65 -58.26,563.03 -52.8,683.74 -0.96,8.27 -7.68,66.39 -6.69,72.56 8.84,54.93 7.25,35.7 23.89,65.64l27.96 -30.39c68.9,-106.07 40.95,-219.15 136.91,-340.43 65.91,108.57 -47.07,305.36 -85,456.29 -29.81,118.63 -106.26,301.56 -208.61,369.72 -155.51,284.13 -565.07,634.89 -883.51,773.2 -443.36,192.56 -904.42,275.16 -1484.53,200.26 77.11,72.01 506.25,65.22 606.01,51.82 212.93,-28.62 357.23,-39.75 561.79,-97.75 374.33,-106.14 588.31,-201.29 874.58,-444.46 113.08,-96.05 238.02,-212.83 322.87,-336.65 230.27,-336 316.32,-469.85 394.33,-924.71 22.02,-128.35 66.78,-487.98 0.7,-616.14 11.31,225.86 0.99,352.16 -28.88,415.14 0.9,-344.39 -25.09,-452.02 -116.52,-753.92 -121.64,-17.22 -68.04,-9.56 -102.2,-64.38l-17.43 -91.6c2.39,35.68 27.62,106.57 41.47,141.45l-95.57 32.27c-2.04,-0.21 -11.95,-4.11 -15.62,-8.83z"/>
  <path class="fil5" d="M7169.85 8174.5c-35.63,1.01 -23.14,-6.6 -23.14,35.87 115.25,49.44 -109.35,54.94 351.89,-4.02 82.48,-10.55 87.32,-25.84 154.11,-25.17l337.25 11.53c55.24,3.92 114.62,41.35 165.87,58.05 85.15,27.75 117.96,13.71 205.52,32.42 60.86,13.01 89.19,41.19 170.06,62.99 29.82,8.05 149.14,26.39 176.24,38.13 61.59,26.67 15.27,42.6 154.56,81.04 118.29,32.66 246.6,91.02 310.93,153.31l120.74 163.44c74.82,86.25 -64.56,-53.44 24.34,24.28l300.26 258.18c0.6,-0.65 96.4,11.12 34.78,-90.21l-36.97 -102.53c-99.1,-80.3 -240.41,-316.72 -360.19,-340.48 -194.3,-28.58 -155.29,-203.13 -405.03,-250.6 -113.06,-21.49 -137.39,-68.61 -215.65,-110.23 -66.25,-35.23 -187.28,-59.21 -261.99,-72.42 -309.26,-54.7 -960.1,-59.33 -1203.58,76.42z"/>
  <path class="fil6" d="M7351.96 7877.97c207.34,41.89 496.79,-52.74 775.12,27.63 228.28,65.92 423.6,96.8 627.35,195.37 299.53,144.92 512.08,292.83 744.76,522.31 153.92,151.79 100.6,119.32 181.52,211.06 11.3,-8.91 -9.37,-2.79 -33.87,-18.44 2.6,84.58 12.9,44.57 -30.55,55.91l36.97 102.53c73.3,57.12 192.59,325.72 223.74,448.75 3.67,4.72 13.58,8.62 15.62,8.83l95.57 -32.27c-13.85,-34.88 -39.08,-105.77 -41.47,-141.45l17.43 91.6c34.16,54.82 -19.44,47.16 102.2,64.38 -32.43,-147.45 -225.46,-486.23 -320.88,-612.99 -24.44,-32.48 -51.17,-58.94 -75.83,-88.3 -26.33,-31.35 -9.59,-8.53 -32.72,-41.23l-41.87 -68.25c-25.68,-74.87 -309.82,-294.76 -387.09,-345.8 -314.84,-207.96 -655.05,-347.28 -1047.07,-409.5 -252.75,-40.12 -451.69,-3.47 -690.81,-14.3l-118.12 44.16z"/>
  <path class="fil7" d="M6038.21 11469.9l51.22 -9.06c-208.16,-227.93 -378.73,-437.99 -493,-794.18 -128.03,-399.07 -123.3,-724.81 -51.52,-1134.73 63.66,-571.97 479.05,-961.23 767.1,-1224.17l393.32 -240.97c159.87,-75.56 446.4,-211.85 646.63,-188.82l118.12 -44.16c-8.44,-5.03 -17.55,-11.24 -25.42,-14.97l-87.4 -28.85c-283.28,37.19 -507.74,122.13 -729.01,244.68 -496.97,275.24 -788.14,573.34 -1029.73,1113.73 -236.57,529.15 -224.05,1351.88 96.16,1890.28 77.47,130.25 231.17,363.83 343.53,431.22z"/>
  <path class="fil8" d="M6203.09 11849.43c75.86,-6.35 -7.48,22.73 30.26,-5.45l40.4 -41.66c-136.74,-20.14 -413.18,-336.43 -500.1,-442.19 -157.56,-191.72 -263.58,-389.04 -345.37,-643.91 -60.02,-187.01 -143.32,-591.18 -106.87,-831.78 26.23,-173.19 17.65,-286.51 56.58,-438.38l118.47 -399.61c-38.83,53.19 -61.93,-80.36 -31.76,93.99 -50.02,-51.37 -107.07,80.17 -26.11,-94.11 -79.77,63.15 -118.84,258.01 -145.09,362.36 -43.6,173.29 -41.91,240.47 -57.84,437.1 -47.83,590.04 105.24,1085.38 442.42,1539.25 82.77,111.43 141.49,162.28 236.36,258.27 56.1,56.77 70.74,71.88 136.86,122.47 170.73,130.66 102.03,82.42 151.79,83.65z"/>
  <path class="fil9" d="M5676.1 10445.1c52.23,158.35 137.58,371.22 213.58,491.4l222.91 296.22c64.88,83.9 -10.71,38.36 100.55,78.09 -52.07,-177.18 -133.31,-217.48 -170.96,-427.12 -117.85,-377.8 -139.03,-814.1 -125.6,-1248.23 -4.71,7.86 -7.89,17.82 -10.9,25.24 -2.83,7.01 -6.83,15.88 -10.01,23.93 -66.04,167.18 9.08,57.84 -35.92,73.04l-12.08 -4.71c-24.84,124.98 -49.08,211.1 -96.95,324.08 -53.34,125.88 -38.44,405.67 -63.01,349.16 -1.49,-3.44 -5.48,14.77 -11.61,18.9z"/>
  <path class="fil10" d="M5438.59 9046.33c-80.96,174.28 -23.91,42.74 26.11,94.11 -30.17,-174.35 -7.07,-40.8 31.76,-93.99 51.61,-16.51 11.25,6.66 72.24,-115.45 75.99,-152.17 347.28,-524.45 465.65,-618.71 463.66,-369.21 876.21,-616.59 1527.34,-679.22 0.7,-71.25 19.87,-19.87 -16.03,-61.27l-188.4 12.69c-367,8.92 -913.92,288.9 -1191.35,506.05 -204.27,159.89 -734.73,682.45 -727.32,955.79z"/>
  <path class="fil11" d="M10301.56 10553.7c-29.28,65.82 -50.99,168.21 -79.21,250.67 -115.25,336.76 -220.22,439.17 -415.23,691.83 -225.9,292.69 -543.46,430.78 -809.78,579.26 -5.67,3.16 -21.48,13.09 -25.85,15.94l-21.8 17.01 -14.29 59.02c142.04,17.69 444.19,-186.44 551.62,-261.15 153.48,-106.72 306.9,-257.75 432.09,-392.31 174.9,-187.96 530.57,-806.84 494.18,-1172.14l-9.37 -476.41c-30.23,92.72 -16.11,244.98 -27.24,359.61 -10.06,103.49 -12.06,248.43 -75.12,328.67z"/>
  <path class="fil12" d="M7357.26 7584.49l188.4 -12.69c35.9,41.4 16.73,-9.98 16.03,61.27 879.42,0 1161.41,85.95 1769.72,478.49 164.19,105.94 180.46,133.55 304.39,258.46 17.38,17.51 30.15,31.8 47.63,45.61 60.74,47.98 12.41,15.81 52.83,32.65l74.93 12.73 -14.4 -50.65c-90.47,-231.35 -762.21,-597.56 -978.85,-683.38 -413.94,-163.95 -1279.33,-250.35 -1460.68,-142.49z"/>
  <path class="fil13" d="M6203.09 11849.43c48.98,77.93 51.15,68.67 109.87,103.35 327.74,193.47 578.02,284.28 968.43,372.82 276.33,62.67 752.49,84.35 1052.37,29.12 114.9,-21.16 208.3,-51.73 318.99,-60.98l-94.22 -5.46c-39.52,-39.81 -41.31,50.21 -28.65,-62.1 -100.45,0 -204.72,31.15 -283.51,41.16 -365.42,46.39 -606.48,33.44 -966.34,-34.6 -284.51,-53.79 -852.04,-257.72 -1006.28,-430.42l-40.4 41.66c-37.74,28.18 45.6,-0.9 -30.26,5.45z"/>
  <path class="fil14" d="M7357.26 7789.99l87.4 28.85c7.87,3.73 16.98,9.94 25.42,14.97 239.12,10.83 438.06,-25.82 690.81,14.3 392.02,62.22 732.23,201.54 1047.07,409.5 77.27,51.04 361.41,270.93 387.09,345.8 74.03,-19.01 64.58,49.36 54.8,-51.72 -259.41,-293.21 -539.27,-487.66 -929.79,-632.61 -224.1,-83.18 -351.9,-110.68 -625.23,-152.07 -130.37,-19.74 -628.77,-22.71 -737.57,22.98z"/>
  <path class="fil4" d="M5668.51 9627.62l-36.79 100.81c-33.33,194.32 32.72,553.01 44.38,716.67 6.13,-4.13 10.12,-22.34 11.61,-18.9 24.57,56.51 9.67,-223.28 63.01,-349.16 47.87,-112.98 72.11,-199.1 96.95,-324.08l12.08 4.71c45,-15.2 -30.12,94.14 35.92,-73.04 3.18,-8.05 7.18,-16.92 10.01,-23.93 3.01,-7.42 6.19,-17.38 10.9,-25.24l45.72 -215.34 56.42 -165.1c-29.42,-36.56 -4.26,-50.05 -73.2,-42.76 -105.09,11.12 2.89,-16.24 -117.53,214.69 -43.4,83.26 -137.29,211.27 -148.35,276.16l-11.13 -75.49z"/>
  <path class="fil15" d="M6557 8295.18c91.42,56.91 25.52,-10.03 -102.46,114.46 -26.63,25.92 -61.41,8.14 -10.33,123l16.22 32.13 142.42 -69.1c40.31,37.45 14.97,-8.38 22.58,60.77l108.43 -37.89c27.78,-36.17 10.94,-17.59 28.88,-43.18l34.07 -46.44c72.96,-79.08 219.05,-204.49 349.9,-218.56 0,-42.47 -12.49,-34.86 23.14,-35.87l26.27 -116.03c-163.51,20.92 -543.26,119.57 -639.12,236.71z"/>
  <path class="fil16" d="M5853.95 9020.6l-57.13 49.22c-48,173.81 -167.96,364.19 -128.31,557.8l11.13 75.49c11.06,-64.89 104.95,-192.9 148.35,-276.16 120.42,-230.93 12.44,-203.57 117.53,-214.69 68.94,-7.29 43.78,6.2 73.2,42.76 56.72,-123.22 137.6,-224.14 182.96,-341.92 -20.92,-34.01 4.78,-44.39 -22.15,-89.1 -51.61,11.82 -86.17,20.73 -132.16,35.05 -133.29,41.54 -99.74,261.15 -193.42,161.55z"/>
  <path class="fil17" d="M5853.95 9020.6c93.68,99.6 60.13,-120.01 193.42,-161.55 45.99,-14.32 80.55,-23.23 132.16,-35.05 26.93,44.71 1.23,55.09 22.15,89.1 25.91,-14.13 173.83,-137.02 210.58,-179.4l-78.76 2.66c57.18,-97.37 52.33,-99.3 126.93,-171.59l-16.22 -32.13c-51.08,-114.86 -16.3,-97.08 10.33,-123 127.98,-124.49 193.88,-57.55 102.46,-114.46 -210.26,61.82 -359.73,277.36 -407.77,319.38 -95.67,83.66 -269.24,287.96 -295.28,406.04z"/>
  <path class="fil18" d="M9595.05 8603.41l41.87 68.25c23.13,32.7 6.39,9.88 32.72,41.23 24.66,29.36 51.39,55.82 75.83,88.3 95.42,126.76 288.45,465.54 320.88,612.99 91.43,301.9 117.42,409.53 116.52,753.92 29.87,-62.98 40.19,-189.28 28.88,-415.14 -18,-247.43 -110.36,-494.96 -200.46,-675.45 -91.9,-184.06 -220.14,-405.27 -361.44,-525.82 9.78,101.08 19.23,32.71 -54.8,51.72z"/>
  <path class="fil19" d="M9931.05 10554l-113.06 319.06c-39.23,121.67 -101.28,188.89 -126.7,293.4 89.41,-10.89 73.93,-14.66 113.22,-73.34l15 54.27c102.35,-68.16 178.8,-251.09 208.61,-369.72 37.93,-150.93 150.91,-347.72 85,-456.29 -95.96,121.28 -68.01,234.36 -136.91,340.43l-27.96 30.39c-16.64,-29.94 -15.05,-10.71 -23.89,-65.64 -0.99,-6.17 5.73,-64.29 6.69,-72.56z"/>
  <path class="fil20" d="M10283.76 9446.76c-7.09,94.88 108.29,457.41 59.05,818.53 -10.2,74.82 -35.99,198.64 -41.25,288.41 63.06,-80.24 65.06,-225.18 75.12,-328.67 11.13,-114.63 -2.99,-266.89 27.24,-359.61l9.37 476.41c29.56,-37.08 30.67,-42.26 31.55,-139.77 0.56,-62.33 -1.86,-127.22 -1.57,-190.38 1.16,-254.78 -78.41,-735.73 -212.37,-925.81 -31.35,40.6 -38.59,-53.13 -15.89,91.38 0.01,0.08 31.61,88.27 31.92,89.17 22.46,65.6 28.58,107.59 36.83,180.34z"/>
  <path class="fil7" d="M9736.26 8448.28c61.39,114.89 100.1,129.51 165.31,220.75 170.78,238.94 248.82,425.45 342.21,693.87l39.98 83.86c-8.25,-72.75 -14.37,-114.74 -36.83,-180.34 -0.31,-0.9 -31.91,-89.09 -31.92,-89.17 -22.7,-144.51 -15.46,-50.78 15.89,-91.38 -39.23,-142.45 -282.46,-596.08 -434.11,-675.51l14.4 50.65 -74.93 -12.73z"/>
  <path class="fil6" d="M7442.35 12131.96c-6.21,-4.28 -14.44,-8.66 -19.6,-11.27l-177.68 -64.91c-56.95,-25.91 -12.26,3.03 -47.46,-30.55 -141.57,10.15 -483.57,-161.32 -610.75,-231.38 -91.7,-50.5 -176.65,-104.55 -260.84,-163.1 -88.18,-61.33 -142.49,-126.61 -236.59,-169.91l-51.22 9.06c39.22,62.66 59.05,77.7 117.31,120.8 50.16,37.13 93.21,69.4 148.26,110.82 111.25,83.71 197.77,133.43 322.96,195.23l815.61 235.21z"/>
  <path class="fil20" d="M8529.88 12226.18c-12.66,112.31 -10.87,22.29 28.65,62.1l94.22 5.46c68.32,-30.63 80.95,-36.75 150.38,-58.64 40.89,-12.89 33.67,-4.61 71.18,-22.41 51.94,-24.62 29.53,-13.06 61.09,-45.26l14.29 -59.02c-97.47,6.46 -132.5,27.28 -217.36,56.03 -70.93,24.04 -145.13,37.28 -202.45,61.74z"/>
  <path class="fil21" d="M6460.43 8564.77c-74.6,72.29 -69.75,74.22 -126.93,171.59l78.76 -2.66c152.14,-46.7 116.61,-69.52 213.17,-177.26 -7.61,-69.15 17.73,-23.32 -22.58,-60.77l-142.42 69.1z"/>
  <path class="fil18" d="M9256.1 8531.33c119.78,23.76 261.09,260.18 360.19,340.48 43.45,-11.34 33.15,28.67 30.55,-55.91l-188.83 -199.07c-22.75,-23.38 -194.31,-131.97 -231.95,-148.82 40.89,41.19 7.64,-2.27 30.04,63.32z"/>
  <path class="fil22" d="M9243.75 8885.07c-35.87,-93.93 -100.57,-150.33 -224.1,-155.53 21.35,123.71 97.53,131.74 224.1,155.53z"/>
  <path class="fil23" d="M6733.86 8518.55c10.92,15.14 -66.23,32.3 34.46,25.24 153.59,-10.75 24.95,10.32 79.87,-39.21 -19.67,-58.33 -6.93,-41.96 -51.38,-75.65l-34.07 46.44c-17.94,25.59 -1.1,7.01 -28.88,43.18z"/>
 </g>
</svg>
