<?xml version="1.0" encoding="UTF-8"?>
<!DOCTYPE svg PUBLIC "-//W3C//DTD SVG 1.1//EN" "http://www.w3.org/Graphics/SVG/1.1/DTD/svg11.dtd">
<!-- Creator: CorelDRAW 2026 (Evaluation Version) -->
<svg xmlns="http://www.w3.org/2000/svg" xml:space="preserve" width="210mm" height="297mm" version="1.1" style="shape-rendering:geometricPrecision; text-rendering:geometricPrecision; image-rendering:optimizeQuality; fill-rule:evenodd; clip-rule:evenodd"
viewBox="0 0 21000 29700"
 xmlns:xlink="http://www.w3.org/1999/xlink"
 xmlns:xodm="http://www.corel.com/coreldraw/odm/2003">
 <defs>
  <style type="text/css">
   <![CDATA[
    .fil12 {fill:#043867}
    .fil1 {fill:#04CBFD}
    .fil0 {fill:#061946}
    .fil8 {fill:#0971AE}
    .fil10 {fill:#098ECF}
    .fil4 {fill:#0991F3}
    .fil23 {fill:#0B52AE}
    .fil7 {fill:#0C4F8B}
    .fil6 {fill:#0EB4F2}
    .fil3 {fill:#10196B}
    .fil22 {fill:#10328C}
    .fil11 {fill:#1569DC}
    .fil13 {fill:#2925A1}
    .fil21 {fill:#2CB0EC}
    .fil19 {fill:#322ECB}
    .fil24 {fill:#5A99E6}
    .fil14 {fill:#5B27DC}
    .fil15 {fill:#6167E8}
    .fil9 {fill:#8F6FF5}
    .fil18 {fill:#9E35E7}
    .fil16 {fill:#B16CF4}
    .fil17 {fill:#D16BF2}
    .fil5 {fill:#D355F4}
    .fil20 {fill:#F16CF5}
    .fil2 {fill:#F253F1}
   ]]>
  </style>
 </defs>
 <g id="Layer_x0020_1">
  <metadata id="CorelCorpID_0Corel-Layer"/>
  <path class="fil0" d="M8090.26 13847.51l14.63 161.32 28.28 30c60.81,83.1 56.82,131.06 127.02,240.17 72.86,113.25 121.17,92.07 271.73,189.75l69.2 40.21c40.5,14.2 101.95,5.9 153.5,-7.96 3.34,-0.89 78.74,1.02 103.9,-87.6 34.83,-122.72 -146.62,-559.94 203.4,-1167.18l98.51 -207.73c57,-79.46 -4.51,-28.41 69.72,-59.03 -43.41,-190.54 -66.42,-78.86 40.31,-285.38l103.41 -337.01c-195.51,-17.26 -192.58,-47.43 -414.59,191.8l-323.02 312.46c-120.84,109.95 -180.2,241.36 -285.06,374.22 -171.93,217.83 -99.74,252.79 -199.19,435.08 -28.67,-45.46 -12.99,-91.67 -17.2,-158.25l-6.35 -30.48c-45.52,98.2 -47.18,232.79 -38.2,365.61z"/>
  <path class="fil1" d="M10201.25 12287.21c-31.26,350.28 -196.4,655.65 -418.41,896.87 -222.83,242.12 -476.96,395.55 -500.65,842.27 -18.44,347.94 100.58,471.84 212.42,683.19 -550.08,291.07 -1205.28,468.47 -1725.23,5.76 -311.98,-277.63 -527.85,-691.28 -579.28,-1116.63 -57.07,-471.99 8.68,-282.35 -7.71,-537.94l-25.21 -174.03c-18.93,208.03 -56.9,187.05 -117.33,287.79 -2.2,3.67 -7.66,20.8 -9.22,17.06 -1.6,-3.83 -5.63,12 -9.23,17.54 0,712.59 242.46,1350.24 809.9,1726.94 438.62,291.17 1003.55,257.54 1514.7,1.77 81.67,-40.86 122.67,-73.77 195.68,-110.53 93.93,-47.3 154.65,-41.43 164.92,-164.83 -225.03,-60.1 -539.34,-679.91 -41.42,-1172.04 146.35,-144.66 300.96,-284.98 421.98,-449.53 77.19,-104.96 264.14,-460.74 215.29,-639.66 29.76,-160.88 26.39,-257.68 -1.91,-419.67l-14.96 149.68c-0.98,4.12 -5.7,19.88 -6.49,16.77 -0.77,-2.99 -4.22,10.81 -7.18,15.76 -31.1,-41.68 -5.5,13.91 -22.2,-51.64l-14.49 -123.02c1.2,88.01 6.84,228.57 -33.97,298.12z"/>
  <path class="fil2" d="M7712.96 11741.68c18.98,65.68 29.55,63.91 36.84,142.39l72.45 -35.67 275.39 -396.62c168.15,-335.39 189.41,-759.75 -39.2,-1076.9 -46.76,-64.86 -101.82,-134.62 -169.82,-183.49 -104.09,-74.78 -156.98,-30.84 -160.59,-192.73 440.86,-233.27 1115.62,127.58 1201.28,132.95 78.79,7.12 75.31,-1.88 134.75,-21.6l-20.88 -44.38c-2.23,-3.94 -8.12,-13.33 -12.39,-19.86 -52.3,-91.26 -402.99,-210.54 -498.62,-238.83 -194.1,-57.43 -424.09,-67.38 -686.36,-67.38 -152.58,-227.85 0.47,-155.1 47.1,-329.76 -149.48,34.82 -237.64,61.4 -336.7,157.94 -64.67,63.04 -181.42,211.51 -219.36,298.83 -303.22,697.78 466.04,442.15 664.95,753.39 68.74,107.57 87.15,285.1 59.09,417.56 -96.19,454.1 -213.83,473.68 -347.93,704.16z"/>
  <path class="fil3" d="M9164.79 11967.33l-51.67 123.31c-66.14,74.76 -82.56,135.36 -130.32,176.27 -16.49,14.13 -63.2,39.92 -85.39,55.17l-395.47 319.19 -67.52 91.5c-141.19,136.67 -51.34,10.1 -184.15,234.78 -55.08,93.17 -187.37,274.63 -198.8,341.88 -26.88,217.35 -22.77,112.84 3.83,185.45 66.17,180.54 -21.37,226.47 34.96,352.63 -8.98,-132.82 -7.32,-267.41 38.2,-365.61l6.35 30.48c4.21,66.58 -11.47,112.79 17.2,158.25 99.45,-182.29 27.26,-217.25 199.19,-435.08 104.86,-132.86 164.22,-264.27 285.06,-374.22l323.02 -312.46c222.01,-239.23 219.08,-209.06 414.59,-191.8l-103.41 337.01c-106.73,206.52 -83.72,94.84 -40.31,285.38 107.11,-12.19 32.84,-11.89 99.7,-65.02 198.97,-462.96 162.14,-859.22 243.16,-927.46 -9.06,-32.2 -26.75,-103.25 -39.63,-123.36l-48.37 -43.88c-112.77,-70.16 -92.59,-9.08 -193.13,-37.71 -17.48,67.99 -7.96,64.08 -43.26,114.84 -17.9,25.74 -16.32,19.67 -35.52,36.7 -23.98,21.27 -14.95,11.77 -48.31,33.76z"/>
  <path class="fil4" d="M9794.17 11772.2c-13.92,106.47 54.29,684.5 -159.15,856.28l0.11 16.9c0.52,83.29 -19.83,42.86 29.21,80.38 51.67,-63.23 172.01,-303.75 140.64,-377.72 22.01,92.92 -13.58,28.83 -13.49,145.75 0.17,215.32 109.15,125.22 -81.85,434.46 -317.77,514.48 -169.07,172.51 -382.41,486.33 -259.25,381.35 -275.45,498.69 -224.88,1001.17 83.15,55.09 65.89,83.6 107.87,171.6 52.12,109.24 49.77,43.09 -22.03,145.75 55.99,-29.47 96.21,-54.62 165.1,-70.66 -19.65,-73.58 -46.61,-84.13 -82.59,-152.96 -229.25,-438.54 -86.17,-879.62 241.1,-1219.57 225.25,-233.96 275.5,-272.09 417.06,-525.12 91.12,-162.85 193.78,-555.33 131.06,-779.29 -82.95,-59.88 -59.36,-209.59 -117.77,-357.56l-27.65 135.26c-0.99,47.24 -0.22,95.38 0.28,143.42 3.48,334 14.79,232.96 -43.29,265.88 -75.05,-114.83 20.35,-257.71 -77.32,-400.3z"/>
  <path class="fil5" d="M8677.55 11247.04l4.38 314.31c44.37,-30.77 52.42,-32.56 83.28,-111.47 16.09,-41.16 30.56,-97.42 41.31,-124.53 71.46,-180.09 94.84,9.95 99.11,-243.3 -45.03,79.85 47.6,138.42 50.16,141.32l38.04 -100.39c13.96,-33.42 10.12,-50.64 22.37,-83.79 43.38,189.55 86.21,448.17 10.64,629.1l-29.98 120.61c52.17,-48.08 145.34,-267.74 156.14,-375.18 21.44,-213.25 -21.41,-328.04 -25.83,-519.99 22.78,-9.93 -15.88,-10.94 56.17,43.29 12.98,-130.19 -26.75,-39.18 52.18,-74.13 -33.42,-36.12 -33.69,-29 -74.69,-58.83l-79.9 -61.93c-3.74,-3.14 -8.98,-7.71 -12.69,-10.88 -132.37,-113.11 -418.96,-388.89 -586.47,-402.83 3.56,159.57 309.18,494.34 195.78,918.62z"/>
  <path class="fil6" d="M7351.16 13332.51c0,402.73 65.26,673.27 212.66,928.83 132.32,229.46 354.05,436.6 611.75,565.86 143.74,-22.35 35.59,1.18 78.04,-52.39 -241.6,-117.15 -447.59,-414.75 -514.39,-647.93 -12.24,-89.78 -27.91,-117.65 -57.22,-176.98 -43.23,-87.53 -63.57,-144.49 -1.08,-218.62 -49.64,-158.81 -94.22,-302.34 -94.22,-513.89 -3.17,-9.6 -9.31,-50.54 -16.45,-64.08 -35.05,-66.46 11.22,-27.88 -54.21,-56.13 -98.44,54.67 -43.02,57.64 -80.92,144.65 -34.46,79.09 -14.5,6.69 -83.96,90.68z"/>
  <path class="fil7" d="M9230.15 12979.46c4.67,196.86 -228.84,473.13 -266.79,651.54 -138.2,649.5 165.56,1030.15 -316.06,984.92 -163.16,-15.32 -266.57,-139.75 -352.12,-215.46 -104.95,-92.87 -172.83,-226.56 -190.29,-391.63l-14.63 -161.32c-56.33,-126.16 31.21,-172.09 -34.96,-352.63 -26.6,-72.61 -30.71,31.9 -3.83,-185.45l-49.98 0c-71.28,207.19 -77.98,325.97 -62.33,576.92 43.32,694.88 1077.71,1079.89 1057.61,614.91 -15.86,-366.68 -69.38,-342.56 34.19,-790.7 35.59,-153.96 -19.74,-91.39 85.19,-110.77 11.8,-100.27 60.94,-122.49 82.55,-203.22 -20.42,-196.38 31.42,-117.15 84.86,-259.07 30.56,-81.17 52.47,-142.02 81.76,-224.26l-35.47 1.2c-66.86,53.13 7.41,52.83 -99.7,65.02z"/>
  <path class="fil8" d="M7946.89 13235.43c-22.2,121.59 -9.26,45.65 -54.71,70.96l-33.44 534.71 -91.77 -52.06c-49.53,152.44 92.57,328.19 144.46,447.97 80.23,185.17 134.77,257.42 287.69,341.32 41.25,-66.8 -14.22,-93.13 -23.86,-102.28 45.52,37.99 58.91,65.33 101.78,107.25 56.94,55.67 58.48,49.16 126.35,90.78 110.51,67.77 130.84,119.8 314.87,116.6 477.36,-8.28 343.37,-179.57 329.48,-470.05 -85.94,-234.67 53.83,-534.92 68.41,-720.84 -104.93,19.38 -49.6,-43.19 -85.19,110.77 -103.57,448.14 -50.05,424.02 -34.19,790.7 20.1,464.98 -1014.29,79.97 -1057.61,-614.91 -15.65,-250.95 -8.95,-369.73 62.33,-576.92l43.83 -178.15 -98.43 104.15z"/>
  <path class="fil9" d="M9565.28 11129.27c-57.56,-15.26 -31.85,10.45 -47.11,-47.1 66.79,35.34 8.06,-48.2 47.11,47.1zm-70.67 -94.22zm0 0zm0 0l-23.55 -23.55 23.55 23.55zm-47.1 -23.55c-28.22,85.09 -27.45,50.1 -47.12,-23.55l47.12 23.55zm23.55 0l-23.55 0 23.55 0zm-117.77 -70.66zm0 0zm0 0l-23.56 -23.56 23.56 23.56zm-23.56 -23.56zm0 -70.66l0 70.66zm0 -70.66zm0 0zm0 0c-51.35,4.37 -66.02,7.46 -94.21,16.27 -78.93,34.95 -39.2,-56.06 -52.18,74.13 -72.05,-54.23 -33.39,-53.22 -56.17,-43.29 4.42,191.95 47.27,306.74 25.83,519.99 -10.8,107.44 -103.97,327.1 -156.14,375.18l-49.02 70.9c-26.85,91 -119.69,216.11 -170.46,302.45l109.06 -16.76c54.21,-19.96 60.6,-33.81 94.57,-71.25 55.52,-61.22 40.23,-9.18 53.39,-97.39 162.38,-281.13 163.41,-532.57 126.28,-894.68 3.31,-1.73 8.89,-3.71 10.3,-4.41l64.54 -38.84c42.37,65.13 9.31,25.23 68.1,55.88l5.07 -84.28c75.18,31.38 155.65,92.28 210.76,158.62l22.27 9.65 23.56 -25.96 0 -23.56 23.55 23.56c35.76,41.14 31.97,29.21 47.11,94.21l23.56 5.18c137.41,88.49 64.63,2.34 188.43,43.89 -27.13,-121.08 -263.84,-429.49 -347.21,-496.6l-27.94 28.75c-3.69,3.26 -11.98,9.76 -15.39,12.65 -3.41,2.91 -13.88,15.78 -16.52,11.25 -2.64,-4.53 -11.33,7.03 -16.92,10.67 -110.51,-33.37 -42,-43.93 -141.33,-47.68l47.11 31.47z"/>
  <path class="fil10" d="M7739.22 14126.88c68.15,56.44 81.81,128.47 133.99,222.27 42.96,77.25 97.18,124.6 156.68,197.98l341.56 303.74c231.63,102.49 678.48,-51.08 816.74,-117.77 71.8,-102.66 74.15,-36.51 22.03,-145.75 -41.98,-88 -24.72,-116.51 -107.87,-171.6 24.17,-110.81 13.8,-13.91 -10.55,-54.58 -43.31,-72.35 21.33,8.75 -44.06,-40.54 13.89,290.48 147.88,461.77 -329.48,470.05 -184.03,3.2 -204.36,-48.83 -314.87,-116.6 -67.87,-41.62 -69.41,-35.11 -126.35,-90.78 -42.87,-41.92 -56.26,-69.26 -101.78,-107.25 9.64,9.15 65.11,35.48 23.86,102.28 -152.92,-83.9 -207.46,-156.15 -287.69,-341.32 -51.89,-119.78 -193.99,-295.53 -144.46,-447.97 -99.9,-24.29 -24.54,37.45 -86.05,-57.76 -62.49,74.13 -42.15,131.09 1.08,218.62 29.31,59.33 44.98,87.2 57.22,176.98z"/>
  <path class="fil2" d="M8002.3 11906.57c-44.48,104.6 -54.46,39.69 -56.99,157.76 13.02,-11.5 47.73,-37.22 57.56,-47.15 69.17,-69.87 16.89,-25.67 58.44,-82.05 77.54,-105.18 53.59,-8.46 133.92,-127.48 67.95,-100.67 128.52,-226.76 192.33,-324.75 94.71,-137.49 114.72,-515.48 61.7,-721.54 -42.21,-164.01 -129.95,-511.28 -320.8,-527.15 376.22,561.83 252.93,1049.99 -81.6,1568.34l-44.56 104.02z"/>
  <path class="fil11" d="M9635.13 12645.38l-116.39 105.86 5.91 21.14 -13.43 92.47 127.14 -87.5c-53.33,145.87 -133.55,193.73 -215.18,305.22 -94.84,129.51 -121.32,221.12 -147.52,253.1l-76.96 60.9c-21.61,80.73 -70.75,102.95 -82.55,203.22 -14.58,185.92 -154.35,486.17 -68.41,720.84 65.39,49.29 0.75,-31.81 44.06,40.54 24.35,40.67 34.72,-56.23 10.55,54.58 -50.57,-502.48 -34.37,-619.82 224.88,-1001.17 213.34,-313.82 64.64,28.15 382.41,-486.33 191,-309.24 82.02,-219.14 81.85,-434.46 -0.09,-116.92 35.5,-52.83 13.49,-145.75 31.37,73.97 -88.97,314.49 -140.64,377.72 -49.04,-37.52 -28.69,2.91 -29.21,-80.38z"/>
  <path class="fil12" d="M8104.89 14008.83c17.46,165.07 85.34,298.76 190.29,391.63 85.55,75.71 188.96,200.14 352.12,215.46 481.62,45.23 177.86,-335.42 316.06,-984.92 37.95,-178.41 271.46,-454.68 266.79,-651.54 -74.23,30.62 -12.72,-20.43 -69.72,59.03l-98.51 207.73c-350.02,607.24 -168.57,1044.46 -203.4,1167.18 -25.16,88.62 -100.56,86.71 -103.9,87.6 -51.55,13.86 -113,22.16 -153.5,7.96l-69.2 -40.21c-150.56,-97.68 -198.87,-76.5 -271.73,-189.75 -70.2,-109.11 -66.21,-157.07 -127.02,-240.17l-28.28 -30z"/>
  <path class="fil13" d="M8886.44 12145.49c-30.62,45.82 -38.07,47.52 -73.43,112.46l-93.69 -10.43c-84.08,49 -22.84,38.71 -122.63,81.96 -171.27,74.22 -158.72,53.24 -282.48,260.92l-31.9 51.88c-2.45,7.45 -12.39,40.45 -11.7,45.84 6.15,48.32 1.96,21.62 19.15,50.64 14.36,15.17 42.48,16.4 56.99,24.19 26.31,-88.14 23.83,-49.44 74.87,-114.81l80.32 -6.87 395.47 -319.19c22.19,-15.25 68.9,-41.04 85.39,-55.17 47.76,-40.91 64.18,-101.51 130.32,-176.27 -7.11,-6.75 -13.61,-15.09 -19.15,-22.32 -5.18,-6.76 -11.84,-13.41 -17.55,-21.16l-34.22 -54.84c-1.75,-8.52 -4.27,-10.9 -7.8,-15.47 -13.16,88.21 2.13,36.17 -53.39,97.39 -33.97,37.44 -40.36,51.29 -94.57,71.25z"/>
  <path class="fil11" d="M9494.42 11373.49c44.15,97.74 102.3,180.92 102.58,336.81 20.48,143.23 12.02,275.42 69.5,298.07 67.89,26.74 4.45,5.21 54.2,-5.23 1.13,-0.24 6.12,-3.28 9.13,-2.35 22.14,424.42 -51.99,382.25 -94.81,627.69 213.44,-171.78 145.23,-749.81 159.15,-856.28l-29.28 -151.65c-58.12,-86.37 -97.13,-198.39 -153.07,-273.92 -92.45,-24.92 -53.35,-18.28 -113.8,-70.44l-3.6 97.3z"/>
  <path class="fil14" d="M8691.41 11844.79c-82.12,168.24 -287.02,304.71 -356.63,444.74 -27.87,90.95 -30.83,56.44 -69.42,133.85 -29.32,58.79 -44.92,98.25 -54.98,173.42 135.91,-159.24 257.55,-295.09 352.68,-447.67 55.33,-88.73 65.44,-107.58 126.16,-129.25l62.7 -32.59c191.83,-197.47 98.5,29.03 191.26,-169.14l4.66 41.65 49.02 -70.9 29.98 -120.61c-41.19,-110.75 56.83,73.83 -17.1,-25.98 -51.77,-69.91 -23.96,-54.01 -57.19,-160.72 -106.05,127.32 -18.81,183.03 -261.14,363.2z"/>
  <path class="fil14" d="M9034.4 11976.85c3.53,4.57 6.05,6.95 7.8,15.47l34.22 54.84c5.71,7.75 12.37,14.4 17.55,21.16 5.54,7.23 12.04,15.57 19.15,22.32l51.67 -123.31 141.39 -620.75c102.66,-50.13 119.87,26.68 177.07,125.85 50.27,87.2 106.59,118.87 107.76,237.87l5.99 0c-0.28,-155.89 -58.43,-239.07 -102.58,-336.81l-190.8 -278.69c-58.79,-30.65 -25.73,9.25 -68.1,-55.88l-64.54 38.84c-1.41,0.7 -6.99,2.68 -10.3,4.41 37.13,362.11 36.1,613.55 -126.28,894.68z"/>
  <path class="fil15" d="M7963.58 12522.73c-35.53,100.65 -75.87,168.8 -117.77,262.73 23.88,36.12 -0.16,52.58 41.73,116.12l36.4 38.92c2.81,3.58 8.14,8.6 10.57,12.09 7.49,10.8 17.86,45.68 19.59,51.6 27.52,-94.37 -9.69,-31.18 67.67,-69.21 24.93,-69.36 37.9,-73 80.99,-135.16 25.01,-36.08 25.53,-38.14 44.68,-73.91 23.02,-42.99 2.25,-20.1 34.94,-65.06 16.25,-62.89 -4.17,-32.45 28,-64.05 10.06,-75.17 25.66,-114.63 54.98,-173.42 38.59,-77.41 41.55,-42.9 69.42,-133.85 -60.13,35.92 -47.2,33.95 -100.24,78.06 -96.45,80.23 -100.63,-46.79 -207.61,166.96l-63.35 -11.82z"/>
  <path class="fil16" d="M8677.55 11247.04c-40.97,207.31 -67.57,262.22 -148.66,423.99 -61.58,122.83 -129.85,277.47 -231.64,376.86 20.21,117.16 -5.47,22.2 54.19,61.67l36.74 -90.47c0.63,2.95 115.77,28.82 2.41,79.2 58.96,-61.33 110.23,-139.24 179,-185.6 30.59,-85.05 81.52,-93.62 112.14,-156.98 15.88,-32.86 11.75,-64.6 37.59,-105.95 30.19,-48.3 -3.41,4.1 34.25,-36.88 59.95,-65.26 63.92,-97.15 102.21,-226.13 50.34,-169.5 61.84,-30.22 100.01,-163.38 -2.56,-2.9 -95.19,-61.47 -50.16,-141.32 -4.27,253.25 -27.65,63.21 -99.11,243.3 -10.75,27.11 -25.22,83.37 -41.31,124.53 -30.86,78.91 -38.91,80.7 -83.28,111.47l-4.38 -314.31z"/>
  <path class="fil17" d="M8002.3 11906.57c-87.94,41.55 -58.71,29.96 -117.12,110.59 -38.73,53.45 -56.85,83.77 -96.47,138.52 -59.87,82.77 -166.16,192.28 -167.78,292.64l-27.85 64.65c36.4,47.99 -25.21,28.55 47.05,27.59 50.25,-142.77 69.25,-132.13 118.66,-178.75 52.81,-49.84 97.07,-110.26 137.43,-148.62 217.77,-207.01 140.19,-143.11 279.35,-214.86 67.25,-44.56 93.84,-130.96 126.8,-224.05 36.07,-101.84 75.56,-176.35 85.19,-291.38 -63.81,97.99 -124.38,224.08 -192.33,324.75 -80.33,119.02 -56.38,22.3 -133.92,127.48 -41.55,56.38 10.73,12.18 -58.44,82.05 -9.83,9.93 -44.54,35.65 -57.56,47.15 2.53,-118.07 12.51,-53.16 56.99,-157.76z"/>
  <path class="fil18" d="M8955.79 11223.37c-38.17,133.16 -49.67,-6.12 -100.01,163.38 -38.29,128.98 -42.26,160.87 -102.21,226.13 -37.66,40.98 -4.06,-11.42 -34.25,36.88 -25.84,41.35 -21.71,73.09 -37.59,105.95 -30.62,63.36 -81.55,71.93 -112.14,156.98 84.17,-34.11 51.77,-39.14 121.82,-67.9 242.33,-180.17 155.09,-235.88 261.14,-363.2 33.23,106.71 5.42,90.81 57.19,160.72 73.93,99.81 -24.09,-84.77 17.1,25.98 75.57,-180.93 32.74,-439.55 -10.64,-629.1 -12.25,33.15 -8.41,50.37 -22.37,83.79l-38.04 100.39z"/>
  <path class="fil9" d="M9588.83 10663.11c39.42,50.88 70.69,81.35 114.45,139.59 46.69,62.11 70.98,100.79 116.66,169.23 85.14,127.56 118.02,209.27 185.76,345.77l83.69 -76.71c34.67,66.15 39.92,135.9 111.86,164.09 -15.9,-58.74 -56.97,-153.12 -85.96,-213.41 -53.5,-111.28 -266.65,-493.13 -366.74,-557.04 -36.44,42.82 16.64,17.05 -66.37,32.12 -14.69,2.66 -74.54,-2.35 -93.35,-3.64z"/>
  <path class="fil19" d="M8210.38 12596.8c-32.17,31.6 -11.75,1.16 -28,64.05 6.21,146.79 -7.96,33.19 49.24,78.23 18.54,-33.21 37.55,-60.42 50.69,-96.8l31.9 -51.88c123.76,-207.68 111.21,-186.7 282.48,-260.92 99.79,-43.25 38.55,-32.96 122.63,-81.96l-10.83 -42.46 68.89 -42.81c50.77,-86.34 143.61,-211.45 170.46,-302.45l-4.66 -41.65c-92.76,198.17 0.57,-28.33 -191.26,169.14l-62.7 32.59c-60.72,21.67 -70.83,40.52 -126.16,129.25 -95.13,152.58 -216.77,288.43 -352.68,447.67z"/>
  <path class="fil13" d="M9164.79 11967.33c33.36,-21.99 24.33,-12.49 48.31,-33.76 19.2,-17.03 17.62,-10.96 35.52,-36.7 35.3,-50.76 25.78,-46.85 43.26,-114.84l40.63 -157.47c15.14,-3 -37.92,41.49 39.01,-9.84 29.4,-19.61 40.38,-43.22 52.43,-63.47 24.28,63.61 38.87,19.08 84.62,102.07 41.7,75.64 10.53,99.87 81.84,153.7l0.6 -96.72c-1.17,-119 -57.49,-150.67 -107.76,-237.87 -57.2,-99.17 -74.41,-175.98 -177.07,-125.85l-141.39 620.75z"/>
  <path class="fil20" d="M7374.6 12236.33c-5.43,51.98 2.63,45.59 4.21,51.01 1.57,5.42 16.86,36.42 20.73,48.46 60.21,-66.75 9.82,-9.46 69.39,-44.4 51.41,-12.36 50.94,-28.74 91.52,-80.43 35.65,-45.4 57.59,-70.97 93.68,-119.21 63.17,-84.42 119.68,-149.01 168.12,-243.36l-72.45 35.67c-7.29,-78.48 -17.86,-76.71 -36.84,-142.39l-320.67 418.88c-47.58,96.09 -21.51,13.68 -17.69,75.77z"/>
  <path class="fil4" d="M7766.97 13789.04l91.77 52.06 33.44 -534.71 -52.33 -23.52 -0.51 -190.5 -87.75 2.78c-2.15,116.85 -25.47,192.73 -24.52,343.11 0.61,96.65 16.54,261.51 39.9,350.78z"/>
  <path class="fil21" d="M10119.33 11529.69c-16.16,87.38 44.88,236.56 72.82,389.71 1.3,7.12 2.78,12.66 3.9,19.85 1.14,7.23 2.37,12.72 3.26,20.09l1.94 327.87c40.81,-69.55 35.17,-210.11 33.97,-298.12l14.49 123.02c16.7,65.55 -8.9,9.96 22.2,51.64 2.96,-4.95 6.41,-18.75 7.18,-15.76 0.79,3.11 5.51,-12.65 6.49,-16.77l14.96 -149.68c28.3,161.99 31.67,258.79 1.91,419.67 46.76,-22.93 44.66,44.3 40.59,-211.72 -1.19,-74.84 4.38,-162.73 -1.17,-235.39 -7.91,-103.68 -51.23,-324.48 -93.52,-390.62l-66.13 39.2c-30.07,-31.56 -8.89,4.99 -44.27,-59.65 -18.28,-33.38 -7.28,-18.45 -18.19,-50.29l-0.43 36.95z"/>
  <path class="fil22" d="M9329.85 12914.44l35.47 -1.2c32.56,-32.28 37.31,-42.65 70.31,-73.15 0.77,-0.71 39.44,-33.3 39.57,-33.4 41.89,-32.16 8.62,-7.55 49.45,-34.31l-5.91 -21.14c64.82,-184.56 49.47,-182.27 80.28,-385.43 28.22,-186.04 -10.37,-165.35 -17.46,-191.72 -26.96,-100.05 7.84,-91.73 -8.55,-187.11 -81.02,68.24 -44.19,464.5 -243.16,927.46z"/>
  <path class="fil9" d="M8569.59 11912.69c-68.77,46.36 -120.04,124.27 -179,185.6 113.36,-50.38 -1.78,-76.25 -2.41,-79.2l-36.74 90.47c-59.66,-39.47 -33.98,55.49 -54.19,-61.67 -16.27,61.57 -114.58,188.29 -158.44,245.9 -40.28,52.92 -60.18,68.31 -94.32,118.4 -40.9,60.03 -23.65,71.63 -80.91,110.54l63.35 11.82c106.98,-213.75 111.16,-86.73 207.61,-166.96 53.04,-44.11 40.11,-42.14 100.24,-78.06 69.61,-140.03 274.51,-276.5 356.63,-444.74 -70.05,28.76 -37.65,33.79 -121.82,67.9z"/>
  <path class="fil9" d="M7640.13 12540.56c-72.26,0.96 -10.65,20.4 -47.05,-27.59l27.85 -64.65c-107.02,60.1 -14,-15.3 -71.88,80.89 -28.91,48.07 -35.34,66.96 -53.75,110.37 -32.04,75.55 -64.27,141.41 -76.03,232.72 16.91,86.01 -30.3,24.78 48.81,61.53 48.28,-282.77 178.07,-102.1 254.72,-326.29 40.21,29.84 14.25,-0.05 35.73,52.77 28.39,-43.32 42.01,-80.29 73.46,-130.87 52.35,-84.16 65.59,-69.85 84.48,-175.22 -107.9,37.96 -236.89,164.51 -276.34,186.34z"/>
  <path class="fil23" d="M9590.41 11807.02c15.3,125.72 20.77,118.99 -17.4,179.96 16.39,95.38 -18.41,87.06 8.55,187.11 7.09,26.37 45.68,5.68 17.46,191.72 -30.81,203.16 -15.46,200.87 -80.28,385.43l116.39 -105.86 -0.11 -16.9c42.82,-245.44 116.95,-203.27 94.81,-627.69 -3.01,-0.93 -8,2.11 -9.13,2.35 -49.75,10.44 13.69,31.97 -54.2,5.23 -57.48,-22.65 -49.02,-154.84 -69.5,-298.07l-5.99 0 -0.6 96.72z"/>
  <path class="fil16" d="M9188.4 10316.57c46.74,23.78 162.17,117.78 206.41,158.77 71.99,66.72 116.63,125.47 194.02,187.77 18.81,1.29 78.66,6.3 93.35,3.64 83.01,-15.07 29.93,10.7 66.37,-32.12l-126.56 -150.91c-14.95,-14.83 -31.87,-28.84 -49.47,-44.77l-202.85 -181.19c-51.92,47.76 30.19,20.39 -97.14,53.16 -24.44,6.29 -39.79,3.56 -84.13,5.65z"/>
  <path class="fil21" d="M9764.89 11620.55l29.28 151.65c97.67,142.59 2.27,285.47 77.32,400.3 58.08,-32.92 46.77,68.12 43.29,-265.88 -0.5,-48.04 -1.27,-96.18 -0.28,-143.42l27.65 -135.26c58.41,147.97 34.82,297.68 117.77,357.56l-94.22 -396.97 -117.89 -158.1c-1.74,245.71 13.65,191.92 -82.92,190.12z"/>
  <path class="fil24" d="M9611.82 11346.63c55.94,75.53 94.95,187.55 153.07,273.92 96.57,1.8 81.18,55.59 82.92,-190.12l117.89 158.1 -78.24 -239.67c-2.48,-4.34 -6.21,-10.54 -8.76,-14.52 -18.26,-28.57 -16.21,-22.5 -30.77,-38.23 -123.8,-41.55 -51.02,44.6 -188.43,-43.89l0 41.94 -23.56 -47.12 -70.66 -70.66 -23.56 2.41 -22.27 -9.65c36.58,70.22 65.03,101.94 92.37,177.49z"/>
  <path class="fil23" d="M9365.32 12913.24c-29.29,82.24 -51.2,143.09 -81.76,224.26 -53.44,141.92 -105.28,62.69 -84.86,259.07l76.96 -60.9c26.2,-31.98 52.68,-123.59 147.52,-253.1 81.63,-111.49 161.85,-159.35 215.18,-305.22l-127.14 87.5 13.43 -92.47c-40.83,26.76 -7.56,2.15 -49.45,34.31 -0.13,0.1 -38.8,32.69 -39.57,33.4 -33,30.5 -37.75,40.87 -70.31,73.15z"/>
  <path class="fil22" d="M8289.76 12738.76l-77.92 121.98c-41.4,68.89 -11.14,25.5 -43.46,54.42 -60.72,54.35 -40.3,-34.67 -123.06,216.12l-43.83 178.15 49.98 0c11.43,-67.25 143.72,-248.71 198.8,-341.88 132.81,-224.68 42.96,-98.11 184.15,-234.78l67.52 -91.5 -80.32 6.87c-51.04,65.37 -48.56,26.67 -74.87,114.81 -14.51,-7.79 -42.63,-9.02 -56.99,-24.19z"/>
  <path class="fil20" d="M8877.32 10469.75c7.65,-73.48 13.22,-96.34 35.57,-141.33 -80.83,-86.31 -392.74,-211.99 -548.89,-211.99 34.04,94.04 159.94,141.13 245.66,178.32 136.17,59.07 155.07,107.08 267.66,175z"/>
  <path class="fil21" d="M7351.16 13332.51c69.46,-83.99 49.5,-11.59 83.96,-90.68 37.9,-87.01 -17.52,-89.98 80.92,-144.65 65.43,28.25 19.16,-10.33 54.21,56.13 7.14,13.54 13.28,54.48 16.45,64.08 22.09,-27.1 4.4,16.49 18.99,-44.74 5,-20.96 8.8,-57.1 12.27,-80.23 5.85,-38.88 16.03,-82.54 14.17,-149.46 -42.35,-24.98 11.07,-32.09 -39.16,5.6 -5.37,4.02 -20.9,36.29 -20.93,36.35 -40.18,-82.18 43.31,-30.32 -103.96,-51.08 -79.11,-36.75 -31.9,24.48 -48.81,-61.53l-16.64 28.87c-48.51,117.37 -51.47,306.42 -51.47,431.34z"/>
  <path class="fil11" d="M7751.59 13095.15l87.75 -2.78 0.51 190.5 52.33 23.52c45.45,-25.31 32.51,50.63 54.71,-70.96 17.59,-135.76 65.69,-185.31 74.88,-300.45 -77.36,38.03 -40.15,-25.16 -67.67,69.21 -1.73,-5.92 -12.1,-40.8 -19.59,-51.6 -2.43,-3.49 -7.76,-8.51 -10.57,-12.09l-36.4 -38.92c-41.89,-63.54 -17.85,-80 -41.73,-116.12 -15.6,56.92 -33.46,96.16 -50.42,154.32 -15.67,53.71 -14.22,112.8 -43.8,155.37z"/>
  <path class="fil17" d="M8877.32 10469.75c102.69,24.88 183.22,103.71 259.58,169.27l98.62 66.32 35.33 -71.73 82.44 20.84c-71.89,-96.32 -315.21,-291.91 -440.4,-326.03 -22.35,44.99 -27.92,67.85 -35.57,141.33z"/>
  <path class="fil16" d="M7640.13 12540.56c39.45,-21.83 168.44,-148.38 276.34,-186.34 51.49,-3.27 58.74,-39.17 138.1,-144.66 44.1,-58.62 101.58,-134.8 121,-211.23 -139.16,71.75 -61.58,7.85 -279.35,214.86 -40.36,38.36 -84.62,98.78 -137.43,148.62 -49.41,46.62 -68.41,35.98 -118.66,178.75z"/>
  <path class="fil5" d="M8929.31 10131.61c4.11,4.64 10.42,5.53 12.54,13.73l112.56 81.45c53.14,30.34 86.01,50.24 133.99,89.78 44.34,-2.09 59.69,0.64 84.13,-5.65 127.33,-32.77 45.22,-5.4 97.14,-53.16 -56.09,-46.72 -107.6,-81.86 -157.6,-117.88 -25.33,-18.25 -42.97,-32.17 -68.64,-47.9 -78.55,-48.12 -16.67,-27.09 -112.64,-46.21 4.27,6.53 10.16,15.92 12.39,19.86l20.88 44.38c-59.44,19.72 -55.96,28.72 -134.75,21.6z"/>
  <path class="fil23" d="M8182.38 12660.85c-32.69,44.96 -11.92,22.07 -34.94,65.06 -19.15,35.77 -19.67,37.83 -44.68,73.91 -43.09,62.16 -56.06,65.8 -80.99,135.16 -9.19,115.14 -57.29,164.69 -74.88,300.45l98.43 -104.15c82.76,-250.79 62.34,-161.77 123.06,-216.12 32.32,-28.92 2.06,14.47 43.46,-54.42l77.92 -121.98c-17.19,-29.02 -13,-2.32 -19.15,-50.64 -0.69,-5.39 9.25,-38.39 11.7,-45.84 -13.14,36.38 -32.15,63.59 -50.69,96.8 -57.2,-45.04 -43.03,68.56 -49.24,-78.23z"/>
  <path class="fil22" d="M9291.88 11782.03c100.54,28.63 80.36,-32.45 193.13,37.71l48.37 43.88c12.88,20.11 30.57,91.16 39.63,123.36 38.17,-60.97 32.7,-54.24 17.4,-179.96 -71.31,-53.83 -40.14,-78.06 -81.84,-153.7 -45.75,-82.99 -60.34,-38.46 -84.62,-102.07 -12.05,20.25 -23.03,43.86 -52.43,63.47 -76.93,51.33 -23.87,6.84 -39.01,9.84l-40.63 157.47z"/>
  <path class="fil24" d="M7240.15 12727.5l-15 93.03 -52.22 -36.8c-2.39,-8.76 -9.96,-9.59 -11.19,-12.84l-31.43 46.03 -36.94 106.26 11.88 -97.99c-39.14,39.55 -17.93,2.15 -39.67,68 -2.62,7.93 -15.85,84.68 -18.1,99.53 -13.43,88.56 -26.08,118.91 -26.08,216.37 3.6,-5.54 7.63,-21.37 9.23,-17.54 1.56,3.74 7.02,-13.39 9.22,-17.06 60.43,-100.74 98.4,-79.76 117.33,-287.79l25.21 174.03c24.45,-33.07 9.96,7.12 33.17,-65.01 10.83,-33.64 9.8,-46.22 19.72,-98.02 12.74,-66.54 29.92,-124.55 45.22,-190.52l-40.35 20.32z"/>
  <path class="fil24" d="M7468.08 12933.83c147.27,20.76 63.78,-31.1 103.96,51.08 0.03,-0.06 15.56,-32.33 20.93,-36.35 50.23,-37.69 -3.19,-30.58 39.16,-5.6l58.62 -131.41c25.84,-65.46 42.56,-83.82 67.78,-151.24 -21.48,-52.82 4.48,-22.93 -35.73,-52.77 -76.65,224.19 -206.44,43.52 -254.72,326.29z"/>
  <path class="fil15" d="M9303.62 11094.8l190.8 278.69 3.6 -97.3c60.45,52.16 21.35,45.52 113.8,70.44 -27.34,-75.55 -55.79,-107.27 -92.37,-177.49 -55.11,-66.34 -135.58,-127.24 -210.76,-158.62l-5.07 84.28z"/>
  <path class="fil16" d="M7233.27 12518.98c-56.46,35.48 -27.9,3.69 -63.78,54.35 -10.52,14.84 -27.22,63.01 -34.32,83.41 -19.44,55.91 -40.89,96.37 -29.92,168.45l-11.88 97.99 36.94 -106.26 23.61 -105.4 86.23 15.98 40.35 -20.32 117.77 -258.98c-44.51,-32 -56.44,23.24 -37.18,-36.33 -72.59,85.29 -72.55,59.78 -116.91,192.31 -31.59,-50.61 -76.84,71.65 -10.91,-85.2z"/>
  <path class="fil24" d="M10005.7 11317.7c19.04,50.44 23.35,54.75 43.48,104.86 10.17,25.32 8.28,30.72 19.81,50.8 25.76,44.84 14.91,27.95 50.34,56.33l0.43 -36.95c10.91,31.84 -0.09,16.91 18.19,50.29 35.38,64.64 14.2,28.09 44.27,59.65l66.13 -39.2c-13.1,-67.95 -23.97,-102.14 -47.1,-158.4 -71.94,-28.19 -77.19,-97.94 -111.86,-164.09l-83.69 76.71z"/>
  <path class="fil4" d="M8175.57 14827.2l195.88 23.67 -341.56 -303.74c-59.5,-73.38 -113.72,-120.73 -156.68,-197.98 -52.18,-93.8 -65.84,-165.83 -133.99,-222.27 66.8,233.18 272.79,530.78 514.39,647.93 -42.45,53.57 65.7,30.04 -78.04,52.39z"/>
  <path class="fil17" d="M7233.27 12518.98c-65.93,156.85 -20.68,34.59 10.91,85.2 44.36,-132.53 44.32,-107.02 116.91,-192.31 -19.26,59.57 -7.33,4.33 37.18,36.33 56.19,-78.77 53.22,-58.21 70.66,-156.8 -59.57,34.94 -9.18,-22.35 -69.39,44.4 -3.87,-12.04 -19.16,-43.04 -20.73,-48.46 -1.58,-5.42 -9.64,0.97 -4.21,-51.01 -115.64,72.67 -28.18,54.86 -164.76,211.99l23.43 70.66z"/>
  <path class="fil16" d="M9235.52 10728.85zm0 -23.51l0 23.51zm0 -23.51l0 23.51 47.1 86.3c99.33,3.75 30.82,14.31 141.33,47.68 5.59,-3.64 14.28,-15.2 16.92,-10.67 2.64,4.53 13.11,-8.34 16.52,-11.25 3.41,-2.89 11.7,-9.39 15.39,-12.65l27.94 -28.75 -147.43 -145.06 -82.44 -20.84 -35.33 71.73z"/>
  <path class="fil15" d="M8719.32 12247.52l93.69 10.43c35.36,-64.94 42.81,-66.64 73.43,-112.46l-109.06 16.76 -68.89 42.81 10.83 42.46z"/>
  <path class="fil9" d="M7130.31 12816.92l31.43 -46.03c1.23,3.25 8.8,4.08 11.19,12.84l52.22 36.8 15 -93.03 -86.23 -15.98 -23.61 105.4z"/>
  <polygon class="fil9" points="9588.83,11152.83 9565.28,11152.83 9565.28,11176.38 "/>
 </g>
</svg>
