<?xml version="1.0" encoding="UTF-8" standalone="no"?>
<!-- Created with Inkscape (http://www.inkscape.org/) -->

<svg
   width="25.400009mm"
   height="29.408258mm"
   viewBox="0 0 25.400009 29.408258"
   version="1.1"
   id="svg1"
   xmlns:inkscape="http://www.inkscape.org/namespaces/inkscape"
   xmlns:sodipodi="http://sodipodi.sourceforge.net/DTD/sodipodi-0.dtd"
   xmlns="http://www.w3.org/2000/svg"
   xmlns:svg="http://www.w3.org/2000/svg">
  <sodipodi:namedview
     id="namedview1"
     pagecolor="#ffffff"
     bordercolor="#000000"
     borderopacity="0.25"
     inkscape:showpageshadow="2"
     inkscape:pageopacity="0.0"
     inkscape:pagecheckerboard="0"
     inkscape:deskcolor="#d1d1d1"
     inkscape:document-units="mm">
    <inkscape:page
       x="-9.433311e-23"
       y="0"
       width="25.400007"
       height="29.408258"
       id="page2"
       margin="0"
       bleed="0" />
  </sodipodi:namedview>
  <defs
     id="defs1" />
  <g
     inkscape:label="Layer 1"
     inkscape:groupmode="layer"
     id="layer1"
     transform="translate(-83.975407,-125.10848)">
    <path
       d="m 93.765002,125.10847 -0.264583,1.05834 c 0.779151,-0.0917 0.773079,-0.29365 0.79375,-1.05834 h -0.529167 m 3.439583,0.52917 1.058334,1.05833 -1.058334,-1.05833 m -1.058333,1.32292 -2.116667,4.49791 h 4.497917 l -0.529167,-3.70416 -0.529166,0.52916 -1.322917,-1.32291 m 2.38125,0.26458 0.264583,0.26458 -0.264583,-0.26458 m 0.529167,1.32292 0.264583,0.26458 -0.264583,-0.26458 m -6.614584,0.52916 -0.264583,0.52917 0.264583,-0.52917 m 6.879167,0 0.264583,0.26459 -0.264583,-0.26459 m -8.202083,1.05834 -0.264584,0.52916 0.264584,-0.52916 m 8.202083,0 0.264583,0.26458 -0.264583,-0.26458 m -0.264583,1.32291 2.645831,0.79375 v -1.05833 l -0.79375,0.52917 -0.26458,-1.5875 -1.587501,1.32291 m -7.14375,0.52917 1.5875,-0.26458 v -1.05834 l -1.5875,1.32292 m -1.322917,-1.05833 -0.264583,0.52916 0.264583,-0.52916 m 3.96875,1.85208 4.7625,0.35277 4.233338,1.7639 -0.26459,-0.52917 h 0.26459 c 1.6857,1.19775 4.86612,4.17814 4.45381,6.61458 -0.0594,0.35098 -0.37446,0.71548 -0.48506,1.05834 1.85219,1.19849 -0.4857,3.07822 0,4.49791 h 0.52916 c 0.71448,-2.46819 0.76583,-5.21332 -0.0882,-7.67291 -0.39879,-1.14856 -1.22591,-2.09905 -1.76389,-3.175 1.37021,1.48767 2.48426,3.50962 2.64583,5.55625 h 0.26458 c -0.079,-3.00339 -2.18862,-6.25051 -4.76249,-7.67292 l 1.05833,1.32292 c -2.72301,-1.36151 -4.75703,-3.04248 -7.937501,-3.175 -1.13685,-0.0474 -2.749929,-0.3459 -2.910417,1.05833 m -4.497917,-0.79375 0.264584,0.26458 -0.264584,-0.26458 m -0.264583,0.52917 c -2.58781,2.38351 -5.517953,4.63017 -5.820833,8.46666 h 0.264583 c 0.805167,-2.54971 1.737588,-4.46536 3.704167,-6.35 0.608716,-0.58336 2.30015,-1.33255 1.852083,-2.11666 m 12.964588,0 1.32291,1.05833 v -0.26458 l -1.32291,-0.79375 m -7.143755,0.88194 c -2.523683,0.49071 -4.859684,0.70882 -6.879166,2.55764 -3.852414,3.52687 -4.573381,10.95983 0,14.19931 2.811375,1.9914 7.251043,2.54631 10.583333,1.85209 1.722458,-0.35885 3.715378,-1.12636 5.027088,-2.33717 3.54385,-3.27126 3.43251,-9.46013 0.26458,-12.92048 -1.72895,-1.88855 -4.13794,-2.89981 -6.614585,-3.175 -0.847687,-0.0942 -1.51181,-0.34546 -2.38125,-0.17639 m 10.054165,1.49931 0.52917,0.79375 -0.52917,-0.79375 m -13.493748,2.64583 v 0.26458 l -2.645833,0.79375 c 0.407097,-1.11025 1.589421,-1.05833 2.645833,-1.05833 m 10.583338,1.05833 -2.64584,-0.79375 c 0.85174,-0.61943 2.27115,-0.26214 2.64584,0.79375 m -11.90626,1.10244 c 0.888334,-0.23773 1.528024,0.51757 1.763895,1.27881 0.381404,1.2309 0.512194,4.77494 -0.970145,5.24756 -2.816058,0.89788 -2.95531,-5.94792 -0.79375,-6.52637 m 10.05417,0 c 2.46849,-0.39352 2.66316,6.26992 0.52917,6.57048 -2.328347,0.32794 -2.208474,-3.79508 -1.807982,-5.29167 0.167529,-0.62601 0.625112,-1.1746 1.278812,-1.27881 m 8.20209,1.80798 v 2.91042 h 0.26458 l -0.26458,-2.91042 m -24.606255,2.64583 c 0.11406,1.4448 0.601901,3.18292 1.852084,3.96875 l -1.852084,-3.96875 m 24.341665,0.52917 v 0.79375 h 0.26459 l -0.26459,-0.79375 m -10.847915,1.32292 c 0.909312,2.15964 -2.127922,4.14296 -3.615977,2.11666 -0.397408,-0.54115 -0.352773,-1.21925 -0.352773,-1.85208 l 3.96875,-0.26458 m 10.671525,0.17639 0.0882,0.17638 -0.0882,-0.17638 m -14.111108,0.61736 c 0.180302,2.28382 2.939533,2.23686 3.175,0 h -3.175 m 13.758338,0 0.26458,0.26458 -0.26458,-0.26458 m -0.26459,0.52916 0.26459,0.26459 -0.26459,-0.26459 m -0.26458,0.52917 -0.26458,0.52917 0.26458,-0.52917 m -0.52917,0.79375 -0.26458,0.52917 0.26458,-0.52917 m -16.139581,3.70417 c 0.301515,0.82231 1.088515,0.98524 1.852083,1.36702 3.567515,1.78375 6.098368,0.16 9.524998,-1.10244 v -0.26458 l -0.79375,-0.52917 -6.349998,1.05833 -4.233333,-0.52916"
       style="fill:#1b1433;stroke:none"
       id="path1"
       sodipodi:nodetypes="cccccccccccccccccccccccccccccccccccccccccccccccccscccscccccscccccccsccccccssssssccccccccccccssccsscccccccccccccscccccccccccccccccccccsccccc" />
  </g>
</svg>
