<?xml version="1.0" encoding="UTF-8"?>
<!DOCTYPE svg PUBLIC "-//W3C//DTD SVG 1.1//EN" "http://www.w3.org/Graphics/SVG/1.1/DTD/svg11.dtd">
<!-- Creator: CorelDRAW 2026 (Evaluation Version) -->
<svg xmlns="http://www.w3.org/2000/svg" xml:space="preserve" width="210mm" height="297mm" version="1.1" style="shape-rendering:geometricPrecision; text-rendering:geometricPrecision; image-rendering:optimizeQuality; fill-rule:evenodd; clip-rule:evenodd"
viewBox="0 0 21000 29700"
 xmlns:xlink="http://www.w3.org/1999/xlink"
 xmlns:xodm="http://www.corel.com/coreldraw/odm/2003">
 <defs>
  <style type="text/css">
   <![CDATA[
    .fil0 {fill:#010011}
   ]]>
  </style>
 </defs>
 <g id="Layer_x0020_1">
  <metadata id="CorelCorpID_0Corel-Layer"/>
  <path class="fil0" d="M14123.66 11429.71l-44.27 29.85c-33.55,18.59 31.9,-8.8 -36.87,12.76 38.91,-71.75 19.59,-45.71 71.91,-77.15 95.88,-53.08 244.97,-151.95 380.55,-36.18l-371.32 70.72zm-584.9 -4.38l-67.82 -148.11c121.12,67.77 33.52,68.76 165.43,157.6 58.51,39.41 201.11,196.33 402.02,246.28 142.55,35.43 197.17,8.79 280.58,76.45 -409.6,41.26 -380.48,-57.93 -531.36,-73.24 67.32,9.91 153.25,62.94 245.69,84.19 197.33,45.37 403.2,48.45 595.2,-44.03l205.42 -147.9c326.2,-328.49 407.52,-786.77 112.1,-979.88 -166.49,-108.83 -419.08,1.68 -586.23,34.66 -256.09,50.54 -430.57,6.1 -639.22,-58.28 -520.33,-160.56 -442.13,704.72 -181.81,852.26z"/>
 </g>
</svg>
