<?xml version="1.0" encoding="UTF-8"?>
<!DOCTYPE svg PUBLIC "-//W3C//DTD SVG 1.1//EN" "http://www.w3.org/Graphics/SVG/1.1/DTD/svg11.dtd">
<!-- Creator: CorelDRAW 2026 (Evaluation Version) -->
<svg xmlns="http://www.w3.org/2000/svg" xml:space="preserve" width="210mm" height="297mm" version="1.1" style="shape-rendering:geometricPrecision; text-rendering:geometricPrecision; image-rendering:optimizeQuality; fill-rule:evenodd; clip-rule:evenodd"
viewBox="0 0 21000 29700"
 xmlns:xlink="http://www.w3.org/1999/xlink"
 xmlns:xodm="http://www.corel.com/coreldraw/odm/2003">
 <defs>
  <style type="text/css">
   <![CDATA[
    .fil7 {fill:#2D94EA}
    .fil2 {fill:#30B1F5}
    .fil11 {fill:#3475D8}
    .fil13 {fill:#4FB2F0}
    .fil4 {fill:#50C8FE}
    .fil10 {fill:#5692E7}
    .fil9 {fill:#646CDF}
    .fil18 {fill:#6EB4EF}
    .fil23 {fill:#70CCF9}
    .fil25 {fill:#94CDF4}
    .fil21 {fill:#97B7F5}
    .fil8 {fill:#9E59EC}
    .fil26 {fill:#A03BD8}
    .fil15 {fill:#A091FF}
    .fil16 {fill:#A9ECFE}
    .fil12 {fill:#AB3AB7}
    .fil19 {fill:#B153B9}
    .fil1 {fill:#B350CB}
    .fil30 {fill:#CF69E5}
    .fil20 {fill:#D347F1}
    .fil3 {fill:#D43BE4}
    .fil27 {fill:#D496F7}
    .fil28 {fill:#E889F0}
    .fil22 {fill:#E96FF9}
    .fil6 {fill:#F351F8}
    .fil29 {fill:#F594F5}
    .fil14 {fill:#F7D5FE}
    .fil31 {fill:#F88BF9}
    .fil0 {fill:#F8FCFF}
    .fil24 {fill:#FAB0FC}
    .fil17 {fill:#FB69FD}
    .fil5 {fill:#FB75FD}
   ]]>
  </style>
 </defs>
 <g id="Layer_x0020_1">
  <metadata id="CorelCorpID_0Corel-Layer"/>
  <g id="_2758401326688">
   <path class="fil0" d="M6952.91 12768.17l-426.47 75.34c-123.33,39.09 -281.17,64.72 -409.28,100.74 -236.68,66.55 -553.8,160.98 -779.14,253.83 -102.13,42.08 -284.44,130.3 -379.3,155.2l16.24 23.53c37.26,66.76 48.81,86.3 32.82,133.67 37.95,-5.95 26.74,-10.98 47.23,0.29 -9.84,12.92 -14.13,13.91 -13.98,44.59 0.26,53.97 -3.62,-9.07 15.47,45.46l238.79 -112.12c114.58,-76.44 806.6,-342.18 950.26,-348.01 52.45,-37.2 329.69,-99.79 407.95,-107.33 54.65,-30.47 224.36,-56.3 295.85,-64.23 92.37,-8.17 209.01,-36.24 307.16,-50.49 111.15,-16.12 220.17,-20.36 325.05,-36l606.12 -25.32c307.78,0.25 602.92,15.48 897.07,68.83 146.05,26.5 663.63,143.68 749.32,215.43 90.37,2.97 254.38,101.06 348.83,129.93 144.17,124.08 385.76,-31.24 75.94,-223.92 -224.51,-139.62 -826.02,-254.02 -1097.3,-285.59l-631.46 -63.03c-11.55,3.51 -854.21,5.14 -901.38,-1.45l-675.79 70.65z"/>
   <path class="fil1" d="M5165.45 13974.62l3.5 3.5c-0.24,-0.23 -4.67,-2.34 -3.5,-3.5zm269.84 -117.32l3.5 3.49c-0.24,-0.22 -4.67,-2.33 -3.5,-3.49zm175.98 -70.4c12.47,-12.47 44.5,18.62 13.07,6.1 -0.27,-0.11 -32.72,13.55 -13.07,-6.1zm35.19 -11.73l3.51 3.5c-0.24,-0.23 -4.67,-2.33 -3.51,-3.5zm35.2 -11.73l3.5 3.5c-0.23,-0.23 -4.66,-2.34 -3.5,-3.5zm504.49 -164.25l3.5 3.5c-0.24,-0.23 -4.67,-2.34 -3.5,-3.5zm363.69 -93.86l3.5 3.5c-0.23,-0.23 -4.67,-2.33 -3.5,-3.5zm-53.77 -223.6c-139.71,19.73 -242.6,82.55 -385.19,93.1l-582.62 213.57c-2.19,1.15 -5.16,2.89 -7.32,4.1l-21.75 13.03c-22.42,14.58 -35.22,30.65 -51.48,40.99 -40.62,25.85 -232.87,64.42 -401.55,162.69 -49.79,29.01 -55.08,7.49 -122.49,41.25l-195.77 86.61c-103.83,34.99 -49.34,19.66 -129.56,58.04 -23.43,11.2 -45.76,17.52 -64.82,28.95 -37.81,22.69 -7.66,18.56 -60.9,33.57l-162.85 28.86c-46.1,2.98 -42.55,7.61 -70.31,-6.03 -67.15,-33.02 -55.06,-59.4 -79.38,-110.42 -37.5,-78.7 -87.76,-51.88 -91.59,-63.53 -0.83,-2.56 -4.64,-1.07 -6.64,-2.28 -3.79,-97.27 28.28,-124.7 131.95,-220.72 81.62,-75.6 31.35,-50.33 80.73,-96.04 23.89,-22.12 66.69,-62.1 73.37,-62.65 -51.24,14.45 -187.37,146.47 -227.76,190.73 -22.7,24.87 -25.85,26.91 -52.64,52.71l-123.92 174.4c30.37,21.05 25.86,-34.22 23.65,42.4 -35.29,31.73 -46.24,95.65 -48.31,157.54 139.66,-1.26 232.21,62.79 428.28,19.28l118.85 -24.45c43.76,-11.29 71.64,-45.14 151.64,-79.69 26.04,-11.24 42.56,-18.49 66.22,-27.79l121.64 -63.19c60.61,-37.18 54.41,-11.93 120.48,-46.86 0.06,-0.03 12.6,-20.87 47.2,-12.79 65.58,15.29 -47.55,69.12 -66.73,78.68 -37.5,18.69 -261.95,147.37 -280.34,176.85l-2.71 26.11c59.42,17.08 -47.31,17 46.93,-3.17 2.86,-0.62 59.13,-15.17 66.41,-18.26 48.61,-20.62 12.11,-11.14 43.72,-28.5 16.83,-9.24 0.7,-6.85 22.93,-8.88 31.2,-2.85 14.24,-3.91 29.34,8.93 -21.12,29.02 -39.92,21.54 -82.1,43.34 -29.63,15.32 -57.78,32.82 -85.35,48.18l195.08 6.45c57.42,4.47 206.51,-107.61 258.7,-132.57 102.95,-49.24 34,-5.79 195.85,-94.04l263.04 -93.58c18.54,-5.15 55.62,-19.39 75.02,-29.31 57,-29.15 1.02,-14.58 59.45,-34.44 40.14,-13.64 130.88,-21.41 242.66,-74.1l413.28 -125.46c30.86,-8.38 41.56,-14.56 71.95,-23.64 40.61,-12.14 53.96,-10.19 75.12,-12.63 45.94,-5.29 100.57,-26.32 156.61,-36.42l324.4 -57.59c61.59,-6.09 96.37,-17.73 163.05,-17.73l-25.95 -8.87c-148.39,-27.68 -97.91,48.97 -76.55,-76.45 7.06,-41.47 17.2,10.27 9.02,-20.78 -64.8,-2.82 -17.62,-2.75 -35.96,12.24 -17.7,17.45 -6.34,15.64 -22.7,-1.63l-29.46 -6.82c30.67,-3.79 43.93,-11.55 63.52,-23.77 -36.28,-9.85 -56.03,-7.3 -19.47,-46.14 12.68,-13.47 40.11,-19.17 48.78,-18.71l-99.05 -25.4c-227.91,21.39 -604.27,144.52 -708.41,150.82 55.04,-61.29 151.86,-55.29 223.03,-83.24 77.05,-30.26 -12.4,-28.03 85.2,-55.56 41.36,-11.66 78.22,-14.88 122.76,-26.87 -42.01,-13.34 -142.48,1.09 -198.23,7.58z"/>
   <path class="fil2" d="M10364.25 13491.73c-53.33,75.19 -190.6,25.73 -198.77,-5.31 -1.27,-4.83 -4.56,-5.48 -6.82,-8.22 71.69,-0.29 163.69,-10.71 205.59,13.53zm-646.01 -824.41l49.08 28.18c12.27,4.27 39.7,10.86 53.98,14.81 32.66,9.03 66.43,18.17 99.7,28.33 141.08,43.1 247.93,73.83 378.44,148.31 28.67,16.36 19.02,11.8 41.52,28.48l49.59 33.36c133.22,83.47 176.92,242.62 111.57,321.74 -14.82,17.93 -15.93,17.56 -31.89,37.63 -80.11,100.67 -92.73,71.21 -214.49,57.58 -61.06,-6.84 -142.36,-14.75 -196.96,-37.58l-15.57 -8.28c-85.21,4.2 -256.58,-104.7 -372.55,-119.57 23.91,63.05 -2.96,38.78 50.14,62.36l71.37 50.32c20.69,24.49 3.91,19.82 23.45,47.23 19.01,26.66 7.64,7.56 11.56,7.94 -60.98,-2.39 -36.43,-4.73 -79.07,-15.28 -71,-17.56 -74.33,7.04 -86.87,19.71 58.71,19.67 75.02,25.85 111.18,65.74 -35.94,30.11 -20.56,1.83 -47.83,43.54 27.39,20.16 46.96,9.16 56.66,27.43 -33.94,-10.28 -85.65,-21.21 -126.24,-20.64l41.99 26.78c19.53,10.43 8.82,0.65 29.41,14.24 60.87,31.53 409.7,88.04 519.5,94.24 192.73,10.87 178.59,75.82 371.62,-16.42l23.69 -11.64c3.26,-1.58 12.86,-5.9 16.08,-7.51 26.33,-13.19 9.63,-3.43 30.1,-16.98 2.9,-1.91 10.69,-7.85 13.49,-9.86 94.48,-67.66 39.47,-39.14 89.54,-130.5 24.86,-45.36 -5.29,-70.72 -3.62,-172.05 0.59,-36.27 -6.91,-3.29 14.68,-1.32 34.42,3.14 -25.44,31.15 19.24,-0.83 -24.82,-68.71 -118.24,-162.83 -162.66,-199.24 -66.73,-54.69 -122.49,-98.57 -204.21,-146.55 -116.59,-68.46 -342.13,-179.59 -497.25,-211.85l-217.58 -63.94c-9.74,5.53 10.69,9.94 -37.5,9.46 17.86,17.65 43.32,19.05 16.71,22.63z"/>
   <path class="fil3" d="M4347.9 13524.82c-6.68,0.55 -49.48,40.53 -73.37,62.65 -49.38,45.71 0.89,20.44 -80.73,96.04 -103.67,96.02 -135.74,123.45 -131.95,220.72 2,1.21 5.81,-0.28 6.64,2.28 3.83,11.65 54.09,-15.17 91.59,63.53 24.32,51.02 12.23,77.4 79.38,110.42 27.76,13.64 24.21,9.01 70.31,6.03l162.85 -28.86c53.24,-15.01 23.09,-10.88 60.9,-33.57 19.06,-11.43 41.39,-17.75 64.82,-28.95 80.22,-38.38 25.73,-23.05 129.56,-58.04l195.77 -86.61c67.41,-33.76 72.7,-12.24 122.49,-41.25 168.68,-98.27 360.93,-136.84 401.55,-162.69 16.26,-10.34 29.06,-26.41 51.48,-40.99l21.75 -13.03c2.16,-1.21 5.13,-2.95 7.32,-4.1l582.62 -213.57c52.15,-97.02 54.03,-48.95 99.46,-70.89 55.7,-26.9 -46.34,40.77 17.65,-14.63l12.58 -12.67c2.35,-1.88 5.06,-4.13 7.53,-5.9 2.48,-1.78 5.61,-3.51 8.13,-5.12l35.56 -18.34c9.1,14.66 15.84,32.34 5.68,-12.04l-58.11 10.16c-12.34,10.53 -8.01,7.71 -26.78,18.29l-355.99 125.92c-65.69,21.55 -128.49,36.61 -192.18,65.13 -106.48,47.68 -74.78,10.03 -179.52,55.95l-551.53 223.73c-70.55,20.11 -101.21,54.01 -166.81,82.7l0.03 -36.82c-29.67,15.39 -55.16,33.26 -82.9,52.31 -25.54,17.55 -51.87,32.58 -71.85,48.78 -21.45,22.9 -8.71,5.71 -32.82,23.33 -11.16,8.16 -34.65,28.57 -38.52,31.78 -27.61,22.88 -50.87,34.8 -87.67,47.18 -29.83,46.92 -112.39,71.81 -167.35,60.86 -51.28,-15.65 -71.32,-23.18 -80.41,-81.6 -1.19,-29.68 5.81,-59.64 17.99,-85.76 1.8,-3.85 20.63,-36.81 21.52,-37.95 20.53,-26.1 -6,-24.3 27.31,-17.47 46.28,-55.8 42.31,-67.77 100.26,-105.25l144.17 -115.13c-32.47,-10.72 -21.2,-4.56 -37.04,-18.9 39.84,-25 30.52,-14.71 48.69,-56.16 43.69,-99.61 54.66,-17.25 96.25,-115.08 16.91,-39.79 -6.85,-21.84 41.91,-52.64 383.64,-242.39 1016.64,-458.61 1454.36,-576.96l650.19 -158.81 -67.95 -18.78c-474.63,114.89 -787.67,172.95 -1274.17,354.58 -299.87,111.96 -574.08,235.69 -843.25,387.78 -56.37,31.85 -216.98,126.92 -237.4,178.41z"/>
   <path class="fil4" d="M8479.12 12601.98c3.98,12.36 -21.08,31.57 89.77,33.37 -15.97,35.13 23.1,19.91 -37.5,24.46l33.77 13.51c27.89,13.23 18.92,-11.25 14.09,9.61l-49.17 16.04 631.46 63.03c271.28,31.57 872.79,145.97 1097.3,285.59 309.82,192.68 68.23,348 -75.94,223.92 -28.26,42.18 -9.14,9.78 28.95,32.43 23.37,13.9 25.92,7.44 43.96,32.35l-212.6 -16.41 15.57 8.28c54.6,22.83 135.9,30.74 196.96,37.58 121.76,13.63 134.38,43.09 214.49,-57.58 15.96,-20.07 17.07,-19.7 31.89,-37.63 65.35,-79.12 21.65,-238.27 -111.57,-321.74l-49.59 -33.36c-22.5,-16.68 -12.85,-12.12 -41.52,-28.48 -130.51,-74.48 -237.36,-105.21 -378.44,-148.31 -33.27,-10.16 -67.04,-19.3 -99.7,-28.33 -14.28,-3.95 -41.71,-10.54 -53.98,-14.81l-49.08 -28.18 -435.92 -93.72c-54.72,8.05 -242.56,-18.91 -304.9,-31.4l-34.84 11.63c-54.06,20.86 -14.9,15.26 -60.62,45.12 -48.91,31.94 -341.74,5.78 -402.84,3.03z"/>
   <path class="fil5" d="M6455.99 12556.56c-97.31,-4.93 -602.59,148.39 -726.01,187.56 -229.78,72.93 -457.09,157.79 -676.98,249.87 -110.98,46.47 -208.28,97.09 -309.92,147.63 -51.34,25.53 -92.22,49.48 -144.4,78.51 -147.76,82.21 -593.21,386.14 -644.41,519.85 -66.44,101.17 -139.68,181.93 -140.99,346.67 39.55,21.34 16.02,1.35 42.71,49.19 7.54,13.53 19.24,36.46 25.15,48.48 -2.36,-53.5 -8.51,-53.47 13.62,-98.06l48.82 -143.6 123.92 -174.4c26.79,-25.8 29.94,-27.84 52.64,-52.71 40.39,-44.26 176.52,-176.28 227.76,-190.73 20.42,-51.49 181.03,-146.56 237.4,-178.41 269.17,-152.09 543.38,-275.82 843.25,-387.78 486.5,-181.63 799.54,-239.69 1274.17,-354.58l25.84 -3.96c8.85,-40.67 -20.23,12.96 34.21,-32.48 1.78,-1.49 4.67,-3.54 6.41,-5.07l79.46 -62.08c1.16,-3.84 4.77,-3.74 6.79,-5.99 -139.66,7.04 -255.23,53.17 -399.44,62.09z"/>
   <path class="fil6" d="M4516.31 13601.38c38.65,-15.86 164.45,-97.01 214.7,-130.63 46.6,-31.18 72.77,-38.27 119.69,-57.89 46.94,-19.62 67.24,-38.12 108.02,-59.58 94.86,-24.9 277.17,-113.12 379.3,-155.2 225.34,-92.85 542.46,-187.28 779.14,-253.83 128.11,-36.02 285.95,-61.65 409.28,-100.74 -53.77,-16.16 -36.08,17.36 -82.13,-30.32 66.73,-1.13 138.09,-20.74 197.05,-51.61 64.72,-33.87 172.95,-50.1 226.35,-70.75l46.21 -18.01c-90.7,5.75 -32.99,-23.03 -115.74,-30.96l46.49 -3c-14.18,-17.46 21.5,-12.53 -27.63,-15.74l-46.37 -0.29 -650.19 158.81c-437.72,118.35 -1070.72,334.57 -1454.36,576.96 -48.76,30.8 -25,12.85 -41.91,52.64 -41.59,97.83 -52.56,15.47 -96.25,115.08 -18.17,41.45 -8.85,31.16 -48.69,56.16 15.84,14.34 4.57,8.18 37.04,18.9z"/>
   <path class="fil7" d="M8286.38 13027.65c146.75,6.51 184.69,6.31 300.33,39.92 55.47,16.12 55.08,21.88 129.24,32.95 82.49,12.3 141.66,3.06 177.57,24.54 110.51,66.09 193.63,35.52 331.15,106.08l-502.21 -48.65c21.07,21.36 59.43,27.57 72.25,32.31 51.56,19.11 -9.56,4.97 47.16,29.15 6.82,2.9 260.87,23.47 376.3,73.66l2.46 82.41 71.13 23.49c52.12,14.31 98.63,26.49 152.7,40.05 35.92,9.01 124.55,28.35 152.82,40.73 59.23,3.23 68.94,21.74 129.13,25.39 -20.59,-13.59 -9.88,-3.81 -29.41,-14.24l-41.99 -26.78c40.59,-0.57 92.3,10.36 126.24,20.64 -9.7,-18.27 -29.27,-7.27 -56.66,-27.43 27.27,-41.71 11.89,-13.43 47.83,-43.54 -36.16,-39.89 -52.47,-46.07 -111.18,-65.74 12.54,-12.67 15.87,-37.27 86.87,-19.71 42.64,10.55 18.09,12.89 79.07,15.28 -3.92,-0.38 7.45,18.72 -11.56,-7.94 -19.54,-27.41 -2.76,-22.74 -23.45,-47.23l-71.37 -50.32c-53.1,-23.58 -26.23,0.69 -50.14,-62.36 -195.23,-102.09 -940.73,-216.38 -1172.69,-211.49l-205.73 1.03 -5.86 37.8z"/>
   <path class="fil8" d="M7201.12 13040.2l-70.39 11.39c-3.61,0.72 -6.5,1.34 -10.11,2.05l-146.25 27.54 -0.8 50.08c-50.27,1.92 -53.47,6.77 -81.07,24.86 -58.76,38.5 -81.75,30.16 -156.35,56.07 -77.36,26.86 -136.32,26.05 -197.2,40.54 -49.16,11.7 -11.24,-12.76 -42.88,29 55.75,-6.49 156.22,-20.92 198.23,-7.58 66.78,-6.24 25.61,15.31 92.59,-14.56 106.16,-47.34 172.16,-7.83 221.42,-18.38 65.69,-14.06 73.02,-16.45 151.46,-17.39 -26.77,27.11 -37.63,31.84 -91.9,40.75 -37.07,6.08 -62.86,7.31 -96.15,24.43l99.05 25.4c-8.67,-0.46 -36.1,5.24 -48.78,18.71 -36.56,38.84 -16.81,36.29 19.47,46.14 -19.59,12.22 -32.85,19.98 -63.52,23.77l29.46 6.82 22.7 1.63c18.34,-14.99 -28.84,-15.06 35.96,-12.24 8.18,31.05 -1.96,-20.69 -9.02,20.78 -21.36,125.42 -71.84,48.77 76.55,76.45l25.95 8.87 394.55 -41.19c19.16,-1.57 35.03,-5.74 62.69,-5.74 -8.89,-99.5 12.29,-27 11.09,-117.31l-183.08 -2.17c15.52,-7.2 18.81,-6.53 38.29,-12.37 4.97,-1.49 23.75,-6.95 27.89,-8.59 23.94,-9.47 11.3,-1.08 27.52,-13.75l-82.78 -1.57c-10.08,-122.57 -1.58,-92.3 -59.14,-94.66 102.82,-35.94 -7.1,-19.98 61.98,-60.42 53.35,-31.23 109.96,-9.2 21.41,-49.85 26.19,-6.77 25.41,-9.28 57.31,-12.86 0.52,-10.34 0.38,-33.85 3.4,-45.07l22.37 -35.77 -361.92 36.19z"/>
   <path class="fil9" d="M7563.04 13004.01l-22.37 35.77c-3.02,11.22 -2.88,34.73 -3.4,45.07 -31.9,3.58 -31.12,6.09 -57.31,12.86 88.55,40.65 31.94,18.62 -21.41,49.85 -69.08,40.44 40.84,24.48 -61.98,60.42 57.56,2.36 49.06,-27.91 59.14,94.66l82.78 1.57c-16.22,12.67 -3.58,4.28 -27.52,13.75 -4.14,1.64 -22.92,7.1 -27.89,8.59 -19.48,5.84 -22.77,5.17 -38.29,12.37l183.08 2.17c1.2,90.31 -19.98,17.81 -11.09,117.31 25.62,-10.19 46.76,-4.17 70.89,-4.51l166.07 -11.21c17.11,-1.28 16.48,0.22 32.15,-1.49 64.36,-7.03 91.85,-16.77 200.11,-5.66 58.93,6.05 31.91,2.03 94.43,-0.35l110.41 -0.24c-0.74,-94.16 -15.18,-29.93 7.04,-152.35 -94.14,-0.23 -198.18,8.09 -258.31,-26.28 -21.9,-12.52 -29.38,-32.18 -60.03,-44.9l-150.95 -11.06 -1.24 -31.87 0.39 -61.36c-8.65,11.24 -57.41,3.21 117.21,-22.63l48.99 -46.99c16.75,-16.93 11.6,-15.44 8.04,-62.93l-438.94 29.44z"/>
   <path class="fil10" d="M7827.35 13168.48l1.24 31.87 150.95 11.06c30.65,12.72 38.13,32.38 60.03,44.9 60.13,34.37 164.17,26.05 258.31,26.28 -22.22,122.42 -7.78,58.19 -7.04,152.35 44.96,11.82 634.09,42.22 688.61,59.39 73.96,23.29 118.62,18.54 226.77,41.16l335.32 53.97 101.55 -4.09c-20.05,-50.72 -7.98,5.39 -33.31,-29.4 -27.39,-37.61 3.67,-7.08 -12.5,-51.68 -28.27,-12.38 -116.9,-31.72 -152.82,-40.73 -54.07,-13.56 -100.58,-25.74 -152.7,-40.05 -44.71,-10.01 -86.29,-21.86 -127.72,-24.44 -49.59,-3.09 -23.74,2.14 -53.38,-5.18 -5.5,-1.36 -41.52,-9.76 -61.86,-11.55 -9.25,28.58 -0.89,42.13 -8.59,5.67l-18.67 -7.58c-2.95,-0.97 -6.32,-2.25 -9.66,-3.22l-50.86 -10.15c-23.14,-4.05 -46.19,-8.03 -70.69,-11.42l-430.76 -56.51c12.85,-38.36 1.36,-17.11 1.65,-75.3 -33.55,-1.08 -65.98,-9.7 -99.38,-18.84 -53.38,-14.61 -29.02,-18.21 -73.14,-6.94 18.67,-56.05 34.39,-27.24 84.38,-37.5l-545.73 7.93z"/>
   <path class="fil11" d="M7944.95 13084.49c-174.62,25.84 -125.86,33.87 -117.21,22.63l-0.39 61.36 545.73 -7.93c-49.99,10.26 -65.71,-18.55 -84.38,37.5 44.12,-11.27 19.76,-7.67 73.14,6.94 33.4,9.14 65.83,17.76 99.38,18.84 -0.29,58.19 11.2,36.94 -1.65,75.3l430.76 56.51c24.5,3.39 47.55,7.37 70.69,11.42l50.86 10.15c3.34,0.97 6.71,2.25 9.66,3.22l18.67 7.58 8.59 -5.67c20.34,1.79 56.36,10.19 61.86,11.55 29.64,7.32 3.79,2.09 53.38,5.18 41.43,2.58 83.01,14.43 127.72,24.44l-71.13 -23.49 -2.46 -82.41c-115.43,-50.19 -369.48,-70.76 -376.3,-73.66 -56.72,-24.18 4.4,-10.04 -47.16,-29.15 -12.82,-4.74 -51.18,-10.95 -72.25,-32.31l502.21 48.65c-137.52,-70.56 -220.64,-39.99 -331.15,-106.08 -35.91,-21.48 -95.08,-12.24 -177.57,-24.54 -74.16,-11.07 -73.77,-16.83 -129.24,-32.95 -115.64,-33.61 -153.58,-33.41 -300.33,-39.92l-82.3 -0.94c-15.65,23.13 -9.82,37.44 -11.9,38.33l-247.23 19.45z"/>
   <path class="fil12" d="M3943.58 13942.66l-48.82 143.6 4.03 114.13 45.99 92.52 -52.76 -13.7c-45.54,-13.99 -22.68,2.33 -46.47,-36.15l5.84 24.86c0.46,18.92 -5.43,12.07 13.99,32.81 39.39,42.06 3.79,10.4 32.99,19.17 24.01,0 17.83,-5.91 17.83,18.42l5.64 -5.22c15.51,2.34 16.69,2.11 30.95,7.91 26.58,10.81 3.32,0.16 23.6,12.33 9.54,5.72 27.05,18.43 39.16,25.36 53.36,8.66 15.84,-1.14 30.1,18.27l16.97 0.02 164.25 0.86 26.98 -0.88 31.68 -12.52 9.19 0.8 26.01 -14.37 11.49 2.63 23.71 -12.59 18.88 0.86c0,-20.44 -4.88,-14.91 16.31,-14.91l10.09 3.18 131.07 -59.32c53.79,-26.32 76.27,-41.49 133.05,-60.34 27.57,-15.36 55.72,-32.86 85.35,-48.18 42.18,-21.8 60.98,-14.32 82.1,-43.34 -15.1,-12.84 1.86,-11.78 -29.34,-8.93 -22.23,2.03 -6.1,-0.36 -22.93,8.88 -31.61,17.36 4.89,7.88 -43.72,28.5 -7.28,3.09 -63.55,17.64 -66.41,18.26 -94.24,20.17 12.49,20.25 -46.93,3.17l2.71 -26.11c18.39,-29.48 242.84,-158.16 280.34,-176.85 19.18,-9.56 132.31,-63.39 66.73,-78.68 -34.6,-8.08 -47.14,12.76 -47.2,12.79 -66.07,34.93 -59.87,9.68 -120.48,46.86l-121.64 63.19c-23.66,9.3 -40.18,16.55 -66.22,27.79 -80,34.55 -107.88,68.4 -151.64,79.69l-118.85 24.45c-196.07,43.51 -288.62,-20.54 -428.28,-19.28 2.07,-61.89 13.02,-125.81 48.31,-157.54 2.21,-76.62 6.72,-21.35 -23.65,-42.4z"/>
   <path class="fil4" d="M8292.94 12971.6c36.98,2.13 73.8,2.4 110.86,3.19l85.86 10.57c1.47,-2.6 5.71,1.96 8.31,3.46 231.96,-4.89 977.46,109.4 1172.69,211.49 115.97,14.87 287.34,123.77 372.55,119.57 -21.25,-33.54 -108.86,-60.14 -145.81,-73.35 -135.89,-48.59 -108.27,-51.68 -257.14,-94.37 -53.73,-15.41 -46.32,-18.14 -75.35,-45.96 -31.43,-30.12 -120.34,-57.37 -175.38,-61.5 62.72,-24.45 260.64,57.29 329.48,74.7 28.78,7.28 33.97,10.74 53.63,16.13 49.51,13.58 14.51,13.63 61.43,6.05 -85.69,-71.75 -603.27,-188.93 -749.32,-215.43 -294.15,-53.35 -589.29,-68.58 -897.07,-68.83 13.6,9.41 5.37,6.26 29.21,12.75l104.66 6.66c47.05,1.12 86.69,2.54 129.7,8.22 74.05,9.77 190.51,21.08 259.76,21.98 -110.87,6.9 -252.6,-21.93 -321.31,0.33 -2.68,0.87 -5.43,2.51 -8.1,3.43 -2.72,0.94 -5.46,2.57 -8.25,3.49 -2.9,0.95 -5.68,2.36 -8.72,3.22 -56.02,15.82 -115.63,-1.8 -153.59,16.46l159.13 5.03c-39.67,35.26 -65.17,0.85 -77.23,32.71z"/>
   <path class="fil13" d="M10808.62 13622.65l-22.88 13.49 22.88 -13.49zm-1082.21 -92.97c-60.19,-3.65 -69.9,-22.16 -129.13,-25.39 16.17,44.6 -14.89,14.07 12.5,51.68 25.33,34.79 13.26,-21.32 33.31,29.4l-101.55 4.09c56.5,29.73 252.01,52.38 331.38,75.99l350.22 66.99c188.38,21.74 344.41,87.24 516.79,-25.96 70.9,-46.55 52.8,-3.52 72.74,-45.46 19.89,-41.83 -0.44,-32.56 -4.05,-38.37 16.15,-22.04 39.63,-33.71 58.66,-52.58 -12.8,-23.71 2.11,-140.58 4.7,-167.37 3.67,-50.65 -24.06,-115.94 -51.25,-145.89 -44.68,31.98 15.18,3.97 -19.24,0.83 -21.59,-1.97 -14.09,-34.95 -14.68,1.32 -1.67,101.33 28.48,126.69 3.62,172.05 -50.07,91.36 4.94,62.84 -89.54,130.5 -2.8,2.01 -10.59,7.95 -13.49,9.86 -20.47,13.55 -3.77,3.79 -30.1,16.98 -3.22,1.61 -12.82,5.93 -16.08,7.51l-23.69 11.64c-193.03,92.24 -178.89,27.29 -371.62,16.42 -109.8,-6.2 -458.63,-62.71 -519.5,-94.24z"/>
   <path class="fil14" d="M4516.31 13601.38l-144.17 115.13c38.2,7.72 35.22,12.37 54.18,-13.83 33.06,23.46 2.39,11.24 36.23,36.38 35.98,26.72 35.84,9.39 97.5,67.16 1.85,1.73 4.34,4.17 6.15,5.93 10.87,10.5 29.47,38.16 47.9,33.47l-5.67 20.73c0.28,2.83 2.92,9.92 3.4,15.04 19.98,-16.2 46.31,-31.23 71.85,-48.78 27.74,-19.05 53.23,-36.92 82.9,-52.31 1.39,-1.87 3.86,-7.05 4.54,-5.33l134.6 -84.38c37.79,-21.55 133.43,-65.97 150.78,-89.77 -19.09,-54.53 -15.21,8.51 -15.47,-45.46 -0.15,-30.68 4.14,-31.67 13.98,-44.59 -20.49,-11.27 -9.28,-6.24 -47.23,-0.29 15.99,-47.37 4.44,-66.91 -32.82,-133.67l-16.24 -23.53c-40.78,21.46 -61.08,39.96 -108.02,59.58 -46.92,19.62 -73.09,26.71 -119.69,57.89 -50.25,33.62 -176.05,114.77 -214.7,130.63z"/>
   <path class="fil15" d="M7444.02 12533.61l-36.04 2.94c51.99,20.21 17.2,-6.32 34.05,30.21 -12.19,29.12 -33.98,28.66 -123.42,51.21 -10.91,2.75 -20.87,3.67 -29.4,6.07l-223.07 55.32c-7.64,9.47 -3.24,33.94 -70.47,41.28 -11.93,36.63 0.21,-35.43 0.59,10.26 0.07,8.04 4.71,-1.85 -0.59,12.09 -29.47,8.24 -28.91,11.39 -67.03,14.93l24.27 10.25 675.79 -70.65 -32.53 -6.33c77.75,-17.92 24.66,9.39 44.76,-38.08 124.98,-3.01 32.14,4.21 82.13,-34.9l385.24 -21.57 -105.1 -5.1 0.29 -81.22 -96.61 -2.28 -462.86 25.57z"/>
   <path class="fil16" d="M9956.61 12699.17c155.12,32.26 380.66,143.39 497.25,211.85 81.72,47.98 137.48,91.86 204.21,146.55 44.42,36.41 137.84,130.53 162.66,199.24 27.19,29.95 54.92,95.24 51.25,145.89 32.26,2.47 32.9,2.28 54,11.94l4.35 -132.22c-59.88,-248.87 -400.26,-455.17 -614.59,-551.28 -45.63,-20.46 -95.69,-38.68 -140.83,-58.62 -33.46,-14.77 -111.3,-44.69 -152.35,-44.96 -61.9,0.14 -16.82,-4.97 -39.07,12.43 66.04,21.14 81.55,-13.69 84.54,61.8 -47.67,-5.51 -83.55,-35.23 -111.42,-2.62z"/>
   <path class="fil10" d="M8108.3 12596.64l370.82 5.34c61.1,2.75 353.93,28.91 402.84,-3.03 45.72,-29.86 6.56,-24.26 60.62,-45.12l34.84 -11.63c-115.86,-25.02 -854.27,-73.2 -968.12,-43.37l-102.42 9.21 96.61 2.28 -0.29 81.22 105.1 5.1z"/>
   <path class="fil17" d="M6245.55 13140.69c-143.66,5.83 -835.68,271.57 -950.26,348.01 32.82,34.3 -78.57,69.02 -82.08,70.64l257.64 -88.8c50.34,-28.55 443.25,-137.89 510.93,-157.75 70.74,-20.74 176.07,-86.03 257.58,-67.39l58.11 -10.16c55.2,-26.27 124.68,-45.92 192.33,-50.71 -19.47,-1.11 -34.85,0.43 -51.23,-6.15 -43.37,-17.41 -21.81,5.43 -41.19,-36.79l-37.04 6.39c-1.75,0.7 -5.24,2.24 -7.27,3 -3.02,1.13 -12.89,4.49 -16.39,5.56l-141.91 24.08c16.38,-10.93 26.48,-14.54 40.84,-25.71 27.55,-21.4 19.82,10.02 9.94,-14.22z"/>
   <path class="fil18" d="M7628.7 12697.52c47.17,6.59 889.83,4.96 901.38,1.45l49.17 -16.04c4.83,-20.86 13.8,3.62 -14.09,-9.61l-33.77 -13.51c60.6,-4.55 21.53,10.67 37.5,-24.46 -110.85,-1.8 -85.79,-21.01 -89.77,-33.37l-370.82 -5.34 -385.24 21.57c-49.99,39.11 42.85,31.89 -82.13,34.9 -20.1,47.47 32.99,20.16 -44.76,38.08l32.53 6.33z"/>
   <path class="fil19" d="M4121.28 14408.71c5.54,-5.54 66.5,6.38 21.15,6.3l-6.5 -1.53c-1.4,-0.4 -35.01,15.59 -14.65,-4.77zm-105.73 -30.01zm-70.25 -16.92l70.25 16.92zm-70.25 -16.92l3.5 3.5c-0.23,-0.23 -4.66,-2.33 -3.5,-3.5zm-23.46 -11.73zm479.37 0l-479.37 0zm479.37 0c1.07,1.96 44.22,25.15 2.84,6.09 -4.95,-2.28 -2.97,-1.19 -12.93,-9.27 -21.19,0 -16.31,-5.53 -16.31,14.91 -9.16,13.3 33.29,20.36 -8.07,6.82 -0.67,-0.21 -4.46,-2.04 -5.14,-2.34 -0.94,-0.41 -3.83,-3.51 -5.67,-5.34l-23.71 12.59c-10.13,17.3 -2.34,15.84 -11.49,-2.63l-26.01 14.37c-6.35,16.3 1.97,18.84 -9.19,-0.8l-31.68 12.52c-21.01,15.25 -9.05,16.25 -26.98,0.88l-164.25 -0.86c-25.18,23.3 -12.62,8.25 -16.97,-0.02 -14.26,-19.41 23.26,-9.61 -30.1,-18.27 -12.11,-6.93 -29.62,-19.64 -39.16,-25.36 -20.28,-12.17 2.98,-1.52 -23.6,-12.33 -14.26,-5.8 -15.44,-5.57 -30.95,-7.91l0 16.95c-16.49,0 -13.41,3.22 -5.64,-11.73 0,-24.33 6.18,-18.42 -17.83,-18.42 -15.68,22.81 26.61,18.42 -35.19,18.42 25.01,52.13 45.85,77.09 115.48,109.25l75.6 28.42c159.52,35.41 470.51,-64.34 618.21,-137.9l129.49 -57.79c2.08,-1.08 28.61,-15.09 30.94,-16.79 21.83,-15.87 11.92,-5.78 27.51,-26.67l-195.08 -6.45c-56.78,18.85 -79.26,34.02 -133.05,60.34l-131.07 59.32z"/>
   <path class="fil6" d="M5295.29 13488.7l-238.79 112.12c-17.35,23.8 -112.99,68.22 -150.78,89.77l-134.6 84.38c-0.68,-1.72 -3.15,3.46 -4.54,5.33l-0.03 36.82c65.6,-28.69 96.26,-62.59 166.81,-82.7l551.53 -223.73c104.74,-45.92 73.04,-8.27 179.52,-55.95 63.69,-28.52 126.49,-43.58 192.18,-65.13l355.99 -125.92c18.77,-10.58 14.44,-7.76 26.78,-18.29 -81.51,-18.64 -186.84,46.65 -257.58,67.39 -67.68,19.86 -460.59,129.2 -510.93,157.75l-257.64 88.8c3.51,-1.62 114.9,-36.34 82.08,-70.64z"/>
   <path class="fil18" d="M8817.73 12479.97c46.41,28.33 136.22,21.98 195.66,28.08 41.52,-24.11 227.18,4.7 293.48,11.99 -29.97,-20.17 -69.86,-3.63 -74.12,-38.45l3.76 -15.1c-79.92,-6.08 -718.85,-109.04 -751.88,-67.38 -90.07,-0.71 -179.04,-0.71 -269.09,-0.33l-208.58 27.19c25.42,31.02 155.6,13.85 208.85,15.93l601.92 38.07z"/>
   <path class="fil20" d="M6489.8 13184.53c-67.65,4.79 -137.13,24.44 -192.33,50.71 10.16,44.38 3.42,26.7 -5.68,12.04l-35.56 18.34c-2.52,1.61 -5.65,3.34 -8.13,5.12 -2.47,1.77 -5.18,4.02 -7.53,5.9l-12.58 12.67c-63.99,55.4 38.05,-12.27 -17.65,14.63 -45.43,21.94 -47.31,-26.13 -99.46,70.89 142.59,-10.55 245.48,-73.37 385.19,-93.1 31.64,-41.76 -6.28,-17.3 42.88,-29 60.88,-14.49 119.84,-13.68 197.2,-40.54 74.6,-25.91 97.59,-17.57 156.35,-56.07 27.6,-18.09 30.8,-22.94 81.07,-24.86l0.8 -50.08 -484.57 103.35z"/>
   <path class="fil18" d="M7581.56 12882.64l188.37 3.04c-15.22,24.37 -35.05,36.56 -38.14,68.85 89,-3.85 179.1,-9.88 261.11,-7l9.08 27.04 290.96 -2.97c12.06,-31.86 37.56,2.55 77.23,-32.71l-159.13 -5.03c37.96,-18.26 97.57,-0.64 153.59,-16.46 3.04,-0.86 5.82,-2.27 8.72,-3.22 2.79,-0.92 5.53,-2.55 8.25,-3.49 2.67,-0.92 5.42,-2.56 8.1,-3.43 68.71,-22.26 210.44,6.57 321.31,-0.33 -69.25,-0.9 -185.71,-12.21 -259.76,-21.98 -43.01,-5.68 -82.65,-7.1 -129.7,-8.22l-104.66 -6.66c-23.84,-6.49 -15.61,-3.34 -29.21,-12.75l-606.12 25.32z"/>
   <path class="fil21" d="M7761.83 12470.95l219.28 -5.49c138.03,2.92 282.06,-2.06 422.75,1.27 105.73,2.5 326.28,26.3 413.87,13.24l-601.92 -38.07c-53.25,-2.08 -183.43,15.09 -208.85,-15.93l208.58 -27.19c90.05,-0.38 179.02,-0.38 269.09,0.33 6.01,0.13 33,1.75 37.3,1.07 19.18,-3.07 2.06,1.55 21.81,-4.76 30.31,-9.67 13.2,-0.71 33.32,-16.38 -89.95,-29.67 -381.96,-11.73 -506.17,-11.73 -58.28,28.59 -186.15,-0.25 -384.01,70.4 18.27,14.09 6.89,7.19 28.78,15.86l46.17 17.38z"/>
   <path class="fil22" d="M6976.66 13043.55c-105.61,47.81 -184.13,9.7 -304.06,29.19 -58.7,9.54 -214.26,54.82 -269.12,44.71 44.88,-12.83 88.97,-28.86 138.01,-41.11 125.14,-31.24 150.57,-24.99 112.01,-42.98 -78.26,7.54 -355.5,70.13 -407.95,107.33 9.88,24.24 17.61,-7.18 -9.94,14.22 -14.36,11.17 -24.46,14.78 -40.84,25.71l141.91 -24.08c3.5,-1.07 13.37,-4.43 16.39,-5.56 2.03,-0.76 5.52,-2.3 7.27,-3l37.04 -6.39c19.38,42.22 -2.18,19.38 41.19,36.79 16.38,6.58 31.76,5.04 51.23,6.15l484.57 -103.35 146.25 -27.54c3.61,-0.71 6.5,-1.33 10.11,-2.05l70.39 -11.39c-59.33,2.63 -34.22,-12.95 -103.02,-5.12 -42.15,4.79 -81.65,1.95 -121.44,8.47z"/>
   <path class="fil23" d="M8484.63 12399.11c33.03,-41.66 671.96,61.3 751.88,67.38l-3.76 15.1c4.26,34.82 44.15,18.28 74.12,38.45 -66.3,-7.29 -251.96,-36.1 -293.48,-11.99l331.45 48.07 200.31 32.97c38.22,-22.49 146.9,16.85 199.72,22.65 -34.72,-45.85 -29.74,-24.23 -91.32,-45.22 -57.44,-19.58 -21.53,-29.26 -101.02,-46.43l-185.21 -38.47c-50.25,-11.33 -34.2,0.16 -55.87,-32.19 -46.74,-1.37 -116.25,-17.66 -168.78,-23.47 -60.65,-6.71 -130.34,-16.77 -188.81,-22.37 -128.31,-12.29 -236.3,-24.55 -376.8,-24.55 -20.12,15.67 -3.01,6.71 -33.32,16.38 -19.75,6.31 -2.63,1.69 -21.81,4.76 -4.3,0.68 -31.29,-0.94 -37.3,-1.07z"/>
   <path class="fil23" d="M10043.21 13319.88l212.6 16.41c-18.04,-24.91 -20.59,-18.45 -43.96,-32.35 -38.09,-22.65 -57.21,9.75 -28.95,-32.43 -94.45,-28.87 -258.46,-126.96 -348.83,-129.93 -46.92,7.58 -11.92,7.53 -61.43,-6.05 -19.66,-5.39 -24.85,-8.85 -53.63,-16.13 -68.84,-17.41 -266.76,-99.15 -329.48,-74.7 55.04,4.13 143.95,31.38 175.38,61.5 29.03,27.82 21.62,30.55 75.35,45.96 148.87,42.69 121.25,45.78 257.14,94.37 36.95,13.21 124.56,39.81 145.81,73.35z"/>
   <path class="fil24" d="M4372.14 13716.51c-57.95,37.48 -53.98,49.45 -100.26,105.25l25.45 -0.16c-2.93,2.38 -20.87,-43.12 -1.77,16.05l165.96 122.97c-1.08,-0.95 3.98,-30.29 -9.45,0.35l0.75 22.71c36.8,-12.38 60.06,-24.3 87.67,-47.18 3.87,-3.21 27.36,-23.62 38.52,-31.78 24.11,-17.62 11.37,-0.43 32.82,-23.33 -0.48,-5.12 -3.12,-12.21 -3.4,-15.04l5.67 -20.73c-18.43,4.69 -37.03,-22.97 -47.9,-33.47 -1.81,-1.76 -4.3,-4.2 -6.15,-5.93 -61.66,-57.77 -61.52,-40.44 -97.5,-67.16 -33.84,-25.14 -3.17,-12.92 -36.23,-36.38 -18.96,26.2 -15.98,21.55 -54.18,13.83z"/>
   <path class="fil15" d="M6976.66 13043.55c39.79,-6.52 79.29,-3.68 121.44,-8.47 68.8,-7.83 43.69,7.75 103.02,5.12l361.92 -36.19 438.94 -29.44 -9.08 -27.04c-82.01,-2.88 -172.11,3.15 -261.11,7 -145.49,7.19 -223.26,12.47 -377.25,20.25l-8.99 -34.94c-51.65,14.68 -150.34,26.86 -200.47,36.18 -73.5,13.67 -125.3,28.98 -200.7,33.77 52.03,-9.02 21.2,-1.96 32.28,33.76z"/>
   <path class="fil25" d="M9545.15 12589.09l193.88 46.14 217.58 63.94c27.87,-32.61 63.75,-2.89 111.42,2.62 -2.99,-75.49 -18.5,-40.66 -84.54,-61.8 22.25,-17.4 -22.83,-12.29 39.07,-12.43l-74.52 -33.28c-160.11,-50.63 -636.31,-144.74 -636.59,-144.85 21.67,32.35 5.62,20.86 55.87,32.19l185.21 38.47c79.49,17.17 43.58,26.85 101.02,46.43 61.58,20.99 56.6,-0.63 91.32,45.22 -52.82,-5.8 -161.5,-45.14 -199.72,-22.65z"/>
   <path class="fil26" d="M6694.3 13274.15c-44.54,11.99 -81.4,15.21 -122.76,26.87 -97.6,27.53 -8.15,25.3 -85.2,55.56 -71.17,27.95 -167.99,21.95 -223.03,83.24 104.14,-6.3 480.5,-129.43 708.41,-150.82 33.29,-17.12 59.08,-18.35 96.15,-24.43 54.27,-8.91 65.13,-13.64 91.9,-40.75 -78.44,0.94 -85.77,3.33 -151.46,17.39 -49.26,10.55 -115.26,-28.96 -221.42,18.38 -66.98,29.87 -25.81,8.32 -92.59,14.56z"/>
   <path class="fil11" d="M8009.3 12498.83c113.85,-29.83 852.26,18.35 968.12,43.37 62.34,12.49 250.18,39.45 304.9,31.4 30.65,-9.65 30.51,-10.18 62.52,-17.48l-331.45 -48.07c-59.44,-6.1 -149.25,0.25 -195.66,-28.08 -87.59,13.06 -308.14,-10.74 -413.87,-13.24 -140.69,-3.33 -284.72,1.65 -422.75,-1.27l11.79 1.48c18.49,18.37 11.65,-27.1 16.4,31.89z"/>
   <path class="fil22" d="M6526.44 12843.51l426.47 -75.34 -24.27 -10.25c38.12,-3.54 37.56,-6.69 67.03,-14.93 5.3,-13.94 0.66,-4.05 0.59,-12.09 -0.38,-45.69 -12.52,26.37 -0.59,-10.26 67.23,-7.34 62.83,-31.81 70.47,-41.28l-7.7 -1.61 -144.52 -4.93 -46.21 18.01c-53.4,20.65 -161.63,36.88 -226.35,70.75 -58.96,30.87 -130.32,50.48 -197.05,51.61 46.05,47.68 28.36,14.16 82.13,30.32z"/>
   <path class="fil15" d="M7540.46 12390.78c-13.51,15.66 0.88,6.79 -22.39,16.36 -60.2,24.75 -109.97,4.9 -200.74,72.82 -1.65,1.23 -4.99,3.72 -7.4,5.68l276.37 -4.15 175.53 -10.54 -46.17 -17.38c-21.89,-8.67 -10.51,-1.77 -28.78,-15.86 197.86,-70.65 325.73,-41.81 384.01,-70.4 -81.08,0 -199.1,-6.89 -275.72,1.71 -64.53,7.25 -199.48,5.49 -254.71,21.76z"/>
   <path class="fil27" d="M6949.35 12969.13c-71.49,7.93 -241.2,33.76 -295.85,64.23 38.56,17.99 13.13,11.74 -112.01,42.98 -49.04,12.25 -93.13,28.28 -138.01,41.11 54.86,10.11 210.42,-35.17 269.12,-44.71 119.93,-19.49 198.45,18.62 304.06,-29.19 -11.08,-35.72 19.75,-42.78 -32.28,-33.76 75.4,-4.79 127.2,-20.1 200.7,-33.77 50.13,-9.32 148.82,-21.5 200.47,-36.18l33.74 -5.17c-81.18,-0.57 -151.55,9.03 -220.36,17.66 -73.2,9.17 -125.06,27.96 -209.58,16.8z"/>
   <path class="fil21" d="M6949.35 12969.13c84.52,11.16 136.38,-7.63 209.58,-16.8 68.81,-8.63 139.18,-18.23 220.36,-17.66l-33.74 5.17 8.99 34.94c153.99,-7.78 231.76,-13.06 377.25,-20.25 3.09,-32.29 22.92,-44.48 38.14,-68.85l-188.37 -3.04c-104.88,15.64 -213.9,19.88 -325.05,36 -98.15,14.25 -214.79,42.32 -307.16,50.49z"/>
   <path class="fil28" d="M6455.99 12556.56c144.21,-8.92 259.78,-55.05 399.44,-62.09 -2.02,2.25 -5.63,2.15 -6.79,5.99l-79.46 62.08c-1.74,1.53 -4.63,3.58 -6.41,5.07 -54.44,45.44 -25.36,-8.19 -34.21,32.48l478.34 -82.64c-123.7,35.56 2.12,-37.96 -93.47,-54.4 -31.87,-5.48 -120.63,-7.73 -152.96,-4.96l-496.71 94.04c-1.78,0.86 -5.35,2.69 -7.77,4.43z"/>
   <path class="fil27" d="M6960.47 12458.09c32.33,-2.77 121.09,-0.52 152.96,4.96 95.59,16.44 -30.23,89.96 93.47,54.4l226.46 -22.51 152.94 -13.45 -276.37 4.15c2.41,-1.96 5.75,-4.45 7.4,-5.68 90.77,-67.92 140.54,-48.07 200.74,-72.82 23.27,-9.57 8.88,-0.7 22.39,-16.36 -89.62,0 -536.19,46.81 -579.99,67.31z"/>
   <path class="fil29" d="M4205.06 13962.94c3.94,-7.06 13.04,-32.1 17.52,-43.07 50.07,42.88 32.88,50.9 57.92,69.21 61.09,44.69 -39.6,-15.01 13.38,7.39 11.28,4.76 32.87,6.88 50.26,13.4 -28.21,35.03 45.55,39.62 -58.67,34.67 54.96,10.95 137.52,-13.94 167.35,-60.86l-0.75 -22.71c13.43,-30.64 8.37,-1.3 9.45,-0.35l-165.96 -122.97c-19.1,-59.17 -1.16,-13.67 1.77,-16.05l-25.45 0.16c-33.31,-6.83 -6.78,-8.63 -27.31,17.47 -0.89,1.14 -19.72,34.1 -21.52,37.95 -12.18,26.12 -19.18,56.08 -17.99,85.76z"/>
   <path class="fil10" d="M7944.95 13084.49l247.23 -19.45c2.08,-0.89 -3.75,-15.2 11.9,-38.33l82.3 0.94 5.86 -37.8 205.73 -1.03c-2.6,-1.5 -6.84,-6.06 -8.31,-3.46l-85.86 -10.57c-37.06,-0.79 -73.88,-1.06 -110.86,-3.19l-290.96 2.97c3.56,47.49 8.71,46 -8.04,62.93l-48.99 46.99z"/>
   <path class="fil30" d="M6817.04 12623.12c49.13,3.21 13.45,-1.72 27.63,15.74l-46.49 3c82.75,7.93 25.04,36.71 115.74,30.96l144.52 4.93 114.7 -49.97c18.27,-9.71 10.97,-4.74 23.11,-15.17 -60.26,-14.07 -34.01,-7.88 -42.55,-50.9 -104.96,28.32 -247.74,16.12 -336.66,61.41z"/>
   <path class="fil9" d="M7761.83 12470.95l-175.53 10.54 -152.94 13.45c-14.4,23.25 11.83,8.86 -12,21.51 46.41,-0.07 3.7,-3.18 22.66,17.16l462.86 -25.57 102.42 -9.21c-4.75,-58.99 2.09,-13.52 -16.4,-31.89l-11.79 -1.48 -219.28 5.49z"/>
   <path class="fil8" d="M7153.7 12561.71c8.54,43.02 -17.71,36.83 42.55,50.9 -12.14,10.43 -4.84,5.46 -23.11,15.17l-114.7 49.97 7.7 1.61 223.07 -55.32c8.53,-2.4 18.49,-3.32 29.4,-6.07 89.44,-22.55 111.23,-22.09 123.42,-51.21 -16.85,-36.53 17.94,-10 -34.05,-30.21 -56.92,-8.79 -201.43,8.8 -254.28,25.16z"/>
   <path class="fil26" d="M7206.9 12517.45l-478.34 82.64 -25.84 3.96 67.95 18.78 46.37 0.29c88.92,-45.29 231.7,-33.09 336.66,-61.41 52.85,-16.36 197.36,-33.95 254.28,-25.16l36.04 -2.94c-18.96,-20.34 23.75,-17.23 -22.66,-17.16 23.83,-12.65 -2.4,1.74 12,-21.51l-226.46 22.51z"/>
   <path class="fil1" d="M3851.39 14267.92l-5.84 -24.86c23.79,38.48 0.93,22.16 46.47,36.15l52.76 13.7 -45.99 -92.52c-8.85,30.27 4.79,8.36 -15.71,26.4l-49.59 -56.39c-11.08,-19.1 -16,-61.13 -20.21,-83.75 1.31,-164.74 74.55,-245.5 140.99,-346.67 -101.86,80.5 -267.85,424.27 -102.88,527.94z"/>
   <path class="fil7" d="M9282.32 12573.6l435.92 93.72c26.61,-3.58 1.15,-4.98 -16.71,-22.63 48.19,0.48 27.76,-3.93 37.5,-9.46l-193.88 -46.14 -200.31 -32.97c-32.01,7.3 -31.87,7.83 -62.52,17.48z"/>
   <path class="fil23" d="M10871.98 13402.7c-2.59,26.79 -17.5,143.66 -4.7,167.37 25.85,-25.99 31.07,-26.23 45.51,-54.69 9.7,-19.13 19.37,-46.87 25.46,-68.17 17.4,-60.89 13.8,-110.08 -7.92,-164.79l-4.35 132.22c-21.1,-9.66 -21.74,-9.47 -54,-11.94z"/>
   <path class="fil31" d="M4205.06 13962.94c9.09,58.42 29.13,65.95 80.41,81.6 104.22,4.95 30.46,0.36 58.67,-34.67 -17.39,-6.52 -38.98,-8.64 -50.26,-13.4 -52.98,-22.4 47.71,37.3 -13.38,-7.39 -25.04,-18.31 -7.85,-26.33 -57.92,-69.21 -4.48,10.97 -13.58,36.01 -17.52,43.07z"/>
   <path class="fil4" d="M10364.25 13491.73c-41.9,-24.24 -133.9,-13.82 -205.59,-13.53 2.26,2.74 5.55,3.39 6.82,8.22 8.17,31.04 145.44,80.5 198.77,5.31z"/>
   <path class="fil30" d="M3898.79 14200.39l-4.03 -114.13c-22.13,44.59 -15.98,44.56 -13.62,98.06 -5.91,-12.02 -17.61,-34.95 -25.15,-48.48 -26.69,-47.84 -3.16,-27.85 -42.71,-49.19 4.21,22.62 9.13,64.65 20.21,83.75l49.59 56.39c20.5,-18.04 6.86,3.87 15.71,-26.4z"/>
  </g>
 </g>
</svg>
