<?xml version="1.0" encoding="UTF-8"?>
<!DOCTYPE svg PUBLIC "-//W3C//DTD SVG 1.1//EN" "http://www.w3.org/Graphics/SVG/1.1/DTD/svg11.dtd">
<!-- Creator: CorelDRAW 2026 (Evaluation Version) -->
<svg xmlns="http://www.w3.org/2000/svg" xml:space="preserve" width="210mm" height="297mm" version="1.1" style="shape-rendering:geometricPrecision; text-rendering:geometricPrecision; image-rendering:optimizeQuality; fill-rule:evenodd; clip-rule:evenodd"
viewBox="0 0 21000 29700"
 xmlns:xlink="http://www.w3.org/1999/xlink"
 xmlns:xodm="http://www.corel.com/coreldraw/odm/2003">
 <defs>
  <style type="text/css">
   <![CDATA[
    .fil9 {fill:#010577}
    .fil5 {fill:#013583}
    .fil21 {fill:#0211CF}
    .fil10 {fill:#0235C8}
    .fil11 {fill:#023AA6}
    .fil6 {fill:#0249D8}
    .fil19 {fill:#024AC6}
    .fil8 {fill:#0358E7}
    .fil1 {fill:#0A0D19}
    .fil4 {fill:#0D182D}
    .fil0 {fill:#111522}
    .fil12 {fill:#13346D}
    .fil3 {fill:#191C2B}
    .fil22 {fill:#19325A}
    .fil15 {fill:#2A324E}
    .fil7 {fill:#2AB4FE}
    .fil20 {fill:#69F5FD}
    .fil18 {fill:#78F6FE}
    .fil16 {fill:#87F7FE}
    .fil14 {fill:#B8F9FD}
    .fil2 {fill:#CCECFD}
    .fil17 {fill:#ECFCFE}
    .fil13 {fill:#F4FDFE}
   ]]>
  </style>
 </defs>
 <g id="Layer_x0020_1">
  <metadata id="CorelCorpID_0Corel-Layer"/>
  <g id="_2722321535840">
   <path class="fil0" d="M7339.51 7146.29l70.49 104.52c133.12,-66.47 541.67,-239.89 689.25,-257.97 -69.11,76.01 -116.98,76.3 -234.12,145.13 -53.51,31.44 -29.13,4.68 -68.76,46.19 -193.48,202.63 -545.42,249.33 -721.82,475.98 -89.11,114.5 -34.58,287.06 33.59,411.3 28.78,52.44 32.56,39.99 49.85,107.38 53.75,209.44 56.33,148.22 88.45,239.28 24.97,70.82 2.54,50.53 55.97,186.19 23.61,59.95 7.65,58.91 58.74,169.5 40.43,87.54 74.26,231.75 108.51,333.75 20.1,59.83 66.31,328.61 104.56,409.3 33.68,71.04 43.43,166.27 60.15,255.61 8.42,45.04 12.41,88.8 27.47,128.19 17.32,45.33 29.43,57.37 44.99,111.83 17.81,62.39 57.73,200 62.71,252.76 21.41,226.85 26.79,110.77 49.03,279.67 25.81,195.93 34.69,90.25 49.28,191.39 3.23,22.37 0.76,44.42 4.05,68.21 6.28,45.5 28.47,73.63 36.19,119.74l90.21 466.57c55.06,207.39 65.08,400.75 111.46,602.73 11.35,49.43 23.87,71.8 35.92,120.04 51.13,204.77 7.42,190.35 79.58,405.46l31.8 284.75c5.23,55.1 17.63,61.17 30.4,124.17 22.4,110.55 -8.93,100.12 33.47,280.45l35.78 280.21c6.27,88.5 41.36,178.55 51.59,260.78 6.66,53.53 1.18,92.36 11.64,145.07 9.18,46.3 20.49,78.89 28.74,127.92 19.83,117.85 -7,182.4 36.12,278.04 24.89,55.21 8.55,2.24 29.94,55.03 12.58,31.08 11.5,18.78 10.5,60.95 -1.79,75.79 -14,43.76 -0.22,133.93l-44.89 -6.06c-36.84,27.65 -34.48,-41.9 -29.04,44.27 0.49,116.13 10.42,127.74 75.11,182.19 389,327.36 792.48,307.99 917.15,396.2 77.62,54.91 169.88,62.54 378.17,81.67 12.68,36.48 -2.69,-32.67 -3.01,19.75 -0.01,1.05 0.41,6.07 0.44,6.98l2.57 15.76c73.43,8.18 178.7,87.04 192.84,116.61 1.52,3.2 2.11,7.51 3.49,10.9 14.12,34.93 -9.53,10.52 16.37,42.46 20.81,25.67 43.31,23.05 82.3,26.57 23.78,-271.54 65.78,-576.57 373.21,-687.4 531.06,-191.44 2239.68,-197.25 2488.78,-639.77l-62.58 -134.46c-16.82,56.76 -22.1,49.99 -55.03,84.28 -43.5,-34.96 -3.29,-22.14 -57.08,-52.13 -51.73,22.77 -110.79,79.08 -113.45,-25.38 -3.27,-128.89 127.31,-80.03 7.85,-280.23 -47.98,-80.43 -14.55,-142.82 -28.28,-241.25 -40.05,-287.23 -15.4,-546.05 -37.28,-848.73 -5.27,-72.86 -26.2,-114.74 -27.82,-199.75l-35.6 -407.85c-13.5,-53.67 -13.38,-20.6 -21.53,-91.64 -4.92,-42.91 -6.84,-54.46 -11.05,-88.83 -16.71,-136.6 -34.35,-257.3 -54.58,-388.34 -5.52,-35.75 -3.76,-69.91 -11.54,-103.28 -28.21,-121.08 -33.15,-134.63 -37.87,-290.33 -26.39,-19.62 -28.91,-2.55 -51.25,-35.06l-50.94 -161.39c-31.3,-118.63 4.7,-431.1 -20.15,-580.43 -48.44,-291.09 -12.37,-1283.15 -46.82,-1721.14 -23.37,-297.09 -44.12,-1123.84 -44.8,-1426.05 -0.5,-229.61 -33.02,-148.18 33.09,-338.54 22.4,-64.51 -15.9,-75.08 -20.82,-188.68l-468.82 -60.75 -67.87 -71.61c-43.43,-28.37 -87.04,-31.85 -146.74,-39.06 -39.97,-4.83 -331.59,-34.5 -343.09,-39.58 363.55,-3.64 634.1,-3.12 992.7,39.89 61.55,7.38 92.1,2.24 146.96,-8.53 51.91,-10.18 75.94,-26.55 113.79,-57.86 -592.4,-97.75 -739.17,-137.83 -1394.95,-110.63 -1300.13,53.94 -2595.41,339.61 -3723.45,853.16z"/>
   <path class="fil1" d="M8389.11 18433.35c-67.08,-49.86 -133.71,-93.58 -201.91,-141.99 -211.47,-150.09 -289.79,-172.86 -277.87,-450.38 9.41,-219.02 107.15,-663.89 167.12,-881.34 24.48,-88.75 55.78,-202.2 76.04,-279.16 15.1,-57.35 21.46,-83.84 36.32,-137.19 14.25,-51.16 28.94,-93.6 34.61,-142.46 40.47,17.87 46.38,-12.66 95.5,106.61 34.05,82.67 142.71,241.54 188.55,321.55 78.84,137.63 165.19,268.6 224.47,443.27 132.83,391.44 130,751.22 123.59,1204.43 9.56,-240.63 -36.44,-722.62 -85.3,-961.99 -76,-372.37 -175.93,-464.92 -329.95,-732.64l-36.67 43.13c-10.91,12.76 -23.32,24.65 -32.43,38.05 -32.82,48.27 -21.2,38.53 -27.52,105.79 -7.8,83.17 -24.93,206.7 -59.45,279.37 -45.96,96.76 -31.8,72.56 -58.02,215.3 -0.4,2.14 -4.36,47.6 -4.57,51.77 -0.33,6.82 -6.01,71.39 -8.19,106.38 -2.77,44.37 -10.58,158.03 -10.67,234.59 -0.1,83.4 -49.42,313.43 70.17,449.71l116.18 127.2zm172.72 -1679.93c-80.72,-153.6 -261.36,-300.77 -300.82,-425.81 -21.86,-69.24 7.79,-261.06 18.23,-354.07 14.54,-129.56 -13.7,-207.52 103.44,-255.46 70.99,76.58 74.78,139.55 131.06,219.11 -10.66,0.28 -23.99,-0.48 -35.15,2.25l-44.61 18.97c30.63,66 68.8,94.84 111.83,142.69 -44.18,82.66 -19.3,90.17 -30.33,197.19 -6,58.33 -16.53,28.3 -0.84,95.27 14.46,61.73 26.61,5.98 -3.49,66.43 -90.39,181.55 -10.51,141.99 50.68,293.43zm-305.67 -1213.84c15.48,86.67 23.87,58.99 -21.55,130.05 -27.26,42.64 -36.13,68.88 -46.2,123.82 -18.9,103.01 -26.81,216.87 -33.87,321.37 -23.63,350.05 -182.45,783.44 -263.63,1139.3 -22.13,97.06 -41.55,195.41 -56.92,296.86 -14.77,97.52 -20.14,227.5 -42.02,314.78 7.78,27.61 12.12,94.87 34.11,117.53 32.84,33.84 6.05,6.13 46.12,15.06 26.73,5.96 -2.37,-34.56 31.32,19.43l50.85 92.11c30.49,52.31 13.63,56.08 37.98,105.07 93.87,188.82 232,188.31 266.51,300.11 63.31,62.75 252.6,172.46 345.27,230.43 358.69,224.36 724.49,446.73 1071.99,697.21 474.54,342.06 875.24,623.42 1528.76,840.49 980.58,325.71 2106.91,376.2 3153.87,197.57 178.49,-30.45 828.73,-178.84 899.47,-268.62 13,-57.11 0.73,-49.69 103.01,-114.81 113.04,-71.96 97.94,-186.82 169.78,-229.69 42.5,-25.37 34.43,11.38 53.76,-37.46 7.9,-19.95 1.62,-43.42 15.92,-75.96 16.12,-534.56 -345.66,-998.26 -712.12,-1285.94 -244.14,-191.65 -120.49,-65.62 -350.33,-318.46 -69.39,23.23 0.52,-6.9 -36.15,18.39 -171.63,118.34 49.6,139.61 -449.4,138.19 39.9,35.24 99.39,42.23 160.28,55.79 104.27,23.21 289.97,-37.95 531.52,135.15l159.75 125.57c142.69,105.27 53.61,64.76 199.59,187.24 37.42,31.39 23.75,33.14 66.32,91.03 1.77,2.4 4.39,5.66 6.15,8.06 1.78,2.41 4.28,5.77 6.05,8.19 1.78,2.43 4.17,5.9 5.94,8.34 93.68,129.59 141.74,206.22 200.11,371.24 69.33,195.99 145.59,473.61 55.18,656.74 -49.94,-40.21 -28.25,-3.08 -44.26,-70.57l4.82 -186.28c16.34,33.8 19.16,101.77 3.86,143.76 -1.65,4.53 -3.25,7.72 -5.22,11.79l-13.1 19c-70.01,97.2 -3.21,70.04 -44.15,127.11 -51.7,72.05 -174.65,113.39 -257.78,132.57l108.05 -96.65c56.67,-39.82 68.44,-68.45 70.25,-152 11.5,0.42 -18.35,-6.65 6.28,10.45 30.87,21.42 -20.01,15.86 14.42,3.82 11.35,-42.25 25.25,-75.79 44.96,-112.49 25.27,-47.07 33.88,-24.8 16.42,-106.33 -108.65,-507.45 -123.43,-286.61 -180.12,-389.14 -1.25,-2.26 -3.02,-6.35 -4.2,-8.88 -1.72,-3.67 -6.43,-15.83 -8,-20.04 -24.69,-66.17 -40.01,-92.29 -45.63,-172.13l-46.82 -24.13c-2.45,-2.62 -8.93,-12.08 -11.37,-15.24 -23.15,-30.07 -32.8,-38.94 -51.56,-63.71 -188.13,43.04 -72.66,92.89 -181.32,173.16 13.22,29.66 29.67,19.36 25.1,55.91 -4.34,34.71 -9.15,-37.59 -6.11,37.66 0.95,23.66 -3.72,5.5 9.32,34.25 -78.87,-1.48 -69.85,-17.56 -90.5,28.12 -14.67,32.43 14.24,-2.6 -14.92,40.42l-12.97 14.14c-1.53,1.91 -5.11,4.88 -6.53,6.77l-12.95 28.65c-0.17,1.85 0.43,6.2 0.47,8.13 1.48,84.31 -16.68,64.75 -21.27,129.46 -72.46,-0.78 -68.12,-16.6 -85.34,28.87 -62.3,23.94 -3.06,-13.62 -33.09,52.53 -1.4,3.1 -2.65,7.33 -4.07,10.3l-35.72 73.87c0.02,0.31 10.49,28.65 11.68,58.94 -32.72,0.8 -41.58,7.19 -58.9,11.89 -56.25,15.25 -78.41,-1.85 -128.94,44.15l-127.63 69.64c-4.17,-12.4 -8.76,5.04 0.92,-15.86 0.95,-2.03 10.5,-8.46 11.42,-14.55 0.74,-4.88 5.5,-5.16 8.1,-7.89 -67.29,0.48 -50.76,14.43 -88.21,-0.6 31.96,-48.65 22.37,-29.84 68.98,-57.74 -21.06,-34.66 -37.88,-45.48 -16.91,-76.43 -43.93,3.28 -21.84,0.52 -58.63,28.17 -0.49,0.37 -21.43,17.01 -23.76,19.27 -35.64,34.43 -56.58,87.69 -83.39,128.9 -91.24,0.97 -163.46,-79.46 -228.31,-12.07 -32.6,-58.75 -81.95,-34.4 -142.36,-16.12 -75.83,22.94 -47.74,79.65 -121.55,65.33 -2.36,-0.46 -32.09,-17.5 -34.76,-19.04 -2.78,78.15 23.67,40.28 -10.19,76.31 -14.47,15.39 -42.45,26.86 -65.32,31.73 -106.8,22.75 -83.75,-37.72 -129.54,42.76 -25.61,-66.96 15.26,-25.22 -61.47,-44.93 -19.56,-5.03 -20.69,-2.47 -46.2,-10.6 -29.5,-9.39 -10.94,-0.8 -28.53,-13.18 -2.45,3.02 -4.04,8.31 -5.27,10.4l-10.35 18.4c-27.41,36.45 11.1,3.43 -16.95,16.02l-54.86 -1.29c-0.99,-0.11 -4.71,-0.23 -5.58,-0.36l-43.95 -16.51c-140.23,-11.9 -76.39,12.81 -135.59,-97.13 -26.94,26.84 -17.34,70.34 -16.93,65.61 0.1,-1.12 2.34,2.58 1.89,3.98 -46.61,19.05 -32.18,0.16 -89.56,-8.71 -58.76,-9.1 -28.56,4.88 -95.94,6.67 -16.64,-42.41 -42.79,-37.97 -80.45,-29.41 40.2,-52.36 40.81,-54.88 -3.44,-74.92 -76.5,-34.66 -42.76,-36.61 -83.06,-53.68 -94.62,-40.07 -31.61,30.45 -109.84,-18.18 -61.66,-38.34 -17.85,-20.56 -108.49,-21.35 -0.84,-1.83 -0.38,-5.17 -0.51,-6.02l-3.87 -22.2c-7.84,-32.06 2.39,-9.05 -9.89,-29.19 -36.51,2.08 -23.45,2.03 -48.45,10.45 -25.06,8.44 11.26,1.67 -37.16,18.25 -18.53,-13.78 -35.61,-24.31 -57.45,-40.5l-117.01 -57.43c-35.67,-9.12 -12.85,-10.58 -63.5,-18.34 1.63,-18.54 9.27,-35.36 9.29,-35.49 3.19,-18.19 9.64,3.74 0.36,-20.68 -60.34,-26.98 -72.01,18.05 -134.79,-97.97 -30.39,-56.19 6.68,42.09 -3.69,-31.3 -0.2,-1.39 -0.63,-5.74 -0.92,-7.12 -0.3,-1.38 -1.69,-5.53 -2.09,-6.88l-6.07 -12.45c-15.66,-43.36 46.01,-17.73 -51.77,-69.59 11.11,-44.07 18.79,-39.1 28.86,-85.39 -34.34,8.32 -24.09,6.55 -58.28,15.53 16.87,-26.49 24.28,-41.44 15.42,-56.85 -43.85,63.44 -51.75,39.17 -115.35,69.73 -11.49,5.52 -74.36,63.56 -78.81,44.49 -5.41,-23.18 -121.8,135.4 -135.08,155.18 -100.61,149.8 -54.52,100.38 -127.38,132.83 84.89,-189.14 196.63,-270.68 278.66,-394.57 91.62,-138.38 200.82,-232.69 327.11,-329.98 -37.63,-15.91 -22.46,-1.22 -64.07,-13.84 -72.54,-21.99 -91.04,-62.91 -185.61,-64.45 0,-76.91 -14.27,-109.31 -14.27,-185.43l-63.14 -31.67c-2.31,-1.09 -9.13,-0.56 -10.86,-5.45 -1.83,-5.17 -7.86,-3.47 -11.53,-5.69 -0.19,-89.78 23.42,-86.13 -42.89,-114.22l29.39 -64.89c18.46,-83.47 -16.73,-69.38 -20.35,-76l-20.04 -109.17c-9.34,-49.07 2.04,-37.46 -17.54,-49.6l-77.95 -85.29c-51.6,-85.19 -106.74,-10.89 -164.63,-57.41 -18.13,-14.57 -74.42,-175.37 -72.03,-226.91 0.13,-2.8 1.06,-7.09 1.39,-9.8l8.44 -44.76c4.87,-150.8 -55.86,-170.22 -37.52,-266.28 14.88,-77.98 2.24,-85.19 -14.51,-165.71 -68.68,0 -139.58,2.4 -194.82,-29.37 -61.51,-35.39 -26.46,12.51 -56.56,-69.73 -22.83,-62.4 -61.11,-92.77 -77.96,-161.38l-3.55 -21.91c-0.35,-4.68 1.47,-30.74 1.83,-35.9 2.47,-34.74 9.91,-75.31 -4.08,-106.91 -1.13,-2.54 -3.49,-5.79 -4.82,-8.28 -16.8,-31.55 -24.09,-7.14 -30.97,-51.61 -7.77,-50.29 54.27,-160.6 77.09,-203.86 36.68,-69.52 79.9,-93.01 108.42,-167.07 51.21,0 70.68,-3.35 108.05,-13.97 51.22,-14.56 27.31,6.66 35.3,-33.1l194.09 -18.53 126.19 -9.77c9.72,-12.66 25.53,-30.36 35.46,-37.76l153.9 -80.36 -127.43 4.07 -654.79 18.41c-325.61,0.63 -170.08,-96.38 -204.79,-357.03l-76.63 -11.12c-7.82,73.19 3.36,65.68 -54.44,94.39 -31.76,15.77 -73.86,24.03 -121.32,13.22 -58.17,-13.27 -58.48,-40.93 -93.44,-51.33 -30.71,-9.15 -83.98,-2.58 -119.31,-2.43 -41.57,-73.83 -45.59,-150.84 -61.63,-235.75 -57.68,4.04 -45.71,12.39 -83.09,42.03 -105.97,-10.15 -115.27,16.32 -197.25,25.95 -273.57,32.14 -170.72,1.02 -399.77,-15.36 -271.04,-19.38 -243.29,-50.09 -365.94,-77.4 -72.67,-16.18 -110.11,-19.26 -175.77,-38.69 -57.91,-17.15 -351.33,-136.14 -325.34,-51.5 8.96,29.17 35.96,25.68 6.97,69.15l-10.62 11.34c-100.55,-64.14 -192.47,-125.55 -213.97,-287.84 -35.7,-4.89 19.99,-12.76 -13.48,8.58l-73.81 33.19 5.87 54.74z"/>
   <path class="fil2" d="M9408.35 19410.38c672.03,448.42 807.05,660.2 1693.46,973.46 1156.27,408.63 2885.46,468.02 4061.12,16.58 212.38,-81.55 242.16,-125.84 372.42,-212.13 39.3,-26.03 3.12,-13.47 63.17,-29.05 0.8,59.98 9.63,139.17 -15,187.01 -77.43,150.36 -699.56,336.75 -844.65,371.43 -380.06,90.86 -827.64,145.16 -1221.93,164.49 -940.99,46.12 -1562.88,-42.83 -2442.63,-312.21 -548.57,-167.98 -1104.11,-542.68 -1557.27,-882.93 -66.7,-50.08 -136.53,-100.64 -198.18,-144.46 -471.8,-335.33 -1028.98,-591.81 -1455.78,-983.54 -87.49,-80.3 -91.62,-184.36 -35.3,-251.35 44.43,79.71 274.9,249.61 359.31,311.95 127.83,94.42 258.68,176.4 404,266.17l817.26 524.58zm-1648.37 -37.3c16.89,0.66 6.1,-8.21 17.12,5 22.78,-19.74 25.35,18.29 -4.63,-41.63 -49.75,-99.39 -33.26,-68.53 -39.25,-209.15 38.69,22.19 51.95,47.77 93.41,81.78 309.67,254 356.32,265.74 716.61,482.04 620.72,372.64 887.83,556.54 1451.19,946.65 39.07,27.05 57.48,38.38 101.08,70.09 214.38,155.97 820.94,433.7 1041.96,498.98 381.16,112.58 708.74,210.69 1117.81,255 940.75,101.89 2135.53,70.27 3018.9,-305.93 220.5,-93.89 258.38,-141.66 408.65,-260.39l-15.43 -799.49c-2.53,-98.32 -10.8,-149.83 -88.33,-190.46 -34.91,143.23 -180.65,264.63 -320.85,306.58 -70.74,89.78 -720.98,238.17 -899.47,268.62 -1046.96,178.63 -2173.29,128.14 -3153.87,-197.57 -653.52,-217.07 -1054.22,-498.43 -1528.76,-840.49 -347.5,-250.48 -713.3,-472.85 -1071.99,-697.21 -92.67,-57.97 -281.96,-167.68 -345.27,-230.43 -80.53,-32.36 -213.63,-154.39 -270.37,-209.94 -155.54,-152.25 -130.76,-215.47 -178.95,-281.29 -98.81,83.68 -74.22,160.19 -97.44,311.41 -16.49,107.31 -28.36,236.65 -41.09,355.18 -13.89,129.2 -20.31,247.16 -24.05,378.81 -5.51,194.81 46.34,185.54 113.02,303.84z"/>
   <path class="fil3" d="M15404.14 19696.91c-63.59,-195.64 -50.98,-305.59 -148.96,-485.54 -177.63,-326.25 -88.76,-158.91 -229.27,-308.81 -378.49,-403.78 -369.05,-295.88 -507.57,-392 -42.22,-29.29 -44.03,-51.91 -91.82,-65.99 -24.22,-7.13 -34.35,-4.67 -60.34,-11.74 -33.09,-8.99 -17.69,-9.96 -53.17,-18.74 -44.93,-11.12 -105.43,-11.22 -149.03,1.3 -3.71,1.06 -7.08,2.79 -10.6,3.96l-40.76 15.12c-21.3,4.48 -44.57,3.58 -66.44,3.53 -379.21,-0.8 -266.76,19.31 -429.29,28.8l-457.25 72.15c-30.66,11.02 -8.07,6.8 -56.1,14.46 -51.34,8.17 -74.78,12.74 -128.6,15.76 -49.29,2.77 -238.3,14.06 -279.52,24.17 -184.51,45.25 -305.19,151.53 -437.85,166.29 6.29,-56.29 5.86,-47.06 35.9,-91.32l14.49 -19.7c-197.13,12.03 -353.75,261.87 -559.22,-50.4 -1.67,-2.54 -4.03,-6.05 -5.66,-8.57 -67.4,-104.05 -34.03,-125.56 -18.65,-193.59 21.04,-93.08 -19.91,-88.7 -35.78,-129.33 10.56,-17.02 34.64,-85.74 43.05,-110.81 13.78,-41.08 20.45,-90.23 -1.2,-134.48 -23.08,23.17 39.41,-3.22 -27.5,-0.32 -60.5,2.62 -102.62,18.42 -152.58,10.84 -26.74,-4.05 -109.08,-64.79 -137.61,-83.9 -133.9,-89.69 -103.78,-139.37 -108.46,-334.39 -4.24,-2.61 -10.21,-5.31 -13.39,-6.57 -2.77,-1.09 -8.78,-4.32 -11.82,-5.39l-26.43 -2.32c0.14,-52.59 1.63,-104.83 2.26,-157.38 0.74,-63.44 5.03,-97.69 -28.4,-128 46.74,-12.76 52.13,-13.56 78.01,-52.38l-255.89 -18.9c-31.7,-59.27 -134.28,-170.65 -143.86,-289.11 -7.07,-87.45 23.3,-105.53 53.98,-158.01 49.12,-84.03 -7.38,-71.69 37.37,-121.18 1.96,-2.17 6.65,-6.24 8.43,-8.05l19.33 -17.8c-29.13,-2.15 8.44,-12.93 39.84,-61.51 112.51,-174.04 158.12,-123.09 236.81,-166.21l-194.09 18.53c-7.99,39.76 15.92,18.54 -35.3,33.1 -37.37,10.62 -56.84,13.97 -108.05,13.97 -28.52,74.06 -71.74,97.55 -108.42,167.07 -22.82,43.26 -84.86,153.57 -77.09,203.86 6.88,44.47 14.17,20.06 30.97,51.61 1.33,2.49 3.69,5.74 4.82,8.28 13.99,31.6 6.55,72.17 4.08,106.91 -0.36,5.16 -2.18,31.22 -1.83,35.9l3.55 21.91c16.85,68.61 55.13,98.98 77.96,161.38 30.1,82.24 -4.95,34.34 56.56,69.73 55.24,31.77 126.14,29.37 194.82,29.37 16.75,80.52 29.39,87.73 14.51,165.71 -18.34,96.06 42.39,115.48 37.52,266.28l-8.44 44.76c-0.33,2.71 -1.26,7 -1.39,9.8 -2.39,51.54 53.9,212.34 72.03,226.91 57.89,46.52 113.03,-27.78 164.63,57.41l77.95 85.29c19.58,12.14 8.2,0.53 17.54,49.6l20.04 109.17c3.62,6.62 38.81,-7.47 20.35,76l-29.39 64.89c66.31,28.09 42.7,24.44 42.89,114.22 3.67,2.22 9.7,0.52 11.53,5.69 1.73,4.89 8.55,4.36 10.86,5.45l63.14 31.67c0,76.12 14.27,108.52 14.27,185.43 94.57,1.54 113.07,42.46 185.61,64.45 41.61,12.62 26.44,-2.07 64.07,13.84 -126.29,97.29 -235.49,191.6 -327.11,329.98 -82.03,123.89 -193.77,205.43 -278.66,394.57 72.86,-32.45 26.77,16.97 127.38,-132.83 13.28,-19.78 129.67,-178.36 135.08,-155.18 4.45,19.07 67.32,-38.97 78.81,-44.49 63.6,-30.56 71.5,-6.29 115.35,-69.73 8.86,15.41 1.45,30.36 -15.42,56.85 34.19,-8.98 23.94,-7.21 58.28,-15.53 -10.07,46.29 -17.75,41.32 -28.86,85.39 97.78,51.86 36.11,26.23 51.77,69.59l6.07 12.45c0.4,1.35 1.79,5.5 2.09,6.88 0.29,1.38 0.72,5.73 0.92,7.12 10.37,73.39 -26.7,-24.89 3.69,31.3 62.78,116.02 74.45,70.99 134.79,97.97 9.28,24.42 2.83,2.49 -0.36,20.68 -0.02,0.13 -7.66,16.95 -9.29,35.49 50.65,7.76 27.83,9.22 63.5,18.34l117.01 57.43c21.84,16.19 38.92,26.72 57.45,40.5 48.42,-16.58 12.1,-9.81 37.16,-18.25 25,-8.42 11.94,-8.37 48.45,-10.45 12.28,20.14 2.05,-2.87 9.89,29.19l3.87 22.2c0.13,0.85 -0.33,4.19 0.51,6.02 90.64,0.79 46.83,-16.99 108.49,21.35 78.23,48.63 15.22,-21.89 109.84,18.18 40.3,17.07 6.56,19.02 83.06,53.68 44.25,20.04 43.64,22.56 3.44,74.92 37.66,-8.56 63.81,-13 80.45,29.41 67.38,-1.79 37.18,-15.77 95.94,-6.67 57.38,8.87 42.95,27.76 89.56,8.71 0.45,-1.4 -1.79,-5.1 -1.89,-3.98 -0.41,4.73 -10.01,-38.77 16.93,-65.61 59.2,109.94 -4.64,85.23 135.59,97.13l43.95 16.51c0.87,0.13 4.59,0.25 5.58,0.36l54.86 1.29c28.05,-12.59 -10.46,20.43 16.95,-16.02l10.35 -18.4c1.23,-2.09 2.82,-7.38 5.27,-10.4 17.59,12.38 -0.97,3.79 28.53,13.18 25.51,8.13 26.64,5.57 46.2,10.6 76.73,19.71 35.86,-22.03 61.47,44.93 45.79,-80.48 22.74,-20.01 129.54,-42.76 22.87,-4.87 50.85,-16.34 65.32,-31.73 33.86,-36.03 7.41,1.84 10.19,-76.31 2.67,1.54 32.4,18.58 34.76,19.04 73.81,14.32 45.72,-42.39 121.55,-65.33 60.41,-18.28 109.76,-42.63 142.36,16.12 64.85,-67.39 137.07,13.04 228.31,12.07 26.81,-41.21 47.75,-94.47 83.39,-128.9 2.33,-2.26 23.27,-18.9 23.76,-19.27 36.79,-27.65 14.7,-24.89 58.63,-28.17 -20.97,30.95 -4.15,41.77 16.91,76.43 -46.61,27.9 -37.02,9.09 -68.98,57.74 37.45,15.03 20.92,1.08 88.21,0.6 -2.6,2.73 -7.36,3.01 -8.1,7.89 -0.92,6.09 -10.47,12.52 -11.42,14.55 -9.68,20.9 -5.09,3.46 -0.92,15.86l127.63 -69.64c50.53,-46 72.69,-28.9 128.94,-44.15 17.32,-4.7 26.18,-11.09 58.9,-11.89 -1.19,-30.29 -11.66,-58.63 -11.68,-58.94l35.72 -73.87c1.42,-2.97 2.67,-7.2 4.07,-10.3 30.03,-66.15 -29.21,-28.59 33.09,-52.53 17.22,-45.47 12.88,-29.65 85.34,-28.87 4.59,-64.71 22.75,-45.15 21.27,-129.46 -0.04,-1.93 -0.64,-6.28 -0.47,-8.13l12.95 -28.65c1.42,-1.89 5,-4.86 6.53,-6.77l12.97 -14.14c29.16,-43.02 0.25,-7.99 14.92,-40.42 20.65,-45.68 11.63,-29.6 90.5,-28.12 -13.04,-28.75 -8.37,-10.59 -9.32,-34.25 -3.04,-75.25 1.77,-2.95 6.11,-37.66 4.57,-36.55 -11.88,-26.25 -25.1,-55.91 108.66,-80.27 -6.81,-130.12 181.32,-173.16 18.76,24.77 28.41,33.64 51.56,63.71 2.44,3.16 8.92,12.62 11.37,15.24l46.82 24.13c5.62,79.84 20.94,105.96 45.63,172.13 1.57,4.21 6.28,16.37 8,20.04 1.18,2.53 2.95,6.62 4.2,8.88 56.69,102.53 71.47,-118.31 180.12,389.14 17.46,81.53 8.85,59.26 -16.42,106.33 -19.71,36.7 -33.61,70.24 -44.96,112.49 -34.43,12.04 16.45,17.6 -14.42,-3.82 -24.63,-17.1 5.22,-10.03 -6.28,-10.45 -1.81,83.55 -13.58,112.18 -70.25,152l-108.05 96.65c83.13,-19.18 206.08,-60.52 257.78,-132.57 40.94,-57.07 -25.86,-29.91 44.15,-127.11l13.1 -19c1.97,-4.07 3.57,-7.26 5.22,-11.79 15.3,-41.99 12.48,-109.96 -3.86,-143.76z"/>
   <path class="fil4" d="M10542.4 15914.79l0.02 -4.05c-21.39,52.37 -16.04,51 -74.04,65.17 -160.55,39.21 -132.29,-104.3 -219.52,-104.98 -1.82,-0.02 -5.91,0.94 -7.77,1.16 -158.98,18.98 -73.42,-57.16 -134.18,-189.18 -13.36,12.26 -30.58,21.18 -44,31.11 -18.93,14.01 -6.64,-14.65 -33.41,31.53l-10.23 61.87c37.38,-29.64 25.41,-37.99 83.09,-42.03 16.04,84.91 20.06,161.92 61.63,235.75 35.33,-0.15 88.6,-6.72 119.31,2.43 34.96,10.4 35.27,38.06 93.44,51.33 47.46,10.81 89.56,2.55 121.32,-13.22 57.8,-28.71 46.62,-21.2 54.44,-94.39l76.63 11.12c34.71,260.65 -120.82,357.66 204.79,357.03l654.79 -18.41 -171.68 5.12 48 -39.5 896.19 -150.18c94.61,-10.59 560.93,-76.45 630.79,-108.05 242.51,-109.66 171.16,-551.6 174.29,-788.82 0.63,-47.96 -3.7,-136.77 -62.71,-146.35 -73.76,-11.97 -83.27,78.33 -206.19,65.14 -203.52,-21.84 -79.18,36.72 -250.17,41.7 -73.04,2.13 -151.39,26.98 -238.68,47.68l-21.1 6.33c-81.84,29.07 -77.6,43.1 -225.64,47.03 -19.24,33.71 12.73,24.74 -61.35,48.99l-71.25 12.32c-75.75,11.77 -42.65,27.47 -148.87,15.89 -65.95,-7.2 -47.63,-3.73 -125.57,11.47 -130.87,25.53 -421.48,6.08 -577.54,11.59 -8.27,29.09 -14.84,-26.68 6.8,8 16.75,26.85 16.56,-13.4 7.47,16.6 -129.37,1.59 -135.66,31.98 -186.09,55.33 -24.29,11.24 -70.69,19.97 -92.52,36.57 -38.87,29.57 -23.77,43.3 -48.93,94.67 -17.28,35.27 -19.2,16.4 -29.1,69.76 -7.63,41.1 -8.43,68.5 -17.43,112.03 -12.69,61.36 -29.67,157.84 -35.18,222.56l-17.41 -9.6c-58.01,-61.35 33.88,76.41 -23.36,-52.84l-33.39 -55.93c-25.98,44.13 2.04,23.77 -65.69,40.25z"/>
   <path class="fil5" d="M8480.13 14544.28c-2.07,-3.74 -5.6,-13.15 -6.75,-10.92 -1.28,2.49 -7.28,-11.88 -12.77,-22.07 -18.25,-33.91 1.19,9.43 -16.79,-33.65 -88.15,-97.58 -159.64,-428.03 -183.26,-588.72 -16.79,13.74 -15.88,-0.95 -37.48,29.86 -9.99,-47.37 -16.28,-97.08 -29.61,-143.58l-47.36 -21.89c-29.1,-30.77 -17.48,-41.57 -34.93,-75.55l-2.56 57.75c-0.44,101.17 55.54,319.23 80.13,431.2 13.82,62.9 49.18,154.38 56.51,202.6 10.76,70.76 -62.66,83.03 -94.81,148.76 79.51,-5.99 94.72,-17.7 153.62,15.78 31.79,23.89 20.06,28.32 11.66,48.77 -49.56,241.37 54.45,346.95 182.29,444.06 341.34,259.31 793.99,355.62 1219.55,419.11 38.14,5.69 282.41,42.46 288.43,41.8l27.72 56.08c2.98,12.36 2.44,58.03 1.59,72.29 -2.75,46.4 -6.55,82.23 -5.81,129.59 26.77,-46.18 14.48,-17.52 33.41,-31.53 13.42,-9.93 30.64,-18.85 44,-31.11 60.76,132.02 -24.8,208.16 134.18,189.18 1.86,-0.22 5.95,-1.18 7.77,-1.16 87.23,0.68 58.97,144.19 219.52,104.98 58,-14.17 52.65,-12.8 74.04,-65.17 -143.71,16.15 -221.79,11.7 -252.48,-115.21 -59.4,0.6 -55.01,-133.63 -58.8,-236.51 -3.3,-89.75 10.43,-192.33 16.04,-285.58 8.34,-138.91 90.55,-207.42 162.34,-282.55 106.77,-111.73 -26.49,-63.3 264.13,-176.44 129.15,-50.28 372.96,-73.1 509.89,-90.05l779.15 -107.7c94.52,-17.39 161.45,-24.23 250.15,-46.14 45.72,-11.3 82.81,-7.78 126.98,-18.56 230.35,-56.23 340.15,-38.31 468.39,-131.5 97.93,-71.17 226.6,-69.1 212.44,-228.74 -6.51,-73.52 -22.74,-26.47 14.12,-85.68 37.92,-60.89 20.77,-54.2 30.27,-127.67l126.28 17.31 55.76 -81.56c-62.7,-50.83 -94.66,-44.84 -158.92,-81.89l1.44 -107.66 -1.18 -377.62c-0.5,-58.38 4.47,-95.69 -18.94,-134.35 -0.53,64.8 2.16,145.19 -13.95,189.7l-52.1 101.26c-2.03,2.04 -5.49,4.76 -7.6,6.63l-26.11 19.18c2.99,82.69 -4.26,167.4 -11.46,246.45 -13.14,144.19 -5.23,104.52 -68.33,193.23l-63.87 40.86c-2.32,-62.5 -10.31,-134.22 8.35,-192.72 89.83,-281.65 -11.7,-171.67 -19.27,-340.76 -3.39,-75.65 3.02,-147.57 -7.45,-221.96l-35.08 -407.24c-1.97,-129.27 -22.19,-292.38 -31.91,-427 -19.98,-276.61 -51.36,-542.2 -94.08,-804.5l-63.96 -376.12c-62.74,-178.34 -32.97,-266.76 -79.66,-375.41l-48.58 0c-31.78,-154.82 -13.57,-344.41 -13.36,-513.97 0.6,-494.63 -27.53,-1068.47 -28.07,-1597.89 -0.18,-170.67 0.41,-359.32 -12.52,-514.23 -14.43,-172.88 4.94,-367.86 -5.34,-541.62 -3.94,-66.58 -12.78,-42.41 -20.24,-100.41l0.82 -683.24c7.48,-29.49 7.91,-18.45 18.73,-39.03 23.42,-44.58 8.66,27.41 18.47,-49.13 6.62,-51.63 -6.32,-88.68 -16.25,-127.13l-165.68 -56.33c4.92,113.6 43.22,124.17 20.82,188.68 -66.11,190.36 -33.59,108.93 -33.09,338.54 0.68,302.21 21.43,1128.96 44.8,1426.05 34.45,437.99 -1.62,1430.05 46.82,1721.14 24.85,149.33 -11.15,461.8 20.15,580.43l50.94 161.39c22.34,32.51 24.86,15.44 51.25,35.06 4.72,155.7 9.66,169.25 37.87,290.33 7.78,33.37 6.02,67.53 11.54,103.28 20.23,131.04 37.87,251.74 54.58,388.34 4.21,34.37 6.13,45.92 11.05,88.83 8.15,71.04 8.03,37.97 21.53,91.64l35.6 407.85c1.62,85.01 22.55,126.89 27.82,199.75 21.88,302.68 -2.77,561.5 37.28,848.73 13.73,98.43 -19.7,160.82 28.28,241.25 119.46,200.2 -11.12,151.34 -7.85,280.23 2.66,104.46 61.72,48.15 113.45,25.38 53.79,29.99 13.58,17.17 57.08,52.13 32.93,-34.29 38.21,-27.52 55.03,-84.28l62.58 134.46c-249.1,442.52 -1957.72,448.33 -2488.78,639.77 -307.43,110.83 -349.43,415.86 -373.21,687.4 -38.99,-3.52 -61.49,-0.9 -82.3,-26.57 -25.9,-31.94 -2.25,-7.53 -16.37,-42.46 -1.38,-3.39 -1.97,-7.7 -3.49,-10.9 -14.14,-29.57 -119.41,-108.43 -192.84,-116.61l-2.57 -15.76c-0.03,-0.91 -0.45,-5.93 -0.44,-6.98 0.32,-52.42 15.69,16.73 3.01,-19.75 -208.29,-19.13 -300.55,-26.76 -378.17,-81.67 -124.67,-88.21 -528.15,-68.84 -917.15,-396.2 -64.69,-54.45 -74.62,-66.06 -75.11,-182.19 -5.44,-86.17 -7.8,-16.62 29.04,-44.27z"/>
   <path class="fil6" d="M6796.42 7782.58c-37.54,-126.01 7.89,-163.77 132.25,-254.02 49,-35.55 215.02,-133.04 274.71,-151.09l-58.71 55.7c-295.03,204.57 -189.83,349.94 -348.25,349.41zm543.09 -636.29c-137.55,48.62 -592.29,303.85 -661.32,432.41 -136.02,253.33 82.56,326.29 154.92,578.97 22.32,77.96 43.41,142.66 66.88,219.32 350.87,1146.12 840.17,3215.94 1036.47,4428.89 24.86,153.59 132.15,849.99 172.16,929.63l2.56 -57.75c17.45,33.98 5.83,44.78 34.93,75.55l47.36 21.89c13.33,46.5 19.62,96.21 29.61,143.58 21.6,-30.81 20.69,-16.12 37.48,-29.86l-280.89 -1538.66c-251.14,-1352.49 -520.76,-2368.35 -867.32,-3673.15 -55.62,-209.41 -161.83,-524.32 -190.55,-729.13l74.39 -45.88c141.86,532.25 301.98,1041.79 429.88,1576.39 128.81,538.4 286.88,1079.06 400.41,1627.09 115.5,557.53 222.14,1122.8 326.89,1696.54 69.55,380.94 208.17,1448.95 331.79,1686.54 -1.73,-2.48 -11.01,-22.63 -41.34,-11.02 17.98,43.08 -1.46,-0.26 16.79,33.65 5.49,10.19 11.49,24.56 12.77,22.07 1.15,-2.23 4.68,7.18 6.75,10.92l44.89 6.06c-13.78,-90.17 -1.57,-58.14 0.22,-133.93 1,-42.17 2.08,-29.87 -10.5,-60.95 -21.39,-52.79 -5.05,0.18 -29.94,-55.03 -43.12,-95.64 -16.29,-160.19 -36.12,-278.04 -8.25,-49.03 -19.56,-81.62 -28.74,-127.92 -10.46,-52.71 -4.98,-91.54 -11.64,-145.07 -10.23,-82.23 -45.32,-172.28 -51.59,-260.78l-35.78 -280.21c-42.4,-180.33 -11.07,-169.9 -33.47,-280.45 -12.77,-63 -25.17,-69.07 -30.4,-124.17l-31.8 -284.75c-72.16,-215.11 -28.45,-200.69 -79.58,-405.46 -12.05,-48.24 -24.57,-70.61 -35.92,-120.04 -46.38,-201.98 -56.4,-395.34 -111.46,-602.73l-90.21 -466.57c-7.72,-46.11 -29.91,-74.24 -36.19,-119.74 -3.29,-23.79 -0.82,-45.84 -4.05,-68.21 -14.59,-101.14 -23.47,4.54 -49.28,-191.39 -22.24,-168.9 -27.62,-52.82 -49.03,-279.67 -4.98,-52.76 -44.9,-190.37 -62.71,-252.76 -15.56,-54.46 -27.67,-66.5 -44.99,-111.83 -15.06,-39.39 -19.05,-83.15 -27.47,-128.19 -16.72,-89.34 -26.47,-184.57 -60.15,-255.61 -38.25,-80.69 -84.46,-349.47 -104.56,-409.3 -34.25,-102 -68.08,-246.21 -108.51,-333.75 -51.09,-110.59 -35.13,-109.55 -58.74,-169.5 -53.43,-135.66 -31,-115.37 -55.97,-186.19 -32.12,-91.06 -34.7,-29.84 -88.45,-239.28 -17.29,-67.39 -21.07,-54.94 -49.85,-107.38 -68.17,-124.24 -122.7,-296.8 -33.59,-411.3 176.4,-226.65 528.34,-273.35 721.82,-475.98 39.63,-41.51 15.25,-14.75 68.76,-46.19 117.14,-68.83 165.01,-69.12 234.12,-145.13 -147.58,18.08 -556.13,191.5 -689.25,257.97l-70.49 -104.52z"/>
   <path class="fil7" d="M7777.1 19378.08c27.01,54.83 38.47,60.03 83.42,96.66 190.47,155.23 519.41,346.19 733.27,466.67 304.85,171.74 571.72,345.5 853.48,530.78 747.81,491.73 843.14,650.7 1785.9,981.93 986.54,346.6 2587.59,349.42 3670.66,46.92 268.89,-75.1 832.17,-240.97 779,-605.52 -150.27,118.73 -188.15,166.5 -408.65,260.39 -883.37,376.2 -2078.15,407.82 -3018.9,305.93 -409.07,-44.31 -736.65,-142.42 -1117.81,-255 -221.02,-65.28 -827.58,-343.01 -1041.96,-498.98 -43.6,-31.71 -62.01,-43.04 -101.08,-70.09 -563.36,-390.11 -830.47,-574.01 -1451.19,-946.65 -360.29,-216.3 -406.94,-228.04 -716.61,-482.04 -41.46,-34.01 -54.72,-59.59 -93.41,-81.78 5.99,140.62 -10.5,109.76 39.25,209.15 29.98,59.92 27.41,21.89 4.63,41.63z"/>
   <path class="fil8" d="M12230.98 6641.26l165.68 56.33c9.93,38.45 22.87,75.5 16.25,127.13 -9.81,76.54 4.95,4.55 -18.47,49.13 -10.82,20.58 -11.25,9.54 -18.73,39.03l-0.82 683.24c7.46,58 16.3,33.83 20.24,100.41 10.28,173.76 -9.09,368.74 5.34,541.62 12.93,154.91 12.34,343.56 12.52,514.23 0.54,529.42 28.67,1103.26 28.07,1597.89 -0.21,169.56 -18.42,359.15 13.36,513.97l48.58 0c46.69,108.65 16.92,197.07 79.66,375.41l63.96 376.12c42.72,262.3 74.1,527.89 94.08,804.5 9.72,134.62 29.94,297.73 31.91,427l35.08 407.24c10.47,74.39 4.06,146.31 7.45,221.96 7.57,169.09 109.1,59.11 19.27,340.76 -18.66,58.5 -10.67,130.22 -8.35,192.72l63.87 -40.86c-0.53,-0.63 -5.09,-798.22 -10.69,-906.8 -32.86,-637.39 -87.98,-1067.32 -203.71,-1686.41 -45.9,-245.48 -175.57,-549.35 -174.75,-768.47 3.61,-973.44 22.75,-1804.11 -6.59,-2786.3 -8.57,-286.82 -42.37,-653.97 -26.32,-931.18l91.68 45.65c33.09,353.17 43.28,1327.6 49.98,1731.18 9.67,582.27 2.59,1163.75 -19.78,1740.85 -12.48,322.11 55.02,472.06 126.09,756.74 201.75,808.17 245.62,1530.7 253.88,2365.06l26.11 -19.18c2.11,-1.87 5.57,-4.59 7.6,-6.63l52.1 -101.26c16.11,-44.51 13.42,-124.9 13.95,-189.7 23.41,38.66 18.44,75.97 18.94,134.35l1.18 377.62c70.84,-244.01 -59.14,-1567.78 -109.76,-1879.2 -45.97,-282.8 -96.36,-575.04 -174.38,-839.52 -109.51,-371.24 -90.84,-547.67 -78.49,-941.29 33.57,-1069.99 -14.3,-1957.85 -37.37,-2996.59 -3.56,-160.32 109.16,-260.09 68.39,-438.14 -30.88,-134.88 -152.37,-185.38 -300.08,-226.11 -37.85,31.31 -61.88,47.68 -113.79,57.86 -54.86,10.77 -85.41,15.91 -146.96,8.53 -358.6,-43.01 -629.15,-43.53 -992.7,-39.89 11.5,5.08 303.12,34.75 343.09,39.58 59.7,7.21 103.31,10.69 146.74,39.06l67.87 71.61 468.82 60.75z"/>
   <path class="fil9" d="M15600.69 19754.23c-14.3,32.54 -8.02,56.01 -15.92,75.96 -19.33,48.84 -11.26,12.09 -53.76,37.46 -71.84,42.87 -56.74,157.73 -169.78,229.69 -102.28,65.12 -90.01,57.7 -103.01,114.81 140.2,-41.95 285.94,-163.35 320.85,-306.58 77.53,40.63 85.8,92.14 88.33,190.46l15.43 799.49c53.17,364.55 -510.11,530.42 -779,605.52 -1083.07,302.5 -2684.12,299.68 -3670.66,-46.92 -942.76,-331.23 -1038.09,-490.2 -1785.9,-981.93 -281.76,-185.28 -548.63,-359.04 -853.48,-530.78 -213.86,-120.48 -542.8,-311.44 -733.27,-466.67 -44.95,-36.63 -56.41,-41.83 -83.42,-96.66 -11.02,-13.21 -0.23,-4.34 -17.12,-5 -87.72,-11.44 -21.22,-13.62 -96.55,-42.71 -27.95,-10.78 -59.48,-19.24 -92.43,-6.99 48.54,245.77 644.65,581.81 907.3,732.36 353.2,202.47 699.1,411.09 1009.33,631.89 739.72,526.5 1282.16,866.77 2226.68,1071.32 873.36,189.13 2115.67,179.25 2975.79,-30.88 404.55,-98.83 940.07,-258.87 1073.34,-569.35 69.53,-162.01 47.98,-566.38 39.74,-763.78 -11.77,-281.82 13,-550.14 -202.49,-640.71z"/>
   <path class="fil7" d="M15598.52 20159.24c-60.05,15.58 -23.87,3.02 -63.17,29.05 -130.26,86.29 -160.04,130.58 -372.42,212.13 -1175.66,451.44 -2904.85,392.05 -4061.12,-16.58 -886.41,-313.26 -1021.43,-525.04 -1693.46,-973.46l-817.26 -524.58c-145.32,-89.77 -276.17,-171.75 -404,-266.17 -84.41,-62.34 -314.88,-232.24 -359.31,-311.95 -56.32,66.99 -52.19,171.05 35.3,251.35 426.8,391.73 983.98,648.21 1455.78,983.54 61.65,43.82 131.48,94.38 198.18,144.46 453.16,340.25 1008.7,714.95 1557.27,882.93 879.75,269.38 1501.64,358.33 2442.63,312.21 394.29,-19.33 841.87,-73.63 1221.93,-164.49 145.09,-34.68 767.22,-221.07 844.65,-371.43 24.63,-47.84 15.8,-127.03 15,-187.01z"/>
   <path class="fil10" d="M13912.14 17240.83c25.29,48.35 37.73,50.63 40.36,101.81 19.99,21.48 27.58,40.15 24.95,84.94 -2.02,34.61 -13.18,64.51 -34.24,84.33 -46.12,43.39 -105.56,17.51 -156.25,2.91 -125.27,-36.08 -245.61,-45.44 -383.83,-47.44 -273.71,-3.97 -534.49,34.99 -787.87,84.99 -232.9,45.96 -453.53,118.29 -653.29,205.35 -118.83,51.8 -177.35,103.51 -270.91,155.73 -124.63,69.57 -255.47,9.17 -298.6,-85.12 -172.62,-377.37 716.89,-603.96 1028.5,-672.3 341.4,-74.88 834.21,-128.08 1191.65,-68.36 147.34,24.62 231.63,53.38 299.53,153.16zm-2458.2 227.7c-73.13,58.83 -144.25,158.32 -119.51,310.82 14.04,86.57 135.63,200.94 245.52,209.81 104.54,8.44 420.15,-159.15 495.22,-181.66 95.65,-28.68 62.93,1.44 82.66,7.81l39.09 6.9c31.27,2.07 6.15,-14.22 47.58,3.42l-36.89 33.69c-151.11,144.85 -111.57,23.5 -159.11,153.11 -47.67,129.95 -222.29,108.7 -291.71,383.19 -39.94,157.93 77.49,294.11 193.39,313.1 130.83,21.44 250.91,-82.69 373.77,-145.17 54.81,-27.88 123.94,-48.24 182.78,-74.11 36.13,-15.9 55.13,-24.93 88.91,-34.37l110.46 -35.24c168.23,-74.12 693.73,-155.98 875.98,-175.82 145.53,-15.85 396.33,3.16 523.03,-25.92 -16.17,-12.18 -5.32,-7.63 -33.98,-16.89l-139.85 -17.42c-527.93,-35.6 -1111.36,107.84 -1585.6,313.54 -111.66,48.44 -172.95,117.82 -268.58,158.2 -238.6,100.77 -406.3,-199.15 -177.5,-390.93 410.09,-343.73 1432.09,-535.58 2031.46,-467.38 198.24,22.56 519.6,88.58 447.25,387.11l20.62 -14.5c0.09,-0.07 93.74,-54.34 33.61,-161.01 -62.49,-110.82 -69.32,-38.42 -59.53,-188.89l-36.15 -40.7c-26.16,-18.59 -41.94,-24.44 -65.43,-35.15 -45.63,-20.81 -88.35,-25.07 -122.79,-62.09 -126.94,-136.45 -59.3,-147.69 -51.51,-241.22 25.26,-303.44 -236.11,-397.28 -294.8,-441.81 -86.7,82.66 -120.52,3.6 -327.5,11.03 -128.63,4.62 -224.71,-29.97 -342.68,-19.34 -105.91,9.54 -259.24,-1.16 -346.14,14.09 -85.56,15.01 -198.02,35.8 -304.53,51.18 -166.15,23.98 -699.44,160.48 -829.32,247.69 -197.13,132.36 -150.65,136.26 -198.22,164.93z"/>
   <path class="fil11" d="M12656.56 16731.24c-282.44,39.25 -481.85,63.69 -751.2,142.61 -148.12,43.41 -343.65,117.75 -477.9,191.17 -54.63,29.88 -87.52,60.83 -141.13,87.31 -248.22,122.6 -430.46,-199.02 -192.31,-392.85 135.24,-110.07 425.23,-224.83 619.85,-282.52 324.06,-96.07 1640.37,-371.2 1849.26,50.61 49.14,99.24 38.87,295.93 -103.69,259.85 -279.47,-70.74 -493.74,-99.15 -802.88,-56.18zm561.17 -1557.72c59.89,-42.35 -13.39,-32.2 34,-11.9 48.31,20.69 11.91,689.33 8.49,755.09 -5.29,101.67 10.24,161.01 14.42,241.4l-71.28 -91.52c-48.16,25.3 -18.59,27.28 -79.72,49.01 -4.48,1.59 -18.27,4.94 -22.87,6.2 -165.44,45.51 -140.89,26.15 -212.95,43.54 -100.81,24.32 21.86,6.9 -84.51,42.18 -60.34,20.02 -179.53,16.33 -251.22,24.1l-789.05 139.02c-47.28,6.23 -69.81,3.36 -103.27,16.79 -52.24,20.97 25.57,2.56 -53.77,21.35l-179.22 2.3 -126.19 9.77c-78.69,43.12 -124.3,-7.83 -236.81,166.21 -31.4,48.58 -68.97,59.36 -39.84,61.51 19.12,-32.2 -15.2,-10.34 53.22,-19.43 -36.58,125.08 7.51,-1.63 -18.92,46.77 -24.7,45.22 -20.62,11.49 -59.7,97.34 -24.32,53.43 -63.42,71.08 -65.39,141.64 -4.04,144.72 93.86,303.05 301.37,300.85 95.01,-1.01 81,-14.44 156.5,-47.98 62.23,-27.64 88.77,-26.37 151.95,-59.46 55.08,-28.85 89.26,-50.33 165.34,-54.34l-122.33 82.06c40.88,33.64 62.53,79.24 60.96,150.01l-173.33 104.08 2.12 37.97c-26.51,11.5 -6.15,-19.41 -21.79,40.45 47.57,-28.67 1.09,-32.57 198.22,-164.93 129.88,-87.21 663.17,-223.71 829.32,-247.69 106.51,-15.38 218.97,-36.17 304.53,-51.18 86.9,-15.25 240.23,-4.55 346.14,-14.09 117.97,-10.63 214.05,23.96 342.68,19.34 206.98,-7.43 240.8,71.63 327.5,-11.03 -63.74,-14.61 -62.59,-9.47 -93.25,-61.48 -112.47,-190.77 42.71,-133.2 -8.45,-376.24 -51.01,-242.39 -269.53,-300.45 -290.78,-323.75 -20.98,-22.99 -63.29,-189.48 -67.45,-227.69 -10.43,-95.75 14.94,-181.22 18.29,-279.09 3.67,-107.03 -25.33,-550 -3.98,-605.16 -14.48,-71.2 6.82,-141.86 -90.13,-227.06 -52.89,-46.49 -8.77,-18.67 -77.41,-38.74l28.56 313.78z"/>
   <path class="fil12" d="M11023.94 16648.57l-19.33 17.8c-1.78,1.81 -6.47,5.88 -8.43,8.05 -44.75,49.49 11.75,37.15 -37.37,121.18 -30.68,52.48 -61.05,70.56 -53.98,158.01 9.58,118.46 112.16,229.84 143.86,289.11l255.89 18.9c-25.88,38.82 -31.27,39.62 -78.01,52.38 33.43,30.31 29.14,64.56 28.4,128 -0.63,52.55 -2.12,104.79 -2.26,157.38l26.43 2.32c3.04,1.07 9.05,4.3 11.82,5.39 3.18,1.26 9.15,3.96 13.39,6.57 4.68,195.02 -25.44,244.7 108.46,334.39 28.53,19.11 110.87,79.85 137.61,83.9 49.96,7.58 92.08,-8.22 152.58,-10.84 66.91,-2.9 4.42,23.49 27.5,0.32 21.65,44.25 14.98,93.4 1.2,134.48 -8.41,25.07 -32.49,93.79 -43.05,110.81 15.87,40.63 56.82,36.25 35.78,129.33 -15.38,68.03 -48.75,89.54 18.65,193.59 1.63,2.52 3.99,6.03 5.66,8.57 205.47,312.27 362.09,62.43 559.22,50.4l-14.49 19.7c-30.04,44.26 -29.61,35.03 -35.9,91.32 132.66,-14.76 253.34,-121.04 437.85,-166.29 41.22,-10.11 230.23,-21.4 279.52,-24.17 53.82,-3.02 77.26,-7.59 128.6,-15.76 48.03,-7.66 25.44,-3.44 56.1,-14.46l457.25 -72.15c162.53,-9.49 50.08,-29.6 429.29,-28.8 21.87,0.05 45.14,0.95 66.44,-3.53l40.76 -15.12c3.52,-1.17 6.89,-2.9 10.6,-3.96 43.6,-12.52 104.1,-12.42 149.03,-1.3 35.48,8.78 20.08,9.75 53.17,18.74 25.99,7.07 36.12,4.61 60.34,11.74 47.79,14.08 49.6,36.7 91.82,65.99 138.52,96.12 129.08,-11.78 507.57,392 140.51,149.9 51.64,-17.44 229.27,308.81 97.98,179.95 85.37,289.9 148.96,485.54l-4.82 186.28c16.01,67.49 -5.68,30.36 44.26,70.57 90.41,-183.13 14.15,-460.75 -55.18,-656.74 -58.37,-165.02 -106.43,-241.65 -200.11,-371.24 -1.77,-2.44 -4.16,-5.91 -5.94,-8.34 -1.77,-2.42 -4.27,-5.78 -6.05,-8.19 -1.76,-2.4 -4.38,-5.66 -6.15,-8.06 -42.57,-57.89 -28.9,-59.64 -66.32,-91.03 -145.98,-122.48 -56.9,-81.97 -199.59,-187.24l-159.75 -125.57c-241.55,-173.1 -427.25,-111.94 -531.52,-135.15 -60.89,-13.56 -120.38,-20.55 -160.28,-55.79 499,1.42 277.77,-19.85 449.4,-138.19 36.67,-25.29 -33.24,4.84 36.15,-18.39 -25.36,-45.74 -27.66,-130.79 -53.97,-190.31 -11.23,-25.39 -25.01,-49.95 -40.04,-73.44 -28.47,-44.51 -26.37,-44.63 -71.22,-66.16 -9.79,150.47 -2.96,78.07 59.53,188.89 60.13,106.67 -33.52,160.94 -33.61,161.01l-20.62 14.5c-74.63,127.53 -152.6,19.62 -273.2,33.77 -126.7,29.08 -377.5,10.07 -523.03,25.92 -182.25,19.84 -707.75,101.7 -875.98,175.82l-110.46 35.24c-33.78,9.44 -52.78,18.47 -88.91,34.37 -58.84,25.87 -127.97,46.23 -182.78,74.11 -122.86,62.48 -242.94,166.61 -373.77,145.17 -115.9,-18.99 -233.33,-155.17 -193.39,-313.1 69.42,-274.49 244.04,-253.24 291.71,-383.19 47.54,-129.61 8,-8.26 159.11,-153.11l36.89 -33.69c-41.43,-17.64 -16.31,-1.35 -47.58,-3.42l-39.09 -6.9c-19.73,-6.37 12.99,-36.49 -82.66,-7.81 -75.07,22.51 -390.68,190.1 -495.22,181.66 -109.89,-8.87 -231.48,-123.24 -245.52,-209.81 -24.74,-152.5 46.38,-251.99 119.51,-310.82 15.64,-59.86 -4.72,-28.95 21.79,-40.45l-2.12 -37.97 173.33 -104.08c1.57,-70.77 -20.08,-116.37 -60.96,-150.01l122.33 -82.06c-76.08,4.01 -110.26,25.49 -165.34,54.34 -63.18,33.09 -89.72,31.82 -151.95,59.46 -75.5,33.54 -61.49,46.97 -156.5,47.98 -207.51,2.2 -305.41,-156.13 -301.37,-300.85 1.97,-70.56 41.07,-88.21 65.39,-141.64 39.08,-85.85 35,-52.12 59.7,-97.34 26.43,-48.4 -17.66,78.31 18.92,-46.77 -68.42,9.09 -34.1,-12.77 -53.22,19.43z"/>
   <path class="fil12" d="M10589.27 15478.4c-5.56,101.21 -20.74,361.01 -46.87,436.39 67.73,-16.48 39.71,3.88 65.69,-40.25l33.39 55.93c57.24,129.25 -34.65,-8.51 23.36,52.84l17.41 9.6c5.51,-64.72 22.49,-161.2 35.18,-222.56 9,-43.53 9.8,-70.93 17.43,-112.03 9.9,-53.36 11.82,-34.49 29.1,-69.76 25.16,-51.37 10.06,-65.1 48.93,-94.67 21.83,-16.6 68.23,-25.33 92.52,-36.57 50.43,-23.35 56.72,-53.74 186.09,-55.33 9.09,-30 9.28,10.25 -7.47,-16.6 -21.64,-34.68 -15.07,21.09 -6.8,-8 156.06,-5.51 446.67,13.94 577.54,-11.59 77.94,-15.2 59.62,-18.67 125.57,-11.47 106.22,11.58 73.12,-4.12 148.87,-15.89l71.25 -12.32c74.08,-24.25 42.11,-15.28 61.35,-48.99 148.04,-3.93 143.8,-17.96 225.64,-47.03l21.1 -6.33c87.29,-20.7 165.64,-45.55 238.68,-47.68 170.99,-4.98 46.65,-63.54 250.17,-41.7 122.92,13.19 132.43,-77.11 206.19,-65.14 59.01,9.58 63.34,98.39 62.71,146.35 -3.13,237.22 68.22,679.16 -174.29,788.82 -69.86,31.6 -536.18,97.46 -630.79,108.05l-896.19 150.18 -48 39.5 171.68 -5.12 127.43 -4.07 -153.9 80.36c-9.93,7.4 -25.74,25.1 -35.46,37.76l179.22 -2.3c79.34,-18.79 1.53,-0.38 53.77,-21.35 33.46,-13.43 55.99,-10.56 103.27,-16.79l789.05 -139.02c71.69,-7.77 190.88,-4.08 251.22,-24.1 106.37,-35.28 -16.3,-17.86 84.51,-42.18 72.06,-17.39 47.51,1.97 212.95,-43.54 4.6,-1.26 18.39,-4.61 22.87,-6.2 61.13,-21.73 31.56,-23.71 79.72,-49.01l71.28 91.52c-4.18,-80.39 -19.71,-139.73 -14.42,-241.4 3.42,-65.76 39.82,-734.4 -8.49,-755.09 -47.39,-20.3 25.89,-30.45 -34,11.9 18.7,151.48 18.04,270.67 20.02,428.16 2.87,227.75 18.96,338.33 -105.66,370.93 7.96,-116.64 37.51,-129.93 38.99,-270.94 2.04,-195.47 -0.61,-611 -39.61,-770.66 -32.7,-16.61 -66.22,-12.95 -102.19,-22.72 -48.83,-13.25 -54.5,-36.33 -82.77,-37.6 -88.11,16.01 -180.07,74.28 -275.76,96.98 -117.63,27.9 -173.02,54.9 -293.36,78.23 -92.27,17.88 -207.31,38.69 -308.87,63.45 -373.71,91.13 -977.5,82.25 -1295.98,189.79 -143.3,48.39 -83.23,121.76 -183.27,179.26z"/>
   <path class="fil8" d="M10289.94 15795.53c-5.1,-402.07 -25.38,-711.27 305.34,-847.18 215.74,-88.67 734.21,-129.73 998.35,-159.52 315.99,-35.63 674.89,-102.99 965.93,-188.2 161.84,-47.38 282.47,-88.03 421.87,-162.71 129.47,-69.37 246.69,-148.05 187.63,-351.6 -19.58,-39.09 -29.31,-50.41 -49.54,-81.7 300.13,79.43 292.22,603.29 213.95,915.58l-23.37 37.14c-15.23,-106 -27.02,-206.27 -66.73,-279.44 -65.53,-4 -390.57,178.74 -625.4,239.61 -409.87,106.24 -1060.27,222 -1479.98,248.54 -265.09,16.76 -517.8,43.19 -548.72,312.35 100.04,-57.5 39.97,-130.87 183.27,-179.26 318.48,-107.54 922.27,-98.66 1295.98,-189.79 101.56,-24.76 216.6,-45.57 308.87,-63.45 120.34,-23.33 175.73,-50.33 293.36,-78.23 95.69,-22.7 187.65,-80.97 275.76,-96.98 28.27,1.27 33.94,24.35 82.77,37.6 35.97,9.77 69.49,6.11 102.19,22.72 39,159.66 41.65,575.19 39.61,770.66 -1.48,141.01 -31.03,154.3 -38.99,270.94 124.62,-32.6 108.53,-143.18 105.66,-370.93 -1.98,-157.49 -1.32,-276.68 -20.02,-428.16l-28.56 -313.78c68.64,20.07 24.52,-7.75 77.41,38.74 96.95,85.2 75.65,155.86 90.13,227.06 127.15,-112.99 153.47,-434.17 140.23,-651.78 -15.32,-251.64 -83.09,-469.72 -249.86,-559.6l-55.76 81.56 -126.28 -17.31c-9.5,73.47 7.65,66.78 -30.27,127.67 -36.86,59.21 -20.63,12.16 -14.12,85.68 14.16,159.64 -114.51,157.57 -212.44,228.74 -128.24,93.19 -238.04,75.27 -468.39,131.5 -44.17,10.78 -81.26,7.26 -126.98,18.56 -88.7,21.91 -155.63,28.75 -250.15,46.14l-779.15 107.7c-136.93,16.95 -380.74,39.77 -509.89,90.05 -290.62,113.14 -157.36,64.71 -264.13,176.44 -71.79,75.13 -154,143.64 -162.34,282.55 -5.61,93.25 -19.34,195.83 -16.04,285.58 3.79,102.88 -0.6,237.11 58.8,236.51z"/>
   <path class="fil13" d="M13169.06 14086.32c52.6,5.92 69.49,-6.95 88.23,34.87 52.28,116.62 -45.38,228.1 -127.61,294.28 -453.85,365.21 -1702.3,418.8 -2288.26,523.23 -405,72.18 -470.76,202.07 -495.07,620.16 -25.71,442.24 163.33,291.74 173.58,235.7 28.42,-155.52 -13.33,-366 71.98,-491.9 140.02,-206.59 609.64,-187.61 894.55,-229.76 509.1,-75.31 903.63,-116.47 1387.67,-301.42 237.72,-90.83 443.57,-270.03 445.23,-12.34 0.21,32.42 -6.84,59.52 -6.87,87.09 -0.05,56.02 5.64,55.46 20.98,73.97 78.27,-312.29 86.18,-836.15 -213.95,-915.58 20.23,31.29 29.96,42.61 49.54,81.7z"/>
   <path class="fil13" d="M13952.5 17342.64c-2.63,-51.18 -15.07,-53.46 -40.36,-101.81 -131.24,-64.58 -101.1,-69.2 -295.97,-100.42 -305.58,-48.96 -830.54,-6.1 -1112.79,56.28 -1466.39,324.1 -1058.68,729.8 -854.06,658.27 160.99,-56.27 148.74,-168.22 851.17,-344.63 347.69,-87.31 721.44,-124.2 1086.01,-109.49 134.3,5.41 218.83,49.54 331.38,67.27 25.35,-52.36 29.04,-51.4 34.62,-125.47z"/>
   <path class="fil13" d="M12545.46 16378.8c-404.1,30.78 -1050.77,185.51 -1322.52,367.02 -360.1,240.54 -91.61,427.01 56.42,326.54 463.28,-314.42 1717.37,-575.23 2220.08,-355.08 101.54,44.47 114.91,-242.03 -160.08,-311.32 -233.71,-58.89 -553.85,-45.43 -793.9,-27.16z"/>
   <path class="fil13" d="M13495.78 17846.26c-263.41,30.55 -476.21,36.79 -720.95,107.73 -220.3,63.84 -431.73,113.24 -622.82,220.01 -100.13,55.95 -177.98,91.77 -243.42,170.91 -113.29,136.99 -15.83,237.65 48.37,252.22 123.23,27.96 267.52,-144.32 568.23,-249.36 456.76,-159.55 914.7,-253.97 1433.96,-231.22 58.25,2.55 114.08,4.3 175.11,15.11 36.31,6.44 145.78,40.92 165.22,39.78 56.55,-3.32 77.03,-67.62 47.2,-131.85 -9.99,-21.5 -72.11,-104.8 -93.66,-120.32 -102.54,-73.83 -604.18,-90.76 -757.24,-73.01z"/>
   <path class="fil14" d="M12889.93 13969.09c63.1,-88.71 55.19,-49.04 68.33,-193.23 7.2,-79.05 14.45,-163.76 11.46,-246.45 -8.26,-834.36 -52.13,-1556.89 -253.88,-2365.06 -71.07,-284.68 -138.57,-434.63 -126.09,-756.74 22.37,-577.1 29.45,-1158.58 19.78,-1740.85 -6.7,-403.58 -16.89,-1378.01 -49.98,-1731.18l-91.68 -45.65c-16.05,277.21 17.75,644.36 26.32,931.18 29.34,982.19 10.2,1812.86 6.59,2786.3 -0.82,219.12 128.85,522.99 174.75,768.47 115.73,619.09 170.85,1049.02 203.71,1686.41 5.6,108.58 10.16,906.17 10.69,906.8z"/>
   <path class="fil14" d="M8260.56 13888.92c23.62,160.69 95.11,491.14 183.26,588.72 30.33,-11.61 39.61,8.54 41.34,11.02 -123.62,-237.59 -262.24,-1305.6 -331.79,-1686.54 -104.75,-573.74 -211.39,-1139.01 -326.89,-1696.54 -113.53,-548.03 -271.6,-1088.69 -400.41,-1627.09 -127.9,-534.6 -288.02,-1044.14 -429.88,-1576.39l-74.39 45.88c28.72,204.81 134.93,519.72 190.55,729.13 346.56,1304.8 616.18,2320.66 867.32,3673.15l280.89 1538.66z"/>
   <path class="fil15" d="M8389.11 18433.35l-116.18 -127.2c-119.59,-136.28 -70.27,-366.31 -70.17,-449.71 0.09,-76.56 7.9,-190.22 10.67,-234.59 2.18,-34.99 7.86,-99.56 8.19,-106.38 0.21,-4.17 4.17,-49.63 4.57,-51.77 26.22,-142.74 12.06,-118.54 58.02,-215.3 34.52,-72.67 51.65,-196.2 59.45,-279.37 6.32,-67.26 -5.3,-57.52 27.52,-105.79 9.11,-13.4 21.52,-25.29 32.43,-38.05l36.67 -43.13c154.02,267.72 253.95,360.27 329.95,732.64 48.86,239.37 94.86,721.36 85.3,961.99 6.41,-453.21 9.24,-812.99 -123.59,-1204.43 -59.28,-174.67 -145.63,-305.64 -224.47,-443.27 -45.84,-80.01 -154.5,-238.88 -188.55,-321.55 -49.12,-119.27 -55.03,-88.74 -95.5,-106.61 -5.67,48.86 -20.36,91.3 -34.61,142.46 -14.86,53.35 -21.22,79.84 -36.32,137.19 -20.26,76.96 -51.56,190.41 -76.04,279.16 -59.97,217.45 -157.71,662.32 -167.12,881.34 -11.92,277.52 66.4,300.29 277.87,450.38 68.2,48.41 134.83,92.13 201.91,141.99z"/>
   <path class="fil16" d="M10289.94 15795.53c30.69,126.91 108.77,131.36 252.48,115.21l-0.02 4.05c26.13,-75.38 41.31,-335.18 46.87,-436.39 30.92,-269.16 283.63,-295.59 548.72,-312.35 419.71,-26.54 1070.11,-142.3 1479.98,-248.54 234.83,-60.87 559.87,-243.61 625.4,-239.61 39.71,73.17 51.5,173.44 66.73,279.44l23.37 -37.14c-15.34,-18.51 -21.03,-17.95 -20.98,-73.97 0.03,-27.57 7.08,-54.67 6.87,-87.09 -1.66,-257.69 -207.51,-78.49 -445.23,12.34 -484.04,184.95 -878.57,226.11 -1387.67,301.42 -284.91,42.15 -754.53,23.17 -894.55,229.76 -85.31,125.9 -43.56,336.38 -71.98,491.9 -10.25,56.04 -199.29,206.54 -173.58,-235.7 24.31,-418.09 90.07,-547.98 495.07,-620.16 585.96,-104.43 1834.41,-158.02 2288.26,-523.23 82.23,-66.18 179.89,-177.66 127.61,-294.28 -18.74,-41.82 -35.63,-28.95 -88.23,-34.87 59.06,203.55 -58.16,282.23 -187.63,351.6 -139.4,74.68 -260.03,115.33 -421.87,162.71 -291.04,85.21 -649.94,152.57 -965.93,188.2 -264.14,29.79 -782.61,70.85 -998.35,159.52 -330.72,135.91 -310.44,445.11 -305.34,847.18z"/>
   <path class="fil17" d="M8330.46 15229.38c56.77,17.36 94.12,61.21 158.56,93.4 187.57,93.72 283.16,165.76 531.93,236.4 181.03,51.4 684.21,194.52 869.18,150.88 12.5,-7.15 127.87,-150.68 -76.38,-185.14 -333.03,-56.19 -578.16,-91.1 -903.7,-208.84 -210.63,-76.18 -541.24,-251.6 -645.44,-454.23 -25.58,-49.75 -26.98,-67.25 -16.35,-105.49 0.92,-3.32 2.85,-6.84 3.89,-10.18 29.03,-93.31 4.06,-119.52 63.58,-163.56 8.4,-20.45 20.13,-24.88 -11.66,-48.77 -44.59,76.63 -119.46,79.71 -136.56,312.81 -7.58,103.3 9.9,318.56 55.85,396 27.25,-42.89 0.67,-31.45 42.8,-69.99l64.3 56.71z"/>
   <path class="fil18" d="M12545.46 16378.8c240.05,-18.27 560.19,-31.73 793.9,27.16 274.99,69.29 261.62,355.79 160.08,311.32 -502.71,-220.15 -1756.8,40.66 -2220.08,355.08 -148.03,100.47 -416.52,-86 -56.42,-326.54 271.75,-181.51 918.42,-336.24 1322.52,-367.02zm111.1 352.44c309.14,-42.97 523.41,-14.56 802.88,56.18 142.56,36.08 152.83,-160.61 103.69,-259.85 -208.89,-421.81 -1525.2,-146.68 -1849.26,-50.61 -194.62,57.69 -484.61,172.45 -619.85,282.52 -238.15,193.83 -55.91,515.45 192.31,392.85 53.61,-26.48 86.5,-57.43 141.13,-87.31 134.25,-73.42 329.78,-147.76 477.9,-191.17 269.35,-78.92 468.76,-103.36 751.2,-142.61z"/>
   <path class="fil19" d="M8256.16 15539.58l-5.87 -54.74 73.81 -33.19c33.47,-21.34 -22.22,-13.47 13.48,-8.58 21.5,162.29 113.42,223.7 213.97,287.84l10.62 -11.34c28.99,-43.47 1.99,-39.98 -6.97,-69.15 -25.99,-84.64 267.43,34.35 325.34,51.5 65.66,19.43 103.1,22.51 175.77,38.69 122.65,27.31 94.9,58.02 365.94,77.4 229.05,16.38 126.2,47.5 399.77,15.36 81.98,-9.63 91.28,-36.1 197.25,-25.95l10.23 -61.87c-0.74,-47.36 3.06,-83.19 5.81,-129.59 0.85,-14.26 1.39,-59.93 -1.59,-72.29l-27.72 -56.08c8.98,86.37 19.81,227.38 -5.11,293.01 -374.7,67.39 -1585.47,-298.75 -1670.43,-551.22l-64.3 -56.71c-42.13,38.54 -15.55,27.1 -42.8,69.99 -45.95,-77.44 -63.43,-292.7 -55.85,-396 17.1,-233.1 91.97,-236.18 136.56,-312.81 -58.9,-33.48 -74.11,-21.77 -153.62,-15.78 -159.45,143.63 -124.16,717.81 38.34,918.31 20.15,24.87 19.46,18.57 37.26,48.08 20.21,33.53 5.23,25.7 30.11,55.12z"/>
   <path class="fil18" d="M13495.78 17846.26c153.06,-17.75 654.7,-0.82 757.24,73.01 21.55,15.52 83.67,98.82 93.66,120.32 29.83,64.23 9.35,128.53 -47.2,131.85 -19.44,1.14 -128.91,-33.34 -165.22,-39.78 -61.03,-10.81 -116.86,-12.56 -175.11,-15.11 -519.26,-22.75 -977.2,71.67 -1433.96,231.22 -300.71,105.04 -445,277.32 -568.23,249.36 -64.2,-14.57 -161.66,-115.23 -48.37,-252.22 65.44,-79.14 143.29,-114.96 243.42,-170.91 191.09,-106.77 402.52,-156.17 622.82,-220.01 244.74,-70.94 457.54,-77.18 720.95,-107.73zm609.33 371.83c120.6,-14.15 198.57,93.76 273.2,-33.77 72.35,-298.53 -249.01,-364.55 -447.25,-387.11 -599.37,-68.2 -1621.37,123.65 -2031.46,467.38 -228.8,191.78 -61.1,491.7 177.5,390.93 95.63,-40.38 156.92,-109.76 268.58,-158.2 474.24,-205.7 1057.67,-349.14 1585.6,-313.54l139.85 17.42c28.66,9.26 17.81,4.71 33.98,16.89z"/>
   <path class="fil18" d="M13952.5 17342.64c-5.58,74.07 -9.27,73.11 -34.62,125.47 -112.55,-17.73 -197.08,-61.86 -331.38,-67.27 -364.57,-14.71 -738.32,22.18 -1086.01,109.49 -702.43,176.41 -690.18,288.36 -851.17,344.63 -204.62,71.53 -612.33,-334.17 854.06,-658.27 282.25,-62.38 807.21,-105.24 1112.79,-56.28 194.87,31.22 164.73,35.84 295.97,100.42 -67.9,-99.78 -152.19,-128.54 -299.53,-153.16 -357.44,-59.72 -850.25,-6.52 -1191.65,68.36 -311.61,68.34 -1201.12,294.93 -1028.5,672.3 43.13,94.29 173.97,154.69 298.6,85.12 93.56,-52.22 152.08,-103.93 270.91,-155.73 199.76,-87.06 420.39,-159.39 653.29,-205.35 253.38,-50 514.16,-88.96 787.87,-84.99 138.22,2 258.56,11.36 383.83,47.44 50.69,14.6 110.13,40.48 156.25,-2.91 21.06,-19.82 32.22,-49.72 34.24,-84.33 2.63,-44.79 -4.96,-63.46 -24.95,-84.94z"/>
   <path class="fil20" d="M8330.46 15229.38c84.96,252.47 1295.73,618.61 1670.43,551.22 24.92,-65.63 14.09,-206.64 5.11,-293.01 -6.02,0.66 -250.29,-36.11 -288.43,-41.8 -425.56,-63.49 -878.21,-159.8 -1219.55,-419.11 -127.84,-97.11 -231.85,-202.69 -182.29,-444.06 -59.52,44.04 -34.55,70.25 -63.58,163.56 -1.04,3.34 -2.97,6.86 -3.89,10.18 -10.63,38.24 -9.23,55.74 16.35,105.49 104.2,202.63 434.81,378.05 645.44,454.23 325.54,117.74 570.67,152.65 903.7,208.84 204.25,34.46 88.88,177.99 76.38,185.14 -184.97,43.64 -688.15,-99.48 -869.18,-150.88 -248.77,-70.64 -344.36,-142.68 -531.93,-236.4 -64.44,-32.19 -101.79,-76.04 -158.56,-93.4z"/>
   <path class="fil21" d="M7571 19323.38c32.95,-12.25 64.48,-3.79 92.43,6.99 75.33,29.09 8.83,31.27 96.55,42.71 -66.68,-118.3 -118.53,-109.03 -113.02,-303.84 3.74,-131.65 10.16,-249.61 24.05,-378.81 12.73,-118.53 24.6,-247.87 41.09,-355.18 23.22,-151.22 -1.37,-227.73 97.44,-311.41 48.19,65.82 23.41,129.04 178.95,281.29 56.74,55.55 189.84,177.58 270.37,209.94 -34.51,-111.8 -172.64,-111.29 -266.51,-300.11 -24.35,-48.99 -7.49,-52.76 -37.98,-105.07l-50.85 -92.11c-33.69,-53.99 -4.59,-13.47 -31.32,-19.43 -40.07,-8.93 -13.28,18.78 -46.12,-15.06 -21.99,-22.66 -26.33,-89.92 -34.11,-117.53 -213.5,119.27 -199.52,371.13 -229.18,668.56 -18.07,181.23 -112.54,668.67 8.21,789.06z"/>
   <path class="fil22" d="M8561.83 16753.42c-61.19,-151.44 -141.07,-111.88 -50.68,-293.43 30.1,-60.45 17.95,-4.7 3.49,-66.43 -15.69,-66.97 -5.16,-36.94 0.84,-95.27 11.03,-107.02 -13.85,-114.53 30.33,-197.19 -43.03,-47.85 -81.2,-76.69 -111.83,-142.69l44.61 -18.97c11.16,-2.73 24.49,-1.97 35.15,-2.25 -56.28,-79.56 -60.07,-142.53 -131.06,-219.11 -117.14,47.94 -88.9,125.9 -103.44,255.46 -10.44,93.01 -40.09,284.83 -18.23,354.07 39.46,125.04 220.1,272.21 300.82,425.81z"/>
   <path class="fil14" d="M6796.42 7782.58c158.42,0.53 53.22,-144.84 348.25,-349.41l58.71 -55.7c-59.69,18.05 -225.71,115.54 -274.71,151.09 -124.36,90.25 -169.79,128.01 -132.25,254.02z"/>
  </g>
 </g>
</svg>
