<?xml version="1.0" encoding="UTF-8"?>
<svg id="Layer_1" xmlns="http://www.w3.org/2000/svg" version="1.1" viewBox="0 0 73.33 91">
  <!-- Generator: Adobe Illustrator 29.7.1, SVG Export Plug-In . SVG Version: 2.1.1 Build 8)  -->
  <defs>
    <style>
      .st0 {
        fill: #2d2e2d;
        fill-rule: evenodd;
      }

      .st0, .st1 {
        display: none;
      }

      .st2, .st1 {
        fill: #010101;
      }
    </style>
  </defs>
  <path class="st0" d="M36.51,16.08c-.64,1.59-1.36,8.06-1.6,14.39-.34,9.1-.03,13.02,1.47,18.76,1.85,7.09,1.85,7.25.02,6.67-3.48-1.1-12.44-.7-15.28.69-6.71,3.28-8.94,11.65-4.41,16.47,3.27,3.48,8.98,4.67,20.41,4.24,11.53-.43,19.02-3.26,21.29-8.04,1.57-3.31.07-7.5-5.28-14.8-1.93-2.63-4.22-6.75-5.09-9.14-1.77-4.91-2.29-15.62-1.16-23.86.64-4.62.56-5.18-.5-3.5-.82,1.31-1.26,5.99-1.26,13.5,0,10.51.23,11.98,2.72,17,1.5,3.02,4.31,7.69,6.25,10.36,4.13,5.69,4.43,8.83,1.14,12.12s-9.7,4.9-21.11,4.97c-11.29.06-16.19-1.78-17.94-6.75-3.07-8.73,8.92-15.56,20.34-11.58,1.76.61,3.38.93,3.61.71.22-.23-.5-3.32-1.61-6.87-2.87-9.17-3.46-20.78-1.52-29.89,1.67-7.86,1.45-10.27-.5-5.46"/>
  <path class="st1" d="M36.73,16.03c-2.1,4.9-2.3,25.1-.5,32.3.9,3.5,1.6,6.6,1.6,7.1,0,.4-2.1.4-4.6-.1-10-1.9-18.9,3.3-18.9,11s5.9,11.1,20.6,11.1c13.3,0,23.5-4,24-9.5.3-4.2-.2-5.6-4.7-12.1-2.5-3.7-5.3-8.6-6.1-10.8-1.7-4.7-2.2-16.8-1-24.1.7-4,.6-4.7-.4-3.8-.7.7-1.4,5.2-1.7,11.1-.6,12.3,1.1,18.6,7.3,27.6,2.4,3.6,4.7,7.7,5.1,9.1,1.7,6.7-7.1,10.9-23.1,11-8.3,0-10.6-.3-13.5-2.1-6.5-3.8-6.5-10.8-.1-15.1,3.8-2.5,9.2-3,15.4-1.2,2.2.6,4.1.9,4.3.7s-.6-3.3-1.7-6.8c-2.9-9.2-3.5-20.8-1.5-29.9,1.7-7.9,1.4-10.3-.5-5.5Z"/>
  <path class="st1" d="M42.83,25.19c-2.9,2.4-5,3.3-9.8,4-3.4.5-6.6,1.3-7.1,1.8-.6.6-2,1-3.2,1-2.9,0-7.8,4.2-9.4,8-2.9,7,1,18.2,6.8,19.6,1.5.4,4.1,1.8,5.7,3.2,6.6,5.5,14.9,7.7,17.9,4.7.8-.8,2.5-1.5,3.9-1.5,2.6,0,5.7-2.8,5.7-5.2,0-.8,1.1-2,2.4-2.6,3.4-1.5,5.9-5.6,5.1-8.1-1.1-3.7-3.4-5.1-8.1-5.1-2.5,0-6.1-.7-8.2-1.6l-3.7-1.7,3.7-.9c5.3-1.4,9.8-6.8,9.8-11.7,0-7.3-5.5-9.2-11.5-3.9ZM51.43,25.09c2.8,2.8,1.9,7.5-2.1,11.1-2.4,2.2-4,2.8-7.7,2.8h-4.8l3.2,3.1c2.6,2.6,4.1,3.2,9.6,3.8,7.1.7,9.7,2.2,9.7,5.4,0,5.9-8.1,7.6-15.7,3.2-3.6-2.2-4.3-3.1-4.4-5.8,0-3-.1-2.9-1.5,1.4-.7,2.5-2.6,5.8-4.1,7.3l-2.7,2.7,2.4-.5c1.9-.4,3.5.3,6.4,2.8,3.6,3.1,3.8,3.4,2,4.4-2.9,1.5-10.5-1.2-14.6-5.2-2.7-2.6-4-5.1-5.2-9.8l-1.5-6.3.4,5c.2,2.7.7,5.8,1,6.7,1,2.6-1.2,2.2-4-.6-5-5-5.2-13.9-.4-20,2.8-3.5,5.2-3.6,3.9,0-1.3,3.4-1.3,8.4.1,8.4.7,0,.9-.9.6-2.2-.7-2.5,1.3-7.7,3.7-9.7,1-.8,4.4-1.8,7.6-2.2,4.8-.5,6.7-1.4,10.1-4.3,2.4-2,4.6-3.6,5.1-3.6.4,0,1.7.9,2.9,2.1ZM51.33,61.09c0,.9-.7,2.2-1.6,3-1.3,1.1-2.3.9-5.9-1-6.1-3.2-7.9-5.4-6.6-7.8.9-1.9,1.2-1.8,7.5,1.1,4.1,1.9,6.6,3.7,6.6,4.7Z"/>
  <path class="st1" d="M22.9,21.85c-4.6,5.1-.6,14,7.3,16.4l4.7,1.4-3.7,1.6c-2.1.9-5.8,1.6-8.3,1.6-4.9,0-8.5,2.5-8.5,5.9,0,2.4,3.5,6.8,6,7.6,1.1.4,2,1.5,2,2.5,0,2.6,2.7,5,5.6,5,1.4,0,3.2.7,4,1.5,3,2.9,10.3,1.1,17.3-4.3,2-1.5,4.9-3.2,6.6-3.7,9.4-3.2,9.7-21.6.4-26.2-3.8-1.8-12.9-4.3-15.9-4.3-1.6,0-4.5-1.4-7.1-3.5-5-4-7.8-4.4-10.4-1.5ZM33.8,25.75c3.1,2.5,4.8,3.1,8.8,3.1s5.4.5,7.9,2.9c2.3,2.3,2.9,3.8,2.9,7.1,0,2.7.4,3.9,1.1,3.4,1.1-.7.8-5.5-.6-8.8-1.4-3.2,2.7-1.4,5.2,2.3,4.1,6.1,2.6,16.6-2.9,20-2.7,1.7-3.2.8-1.9-3,1.4-4,1.5-9.2.1-8.4-.5.3-1,2.3-1,4.3s-.9,5.1-1.9,6.8c-4,6.6-14.1,11.6-17.8,8.9-1-.7-1.6-1.5-1.3-1.7,6.6-5,8.1-5.7,9.6-5.1,1.3.5,1.1-.2-1-2.9-1.5-2-3-5.2-3.3-7.2s-.9-3.4-1.3-3.1c-.4.2-.5,1.5-.3,2.9.4,2-.3,2.8-3.9,5-7.5,4.4-15.8,2.8-15.8-2.9,0-3.4,2.5-4.8,9.7-5.6,4.7-.5,7.1-1.3,8.9-3,3.4-3.1,3-3.9-1.7-3.9-8.1,0-14.4-10.4-8.7-14.4,2.4-1.7,3.3-1.4,9.2,3.3ZM37.9,56.85c-.9,1-3.6,2.8-6,4.1-3.6,1.9-4.6,2.1-5.9,1-3-2.5-1.7-4.5,4.7-7.6,5.9-2.9,6.3-3,7.5-1.2,1.2,1.6,1.2,2.1-.3,3.7Z"/>
  <path class="st1" d="M40.05,52.55c0,2.8,12,6.4,13.4,4.1.5-.7-.6-1.1-3.1-1.1-2.1,0-5.3-.9-7-2-1.8-1.1-3.3-1.5-3.3-1Z"/>
  <path class="st1" d="M51.2,53.9c-.7.7-3.6,2-6.5,3-4.9,1.7-5,1.8-2,1.9,3.6,0,8.1-1.9,10.1-4.4,1.5-1.8.1-2.2-1.6-.5Z"/>
  <path class="st1" d="M29.65,31.75c-7.4,4.5-10.2,19.4-5.3,28.2,3.1,5.5,6.7,8.1,11.4,8.1,11.1,0,17.4-17,11-29.8-3.9-7.9-10.6-10.5-17.1-6.5ZM42.15,34.45c8.5,7.1,7,26.6-2.3,31.1-4.3,2-8,1.1-11.8-2.9-3-3.3-3.9-6.1-1-3.6,4.3,3.9,10.1,2.9,12.7-2.1,2.1-4.2,1.9-4.8-1.5-5.6-1.6-.4-3-1.1-3-1.5,0-.5,1.4-1.9,3-3.2,1.7-1.2,3-2.5,3-2.9s-1.2-2.1-2.6-3.8c-3.2-3.8-7.6-4.2-11.1-.9-3.7,3.5-2.7,0,1.1-3.8,4.3-4.3,9-4.6,13.5-.8Z"/>
  <path class="st1" d="M30.4,26.4c-5.1,3.5-7.5,9-7.5,17.3.1,11,5.2,18.5,12.7,18.5,9.1,0,14.2-6.6,14.3-18.5,0-8.4-2.3-13.9-7.4-17.2-4.3-2.9-7.9-2.9-12.1-.1ZM42.7,28.2c3.9,3.1,6,9.7,5.5,17.4-.3,5.4-.9,7.2-3.4,10.3-4.1,5.1-9.3,6.5-13.2,3.6-1.5-1.1-3.6-3.5-4.7-5.4l-1.9-3.4,3.3,2.7c1.8,1.6,4.1,2.8,5.2,2.8,2.3,0,7.5-4.7,8.4-7.7.5-1.8.1-2.2-2.5-2.8-3.7-.8-3.8-2.1-.5-4.7,3.1-2.5,3.2-4.2,0-7.3-3.1-3.1-7.3-3.2-11.1-.3l-2.9,2.3,1.9-3c1-1.7,2.7-3.8,3.8-4.8,2.8-2.3,8.9-2.2,12.1.3Z"/>
  <path class="st2" d="M46.02,36.69c1.3,6-7.6,12.1-15.6,10.6-5.1-1-9-4.3-8.3-7.2.3-1.2.2-2.6-.4-2.9-.5-.3-1,.4-1,1.5,0,1.2-1.4,3.5-3.1,5.1-3.8,3.5-3.4,4.8.5,1.8l2.7-2.1,2.3,2.1c5.6,5.3,15.7,4.6,21.6-1.4,3-3.1,3.5-3.3,5.4-2,2.3,1.7,3.6,1.9,3.6.7,0-.4-1-1.2-2.2-1.7-1.3-.6-2.7-2.4-3.3-4.3-1.2-4-3-4.3-2.2-.2Z"/>
</svg>