<?xml version="1.0" encoding="UTF-8"?>
<svg id="Layer_1" xmlns="http://www.w3.org/2000/svg" version="1.1" viewBox="0 0 73.33 91">
  <!-- Generator: Adobe Illustrator 29.7.1, SVG Export Plug-In . SVG Version: 2.1.1 Build 8)  -->
  <defs>
    <style>
      .st0 {
        display: none;
        fill: #2d2e2d;
        fill-rule: evenodd;
      }

      .st1 {
        fill: #010101;
      }
    </style>
  </defs>
  <path class="st0" d="M36.51,16.08c-.64,1.59-1.36,8.06-1.6,14.39-.34,9.1-.03,13.02,1.47,18.76,1.85,7.09,1.85,7.25.02,6.67-3.48-1.1-12.44-.7-15.28.69-6.71,3.28-8.94,11.65-4.41,16.47,3.27,3.48,8.98,4.67,20.41,4.24,11.53-.43,19.02-3.26,21.29-8.04,1.57-3.31.07-7.5-5.28-14.8-1.93-2.63-4.22-6.75-5.09-9.14-1.77-4.91-2.29-15.62-1.16-23.86.64-4.62.56-5.18-.5-3.5-.82,1.31-1.26,5.99-1.26,13.5,0,10.51.23,11.98,2.72,17,1.5,3.02,4.31,7.69,6.25,10.36,4.13,5.69,4.43,8.83,1.14,12.12s-9.7,4.9-21.11,4.97c-11.29.06-16.19-1.78-17.94-6.75-3.07-8.73,8.92-15.56,20.34-11.58,1.76.61,3.38.93,3.61.71.22-.23-.5-3.32-1.61-6.87-2.87-9.17-3.46-20.78-1.52-29.89,1.67-7.86,1.45-10.27-.5-5.46"/>
  <path class="st1" d="M36.73,16.03c-2.1,4.9-2.3,25.1-.5,32.3.9,3.5,1.6,6.6,1.6,7.1,0,.4-2.1.4-4.6-.1-10-1.9-18.9,3.3-18.9,11s5.9,11.1,20.6,11.1c13.3,0,23.5-4,24-9.5.3-4.2-.2-5.6-4.7-12.1-2.5-3.7-5.3-8.6-6.1-10.8-1.7-4.7-2.2-16.8-1-24.1.7-4,.6-4.7-.4-3.8-.7.7-1.4,5.2-1.7,11.1-.6,12.3,1.1,18.6,7.3,27.6,2.4,3.6,4.7,7.7,5.1,9.1,1.7,6.7-7.1,10.9-23.1,11-8.3,0-10.6-.3-13.5-2.1-6.5-3.8-6.5-10.8-.1-15.1,3.8-2.5,9.2-3,15.4-1.2,2.2.6,4.1.9,4.3.7s-.6-3.3-1.7-6.8c-2.9-9.2-3.5-20.8-1.5-29.9,1.7-7.9,1.4-10.3-.5-5.5Z"/>
</svg>