<?xml version="1.0" encoding="UTF-8"?>
<svg id="Layer_1" xmlns="http://www.w3.org/2000/svg" version="1.1" viewBox="0 0 144.13 115.75">
  <!-- Generator: Adobe Illustrator 29.7.1, SVG Export Plug-In . SVG Version: 2.1.1 Build 8)  -->
  <defs>
    <style>
      .st0 {
        fill: #2d2e2d;
        fill-rule: evenodd;
      }

      .st0, .st1 {
        display: none;
      }
    </style>
  </defs>
  <path class="st0" d="M61.51,16.08c-.64,1.59-1.36,8.06-1.6,14.39-.34,9.1-.03,13.02,1.47,18.76,1.85,7.09,1.85,7.25.02,6.67-3.48-1.1-12.44-.7-15.28.69-6.71,3.28-8.94,11.65-4.41,16.47,3.27,3.48,8.98,4.67,20.41,4.24,11.53-.43,19.02-3.26,21.29-8.04,1.57-3.31.07-7.5-5.28-14.8-1.93-2.63-4.22-6.75-5.09-9.14-1.77-4.91-2.29-15.62-1.16-23.86.64-4.62.56-5.18-.5-3.5-.82,1.31-1.26,5.99-1.26,13.5,0,10.51.23,11.98,2.72,17,1.5,3.02,4.31,7.69,6.25,10.36,4.13,5.69,4.43,8.83,1.14,12.12s-9.7,4.9-21.11,4.97c-11.29.06-16.19-1.78-17.94-6.75-3.07-8.73,8.92-15.56,20.34-11.58,1.76.61,3.38.93,3.61.71.22-.23-.5-3.32-1.61-6.87-2.87-9.17-3.46-20.78-1.52-29.89,1.67-7.86,1.45-10.27-.5-5.46"/>
  <path class="st1" d="M69.65,22.49c0,2.8,12,6.4,13.4,4.1.5-.7-.6-1.1-3.1-1.1-2.1,0-5.3-.9-7-2-1.8-1.1-3.3-1.5-3.3-1Z"/>
  <path class="st1" d="M47.95,24.59c-.7.7-3.6,2-6.5,3-4.9,1.7-5,1.8-2,1.9,3.6,0,8.1-1.9,10.1-4.4,1.5-1.8.1-2.2-1.6-.5Z"/>
  <path class="st1" d="M45.15,31.89c-10,4.4-13.2,20.2-6.4,31.2,2,3.3,7.2,6.4,10.7,6.4,3.3,0,8.6-4.3,11-9,7.2-14.3-3.3-33.9-15.3-28.6ZM53.65,33.99c3.4,1.7,6.4,7.1,7.3,12.9,1.6,9.9-4.4,20.6-11.5,20.6s-12.8-8-12.7-17.5v-5l1.5,4c3.2,8.7,9.1,11,14.6,5.5,3.4-3.4,3.4-6.2-.1-7-3.6-.8-3.6-2.5-.2-5,3-2.1,3-2.2,1.6-5-.8-1.6-2.3-3.4-3.2-3.9-2.8-1.6-.5-1.3,2.7.4Z"/>
  <path class="st1" d="M74.05,31.49c-2.9,1.2-7,6.3-8.4,10.6-2,6.1-.7,15.9,2.7,20.8,5.1,7.2,12.2,7.9,18.5,1.9,3.6-3.4,5.2-8.4,5.1-15.8-.1-12.7-8.8-21.2-17.9-17.5ZM83.05,33.69c3.4,1.5,7.6,10,7.6,15.2,0,12.7-7.7,21-16.1,17.6-5.4-2.3-10.6-15.2-8-19.7.67-1.07,1.03-.93,1.1.4,0,5.2,4.8,10.3,9.5,10.3,2.2,0,7.5-5.4,7.5-7.7,0-1.2-1.2-2.3-3.2-3.1l-3.3-1.2,3.3-2.6c3.9-3.1,4-4.3.6-7.8-2.9-2.9-2.7-3.2,1-1.4Z"/>
  <path class="st1" d="M76.4,13.39c0,.4,1.6,1.9,3.5,3.1,4.4,3,7.9,7.7,11.3,15,2.5,5.3,2.7,6.6,2.6,18.2,0,11-.4,13.4-2.8,20-4.4,12.1-4.4,11.3,0,10.3,6.1-1.3,13.6-.8,17.1,1,6.8,3.6,7.9,11.4,2.2,16.1-3.8,3.3-8.2,4-18.9,3.3-16-1.2-24-4.1-24-8.8,0-1.1,2.7-4.8,5.9-8.3,6.9-7.4,8.1-10.5,8.8-23.6.9-15.4-2.8-27.4-11-35.8-6-6.2-6.8-5.1-.9,1.3,2.8,3.1,6,7.8,7.1,10.8l2,5.2-3.2,2.8c-4.7,4.2-18.8,10.7-24.3,11.3-3.2.4-6.4,0-9.3-1-8.9-3.3-15.1-1-15.1,5.4s8.7,26.9,13.8,32.3c6,6.4,12.5,7.1,17.6,2.1,5-5.1,4.7-13.1-.9-20.9-1.9-2.7-3.2-5.2-3-5.5.3-.4,2.7-1,5.5-1.4s8.2-1.8,11.9-3.1c3.8-1.4,7.2-2.5,7.6-2.5,1.2,0-.4,10.9-2.1,14.3-.9,1.8-3.8,5.3-6.5,7.9-5.1,5-6.2,8.5-3.9,12.8,1.4,2.6,9.1,4.7,21.5,6,14.7,1.5,22.6-.6,25.3-6.6,2.8-6,.1-12.8-6.3-15.9-3-1.3-5.4-1.6-11-1.3l-7.2.5,2.4-6.9c1.3-3.7,2.9-10.5,3.4-15.1.6-4.5,1.6-9.1,2.2-10.2,4.5-8.6,5.9-12.3,6.4-17.3.7-6.9-.3-6.5-1.7.7-1.1,6.1-4.7,14.7-5.7,13.7-.9-.9-4.4-13.6-4.5-16.1,0-1.1.3-3.8.7-5.9.6-2.9.5-3.7-.3-3.2-.7.4-1.2,1.7-1.2,3,0,3.9-1.1,3.7-5-.7-3.7-4.1-10-8.6-10-7ZM80.8,51.49l.7,6.3-5.3,2.4c-5.3,2.4-17.8,5.5-22.4,5.5-3.1,0-3.1,2,.2,5.1,3.9,3.6,6.4,9.3,6.4,14.4,0,9.2-9,13.7-15.9,7.9-3.8-3.2-7-8.5-11.1-18.4-5.5-13.3-5.7-17.5-.9-20,1.6-.9,3.6-.6,9,1,5.9,1.9,7.6,2,12,1.1,5.8-1.3,18-7,22.4-10.5,1.7-1.4,3.3-2.1,3.6-1.8.4.4,1,3.5,1.3,7Z"/>
  <path class="st1" d="M60.1,20.79c.4,2.4.7,4.7.8,5.3.2,1.6-9.2,9.7-9.9,8.5-.3-.5-1-3.8-1.4-7.3l-.8-6.2-.2,5.1c0,2.8.4,6.5,1,8.2.9,2.7.8,3.6-1.1,6.2-3.1,4.3-7.5,14.6-9.1,21-.7,3-1.4,5.7-1.5,5.9-.2.2-2.1-1.1-4.3-2.8-10.1-8-20.5-8-24.7,0-4,7.8,2,15.7,18.4,24.2,5.9,3.1,12.6,5.9,14.9,6.3,3.6.6,4.5.3,6.8-2,2.3-2.4,2.6-3.3,2.1-6.9-2.1-14.6-2-15.2,1.7-22.9,5.7-12,5.4-11.8,11.8-7,6.6,5,14,8.5,22.8,10.8,3.6,1,6.8,1.9,7,2,.2.2-1.1,2.1-2.8,4.3-6.2,7.8-7.7,15-4.2,20.7,4,6.6,12.6,6.6,18.9.1,4.3-4.4,12.3-18,14.6-24.8,2.2-6.6,1.7-10.2-2-12.6-2.3-1.4-3.3-1.5-8.3-.5-9.4,2-13.2,1.5-20.7-2.3-7.1-3.6-18.4-11.9-18.4-13.6,0-1.3,9.9-5.9,13-6,1.4,0,3.4-.5,4.5-1,1.4-.7.5-.8-3.2-.5-11.4,1-23.6,10.4-31.8,24.3-5.9,10.1-7.2,15.1-5.7,22.3,1.4,6.6,1.5,10.7.4,11.4-.5.3-2.4-1.1-4.3-3-7.6-8-21.1-16.9-29.4-19.4-5.6-1.7-5.9-2.3-2.9-5.3,2.2-2.2,3.6-2.7,7.6-2.7,6,0,8,.9,14,6.8,3.3,3.1,4.9,4.1,5.1,3.1.2-.8,1.4-5,2.6-9.4,6.2-22.7,20.4-37.2,37.9-38.3,3.4-.2,6.2-.8,6.2-1.3,0-1.7-8.5-.8-15.5,1.5-7.7,2.7-8.5,2.4-8.5-3.2,0-1.7-.5-3.2-1.1-3.2-.7,0-.8,1.4-.3,4.2ZM72.6,44.19c3.9,4.3,16.1,11.9,22.3,13.8,3.6,1.2,7,1.6,9.4,1.2,14.6-2.4,16.2-2,16.2,4.4,0,4.2-6.6,18.4-12,25.8-6,8.4-13,10.4-18.1,5.3-2.2-2.3-2.9-3.9-2.9-7,0-5.6,1.3-8.5,6.6-14.1,2.6-2.8,4.5-5.2,4.3-5.3-.2-.2-3.8-1.1-7.9-2-9.2-2.2-20.1-7.3-25.8-12.3l-4.3-3.7,4.2-4.3c2.4-2.4,4.6-4.4,4.9-4.4.4,0,1.7,1.2,3.1,2.6Z"/>
  <path class="st1" d="M51.64,34.72c-7.4,5.5-12.7,11.4-18,20.1l-3.6,5.9-3.1-4.4c-8.6-12.2-25.2-10.6-25.2,2.4,0,3.9,4.7,10.7,11.8,17.2,9.2,8.3,16.9,11.5,22.7,9.3,2.4-.9,4.5-5.8,5.6-12.7,2-12.4,7.9-21.8,18.5-29.3,3.6-2.6,6.2-4.9,5.9-5.2-.9-.9-11.4,6.9-15.5,11.6-5.4,6.1-8.7,13.2-10.5,22.6-1.6,8.5-4.2,12.6-8,12.6-6,0-20.4-10.6-25.7-18.9-5.6-8.8-2.7-16.1,6.4-16.1,6,0,12,4.5,14.9,11.2.6,1.6,1.5,2.8,2,2.8s2-2.1,3.3-4.8c5.7-11.1,12.2-18.1,25.6-27.4,1.6-1.1,2-1.7,1-1.7-.8-.1-4.5,2.1-8.1,4.8Z"/>
  <path class="st1" d="M88.74,34.22c8.5,5.7,16.8,14.7,21.1,23,1.9,3.6,3.7,6.6,4,6.6s2-2.2,3.7-5c3.8-6.1,8.3-9,14-9s9.2,3.3,9.2,8.3c0,6.9-15.1,22.5-24.8,25.8-7.2,2.4-10.5-.7-12.2-11.6-1.9-12.7-9.1-23.7-20.6-31.6-4.4-3-5.4-3.4-5.4-2.2,0,.5,2,2.1,4.5,3.6,5.7,3.6,13.7,12.4,16.4,18,1.2,2.5,2.8,7.9,3.5,12.2,1.7,9.8,3.9,12.9,9.5,13.3,11.4.9,32.8-19.9,30.6-29.8-.9-4.1-5.8-8-10.2-8-6.3,0-11.4,3.4-16.4,11l-1.5,2.3-3.4-5.9c-3.9-7-14.4-18.2-21-22.4-7.4-4.7-8.2-3.5-1,1.4Z"/>
  <path d="M49.05,19.74c-5.9,5.1-10.2,12-12.3,19.4-2.5,8.6-1.7,23.5,1.9,33.9,1.4,4.2,2.6,7.8,2.6,8,0,.1-3.5.1-7.7-.1-6.9-.3-8.2-.1-11.3,2-1.9,1.3-4.3,4-5.4,6.1-1.6,3.4-1.7,4.2-.4,7.5.8,2,2.9,4.7,4.7,5.9,3,2,4.7,2.3,13.4,2.3,16.4,0,27.3-2.5,29.7-6.9,1.9-3.7,1-6.2-4.9-12.5-7.4-8-8.6-11.5-8.5-26.6.1-16,3.7-25.2,12.8-33.2,4-3.5,1.8-3.7-2.3-.2-7.5,6.3-12.2,19.2-12.3,33.4-.1,14,2,20.4,8.8,27.1,4.3,4.3,5.4,6,5.4,8.6,0,5.5-6.4,7.8-24.7,9-11.1.7-17.4-1.1-19.8-5.7-2.4-4.7-1.9-7.9,2-11.6,4.2-4,10-5.1,17.6-3.5,2.8.6,5.4,1,5.6.8s-.6-2.5-1.7-5.1c-5.4-12.8-7-29-3.7-39.7,2.2-7.3,7.1-14.5,12.4-18.4,4-2.9,5.3-4.5,3.4-4.5-.4,0-2.9,1.8-5.3,4h0Z"/>
  <path class="st1" d="M88.25,16.44c.1.5,1.8,2,3.9,3.5,14.5,10,18.3,34.2,8.9,57.6-1.1,2.9-1.9,5.5-1.6,5.7.2.2,3.3-.1,7-.7,5.7-1,7.2-.9,11.3.6,4.9,1.9,8.5,6.2,8.5,10.3,0,3.1-4.5,8-8.7,9.4-7.9,2.6-33.2-1-36.5-5.1-2.7-3.4-2.3-4.7,3.7-10.9,7.1-7.5,8.7-11.4,9.3-23.3.8-16.3-2.8-28.4-10.8-36.7-6-6.1-7-4.9-1.2,1.4,8.5,9.3,12.5,24.4,10.3,39.1-1.4,9.3-3,12.6-9.2,18.6-4,3.9-4.9,5.4-4.9,8.2,0,6.5,4.6,8.6,23.3,10.6,17.1,1.7,25.6-2.1,25.7-11.7,0-8.4-6.9-12.8-19-12.1l-6.8.4,1.8-4.7c2.6-6.4,5-18.8,5-25.1,0-6.9-2.3-15.8-5.7-22.1-3.5-6.4-14.4-16.3-14.3-13h0Z"/>
</svg>