<?xml version="1.0" encoding="UTF-8"?>
<svg id="Layer_1" xmlns="http://www.w3.org/2000/svg" version="1.1" viewBox="0 0 73.33 91">
  <!-- Generator: Adobe Illustrator 29.7.1, SVG Export Plug-In . SVG Version: 2.1.1 Build 8)  -->
  <defs>
    <style>
      .st0 {
        display: none;
        fill: #2d2e2d;
        fill-rule: evenodd;
      }
    </style>
  </defs>
  <path class="st0" d="M36.51,16.08c-.64,1.59-1.36,8.06-1.6,14.39-.34,9.1-.03,13.02,1.47,18.76,1.85,7.09,1.85,7.25.02,6.67-3.48-1.1-12.44-.7-15.28.69-6.71,3.28-8.94,11.65-4.41,16.47,3.27,3.48,8.98,4.67,20.41,4.24,11.53-.43,19.02-3.26,21.29-8.04,1.57-3.31.07-7.5-5.28-14.8-1.93-2.63-4.22-6.75-5.09-9.14-1.77-4.91-2.29-15.62-1.16-23.86.64-4.62.56-5.18-.5-3.5-.82,1.31-1.26,5.99-1.26,13.5,0,10.51.23,11.98,2.72,17,1.5,3.02,4.31,7.69,6.25,10.36,4.13,5.69,4.43,8.83,1.14,12.12s-9.7,4.9-21.11,4.97c-11.29.06-16.19-1.78-17.94-6.75-3.07-8.73,8.92-15.56,20.34-11.58,1.76.61,3.38.93,3.61.71.22-.23-.5-3.32-1.61-6.87-2.87-9.17-3.46-20.78-1.52-29.89,1.67-7.86,1.45-10.27-.5-5.46"/>
  <path d="M44.65,22.49c0,2.8,12,6.4,13.4,4.1.5-.7-.6-1.1-3.1-1.1-2.1,0-5.3-.9-7-2-1.8-1.1-3.3-1.5-3.3-1Z"/>
  <path d="M22.95,24.59c-.7.7-3.6,2-6.5,3-4.9,1.7-5,1.8-2,1.9,3.6,0,8.1-1.9,10.1-4.4,1.5-1.8.1-2.2-1.6-.5Z"/>
  <path d="M20.15,31.89c-10,4.4-13.2,20.2-6.4,31.2,2,3.3,7.2,6.4,10.7,6.4,3.3,0,8.6-4.3,11-9,7.2-14.3-3.3-33.9-15.3-28.6ZM28.65,33.99c3.4,1.7,6.4,7.1,7.3,12.9,1.6,9.9-4.4,20.6-11.5,20.6s-12.8-8-12.7-17.5v-5l1.5,4c3.2,8.7,9.1,11,14.6,5.5,3.4-3.4,3.4-6.2-.1-7-3.6-.8-3.6-2.5-.2-5,3-2.1,3-2.2,1.6-5-.8-1.6-2.3-3.4-3.2-3.9-2.8-1.6-.5-1.3,2.7.4Z"/>
  <path d="M49.05,31.49c-2.9,1.2-7,6.3-8.4,10.6-2,6.1-.7,15.9,2.7,20.8,5.1,7.2,12.2,7.9,18.5,1.9,3.6-3.4,5.2-8.4,5.1-15.8-.1-12.7-8.8-21.2-17.9-17.5ZM58.05,33.69c3.4,1.5,7.6,10,7.6,15.2,0,12.7-7.7,21-16.1,17.6-5.4-2.3-10.6-15.2-8-19.7q1-1.6,1.1.4c0,5.2,4.8,10.3,9.5,10.3,2.2,0,7.5-5.4,7.5-7.7,0-1.2-1.2-2.3-3.2-3.1l-3.3-1.2,3.3-2.6c3.9-3.1,4-4.3.6-7.8-2.9-2.9-2.7-3.2,1-1.4Z"/>
</svg>